<svg xmlns="http://www.w3.org/2000/svg" width="83" height="83" viewBox="0 0 83 83"><path d="M41.072,0h.7a7.94,7.94,0,0,1,7.621,7.6,7.958,7.958,0,0,1,6.353-.441A8.974,8.974,0,0,1,58.137,8.5,7.886,7.886,0,0,1,70.124,9.96a8.074,8.074,0,0,1,1.289,4A7.931,7.931,0,0,1,83,20.489v.858a8.073,8.073,0,0,1-3.7,6.3,8.026,8.026,0,0,1,3.7,6.29v.849a7.925,7.925,0,0,1-11.586,6.531,8,8,0,0,1-2.728,5.654A7.9,7.9,0,0,1,61.3,48.584a8.016,8.016,0,0,1-5-4.388,6.715,6.715,0,0,0-.624,1.423,48.527,48.527,0,0,0-1.534,4.935,21,21,0,0,1,2.712.11,1.28,1.28,0,0,1,.746,1.477,1.335,1.335,0,0,1-1.5.877c-8.908-.139-17.819-.135-26.729-.037q-4.875.075-9.751.175a3.129,3.129,0,0,0-2.633,1.427,4.441,4.441,0,0,0-.569,1.91,11.858,11.858,0,0,0,.188,4.121,3.087,3.087,0,0,0,2.863,2.294c3.3.091,6.6.136,9.9.185q17.017.214,34.032-.175a3.1,3.1,0,0,0,3.015-2.3,11.845,11.845,0,0,0,.032-5.017,3.074,3.074,0,0,0-2.38-2.365c-1.005-.173-2.033-.029-3.041-.162a1.218,1.218,0,0,1-.919-.931,1.423,1.423,0,0,1,.332-1.106c.472-.494,1.209-.327,1.816-.339a7.617,7.617,0,0,1,3.771.666,5.455,5.455,0,0,1,2.777,3.615,14.423,14.423,0,0,1-.047,6.317,5.522,5.522,0,0,1-4.071,3.926,36.949,36.949,0,0,1-2.662,13.956A6.584,6.584,0,0,1,56.513,83H26.5a6.6,6.6,0,0,1-5.549-3.913,36.975,36.975,0,0,1-2.62-13.868,5.517,5.517,0,0,1-4.067-3.907,14.277,14.277,0,0,1-.006-6.528,5.476,5.476,0,0,1,5.035-4.048c3.211-.076,6.423-.122,9.636-.18a48.38,48.38,0,0,0-2.143-6.527,8.043,8.043,0,0,1-4.625,4.406,7.907,7.907,0,0,1-10.568-7.12A7.928,7.928,0,0,1,0,34.79V33.8a8.348,8.348,0,0,1,1.5-4.1A8.733,8.733,0,0,1,3.7,27.625,8.053,8.053,0,0,1,0,21.479v-.986a7.924,7.924,0,0,1,11.581-6.53,7.84,7.84,0,0,1,1.005-3.493,1.283,1.283,0,0,1,1.626-.326,1.3,1.3,0,0,1,.5,1.355,9.728,9.728,0,0,0-.6,1.778,10.6,10.6,0,0,0,.1,3.1,1.209,1.209,0,0,1-1.558,1.226,9.223,9.223,0,0,1-1.409-.971,5.518,5.518,0,0,0-4.905-.913,5.452,5.452,0,0,0-1.971,9.4A10.145,10.145,0,0,0,7.06,26.544,1.214,1.214,0,0,1,7.5,28.4c-.449.488-1.154.582-1.718.89A5.46,5.46,0,0,0,9.757,39.456a10.969,10.969,0,0,0,2.62-1.644,1.206,1.206,0,0,1,1.707.444,2.49,2.49,0,0,1,.039,1.485,6.13,6.13,0,0,0,.311,3.354,5.456,5.456,0,0,0,10.458-1.41,15.075,15.075,0,0,0-.156-2.934,1.205,1.205,0,0,1,1.816-.956,15.315,15.315,0,0,0,2.223,1.488,5.49,5.49,0,0,0,5.829-.794,9.446,9.446,0,0,1-1.036-3.511,8.236,8.236,0,0,1-4.56.815A8.135,8.135,0,0,1,24.83,34a8.41,8.41,0,0,1-5.875,1.924,8.3,8.3,0,1,1,3.952-15.853,9.242,9.242,0,0,1,2.323,1.553l.485-.362a7.925,7.925,0,0,1-2.453-10.947,5.474,5.474,0,0,0-5.119-1.337,2.474,2.474,0,0,1-1.386.182,1.585,1.585,0,0,1-.741-.611,1.278,1.278,0,0,1,.622-1.639A7.862,7.862,0,0,1,24.855,8.5,8.927,8.927,0,0,1,27.4,7.11,7.929,7.929,0,0,1,33.61,7.6a7.949,7.949,0,0,1,2.13-5.09A8.062,8.062,0,0,1,41.072,0m-.627,2.539a5.493,5.493,0,0,0-3.986,3.267,6.057,6.057,0,0,0-.327,3.268c.049.556.269,1.187-.092,1.686a1.213,1.213,0,0,1-1.709.3,9.049,9.049,0,0,0-2.847-1.7,5.458,5.458,0,0,0-5.917,8.525A7.246,7.246,0,0,0,29,20.137a1.218,1.218,0,0,1,.256,2.128,13.564,13.564,0,0,0-2.779,1.451A5.456,5.456,0,0,0,30.313,33.4a6.977,6.977,0,0,0,3.96-1.879,1.218,1.218,0,0,1,1.971.9,10.331,10.331,0,0,0-.068,3.416,5.455,5.455,0,0,0,10.461.639,7.788,7.788,0,0,0,.123-3.9,1.21,1.21,0,0,1,1.864-1.125,8.743,8.743,0,0,0,3.1,1.786A5.455,5.455,0,0,0,57.6,24.9a6.782,6.782,0,0,0-3.526-2.458,1.232,1.232,0,0,1-.684-1.8c.272-.475.849-.584,1.31-.8a6.068,6.068,0,0,0,2.8-2.052,5.455,5.455,0,0,0-6.7-8.162,19.249,19.249,0,0,0-2.331,1.548,1.215,1.215,0,0,1-1.7-1.282A7.067,7.067,0,0,0,46.449,5.6a5.479,5.479,0,0,0-6-3.061m19.291,7.786a7.925,7.925,0,0,1-2.446,10.933c.16.126.324.251.488.376A8.306,8.306,0,1,1,58.176,34a7.969,7.969,0,0,1-8.785.927,8.667,8.667,0,0,1-.992,3.587,5.587,5.587,0,0,0,4.631,1.161,8.377,8.377,0,0,0,3.4-1.872,1.209,1.209,0,0,1,1.833,1.091,7.572,7.572,0,0,0,.229,4.244A5.456,5.456,0,0,0,68.887,42a10.247,10.247,0,0,0-.11-3.1,1.212,1.212,0,0,1,1.739-1.154A21.068,21.068,0,0,0,72.657,39.2a5.452,5.452,0,0,0,4.99-9.7c-.571-.323-1.2-.524-1.783-.807a1.211,1.211,0,0,1-.428-1.728,2.123,2.123,0,0,1,1.094-.679,6.533,6.533,0,0,0,2.733-1.8,5.457,5.457,0,0,0-5.027-8.921,7.482,7.482,0,0,0-3.5,1.832,1.221,1.221,0,0,1-1.96-.849,12.088,12.088,0,0,0,.113-3.27,5.463,5.463,0,0,0-9.151-2.954M16.649,22.493a5.875,5.875,0,0,0,2.138,10.98,5.807,5.807,0,0,0,4.445-1.329,7.976,7.976,0,0,1,.266-8.8,5.926,5.926,0,0,0-6.849-.849m42.852.849a8.012,8.012,0,0,1,.266,8.817,5.873,5.873,0,1,0-.266-8.817M33.741,41.755a57.583,57.583,0,0,1,2.672,8.733q.717-.01,1.438-.006,0-4.418,0-8.835A9.3,9.3,0,0,1,36.1,40.4a8.372,8.372,0,0,1-2.364,1.35M46.9,40.406a9.482,9.482,0,0,1-1.746,1.242q0,4.416,0,8.833.759,0,1.517,0A52.876,52.876,0,0,1,49.32,41.8a9.9,9.9,0,0,1-2.425-1.4m-18.4,1.4a51.242,51.242,0,0,1,2.937,8.709c.833-.008,1.665.018,2.5-.008a49.191,49.191,0,0,0-2.649-8.3,8.5,8.5,0,0,1-2.787-.4m23.292.421A50.8,50.8,0,0,0,49.156,50.5a18.031,18.031,0,0,0,2.5-.039,52.477,52.477,0,0,1,2.96-8.712,8.453,8.453,0,0,1-2.834.478m-11.492.25c0,2.663,0,5.329,0,7.992.809-.01,1.618.013,2.427.006.006-2.675,0-5.351,0-8.028a11.189,11.189,0,0,1-2.432.029m-19.526,22.9a34.2,34.2,0,0,0,2.373,12.654,4.105,4.105,0,0,0,3.767,2.535c2.265.016,4.529,0,6.792.008,7.467-.008,14.932.008,22.4-.008a4.088,4.088,0,0,0,3.722-2.438A32.066,32.066,0,0,0,62.091,68.4c.089-1.007.135-2.015.144-3.025Q41.5,65.827,20.765,65.372Z"/><path d="M211.687,80.1a8.3,8.3,0,1,1-6.762,6.543,8.276,8.276,0,0,1,6.762-6.543m.185,2.435a5.882,5.882,0,1,0,3.615.4A5.913,5.913,0,0,0,211.872,82.536Z" transform="translate(-171.565 -67.019)"/><g transform="translate(24.455 2.428)"><path d="M166.846,15.09a5.479,5.479,0,0,1,6,3.061,7.067,7.067,0,0,1,.316,4.294,1.215,1.215,0,0,0,1.7,1.282A19.248,19.248,0,0,1,177.2,22.18a5.455,5.455,0,0,1,6.7,8.162,6.068,6.068,0,0,1-2.8,2.052c-.46.214-1.038.323-1.31.8a1.232,1.232,0,0,0,.684,1.8A6.782,6.782,0,0,1,184,37.449a5.455,5.455,0,0,1-5.878,8.344,8.743,8.743,0,0,1-3.1-1.786,1.21,1.21,0,0,0-1.864,1.125,7.788,7.788,0,0,1-.123,3.9,5.456,5.456,0,0,1-10.461-.639,10.332,10.332,0,0,1,.068-3.416,1.218,1.218,0,0,0-1.971-.9,6.977,6.977,0,0,1-3.96,1.879,5.456,5.456,0,0,1-3.831-9.684,13.564,13.564,0,0,1,2.779-1.451,1.218,1.218,0,0,0-.256-2.128,7.246,7.246,0,0,1-3.438-2.258,5.458,5.458,0,0,1,5.917-8.525,9.049,9.049,0,0,1,2.847,1.7,1.213,1.213,0,0,0,1.709-.3c.362-.5.141-1.13.092-1.686a6.056,6.056,0,0,1,.327-3.268,5.493,5.493,0,0,1,3.986-3.267m-.323,10.544a8.306,8.306,0,1,0,6.172,1.41A8.35,8.35,0,0,0,166.524,25.634Z" transform="translate(-150.857 -14.98)" fill="#da387d"/></g><g transform="translate(2.434 8.551)"><path d="M26.792,54.344a7.655,7.655,0,0,1,1.8-1.594,1.585,1.585,0,0,0,.741.611,2.474,2.474,0,0,0,1.386-.182,5.474,5.474,0,0,1,5.119,1.337A7.925,7.925,0,0,0,38.3,65.464l-.485.362a9.242,9.242,0,0,0-2.323-1.553A8.3,8.3,0,1,0,37.41,78.2a8.135,8.135,0,0,0,4.178,1.79,8.236,8.236,0,0,0,4.56-.815,9.446,9.446,0,0,0,1.036,3.511,5.49,5.49,0,0,1-5.829.794,15.315,15.315,0,0,1-2.223-1.488,1.205,1.205,0,0,0-1.816.956,15.075,15.075,0,0,1,.156,2.934,5.455,5.455,0,0,1-10.458,1.41A6.13,6.13,0,0,1,26.7,83.94a2.49,2.49,0,0,0-.039-1.485,1.206,1.206,0,0,0-1.707-.444,10.969,10.969,0,0,1-2.62,1.644,5.46,5.46,0,0,1-3.978-10.166c.564-.308,1.269-.4,1.718-.89a1.214,1.214,0,0,0-.438-1.856,10.146,10.146,0,0,1-2.686-1.425,5.462,5.462,0,0,1,6.877-8.483,9.223,9.223,0,0,0,1.409.971A1.209,1.209,0,0,0,26.8,60.58a10.6,10.6,0,0,1-.1-3.1,9.728,9.728,0,0,1,.6-1.778A1.3,1.3,0,0,0,26.792,54.344Z" transform="translate(-15.014 -52.75)" fill="#f4dd45"/><path d="M224.447,95.1a5.876,5.876,0,1,1-4.037,3.078A5.883,5.883,0,0,1,224.447,95.1Z" transform="translate(-186.574 -88.135)" fill="#f4dd45"/><path d="M367.04,135.883a5.879,5.879,0,1,1,.266,8.817A8.012,8.012,0,0,0,367.04,135.883Z" transform="translate(-309.973 -121.092)" fill="#f4dd45"/></g><g transform="translate(48.399 8.805)"><path d="M309.9,55.834a5.463,5.463,0,0,1,9.151,2.954,12.088,12.088,0,0,1-.113,3.27,1.221,1.221,0,0,0,1.96.849,7.482,7.482,0,0,1,3.5-1.832A5.457,5.457,0,0,1,329.424,70a6.533,6.533,0,0,1-2.733,1.8,2.123,2.123,0,0,0-1.094.679,1.211,1.211,0,0,0,.428,1.728c.587.284,1.213.485,1.783.807a5.452,5.452,0,0,1-4.99,9.7,21.069,21.069,0,0,1-2.141-1.454,1.212,1.212,0,0,0-1.739,1.154,10.247,10.247,0,0,1,.11,3.1,5.456,5.456,0,0,1-10.393,1.138,7.572,7.572,0,0,1-.229-4.244,1.209,1.209,0,0,0-1.833-1.091,8.377,8.377,0,0,1-3.4,1.872,5.587,5.587,0,0,1-4.631-1.161,8.667,8.667,0,0,0,.992-3.587,7.969,7.969,0,0,0,8.785-.927,8.3,8.3,0,1,0-.4-12.366c-.164-.125-.327-.25-.488-.376A7.925,7.925,0,0,0,309.9,55.834Z" transform="translate(-298.56 -54.314)" fill="#9dc6fb"/></g><g transform="translate(13.605 21.77)"><path d="M86.966,135.013a5.926,5.926,0,0,1,6.849.849,7.976,7.976,0,0,0-.266,8.8,5.807,5.807,0,0,1-4.445,1.329,5.874,5.874,0,0,1-2.138-10.98Z" transform="translate(-83.922 -134.29)" fill="#aad880"/></g><g transform="translate(28.491 41.748)"><path d="M175.75,257.88a8.5,8.5,0,0,0,2.787.4,49.192,49.192,0,0,1,2.649,8.3c-.833.026-1.665,0-2.5.008A51.243,51.243,0,0,0,175.75,257.88Z" transform="translate(-175.75 -257.823)" fill="#8cc753"/><path d="M305.856,258.008a8.452,8.452,0,0,0,2.834-.478,52.476,52.476,0,0,0-2.96,8.712,18.034,18.034,0,0,1-2.5.039A50.8,50.8,0,0,1,305.856,258.008Z" transform="translate(-282.564 -257.53)" fill="#8cc753"/><path d="M248.54,261.869a11.19,11.19,0,0,0,2.432-.029c0,2.676,0,5.353,0,8.028-.809.007-1.618-.016-2.427-.006C248.538,267.2,248.543,264.533,248.54,261.869Z" transform="translate(-236.74 -261.141)" fill="#8cc753"/></g><g transform="translate(27.862 51.831)"><path d="M201.6,320.037c.1-.136.216-.287.4-.29a14.266,14.266,0,0,1,1.686.016.5.5,0,0,1,.415.271,1.218,1.218,0,0,0,.919.931c1.008.133,2.036-.011,3.041.162a3.074,3.074,0,0,1,2.38,2.365,11.845,11.845,0,0,1-.032,5.017,3.1,3.1,0,0,1-3.015,2.3q-17.012.392-34.032.175a4.6,4.6,0,0,1-1.17-2.124,13.239,13.239,0,0,1,0-5.849,4.487,4.487,0,0,1,1.169-2.138c8.91-.1,17.821-.1,26.729.037A1.335,1.335,0,0,0,201.6,320.037Z" transform="translate(-171.872 -319.727)" fill="#eab14d"/><path d="M222.157,422.046c1.892-.109,3.787-.086,5.68-.126a32.066,32.066,0,0,1-2.273,9.727,4.088,4.088,0,0,1-3.722,2.438c-7.467.016-14.932,0-22.4.008a7.805,7.805,0,0,1-.645-1.947,62.427,62.427,0,0,1-.832-6.648,23.9,23.9,0,0,1-.135-3.388C205.942,422.118,214.05,422.149,222.157,422.046Z" transform="translate(-193.609 -405.354)" fill="#eab14d"/></g><g transform="translate(16.311 52.981)"><path d="M103.913,327q4.875-.092,9.751-.175a4.487,4.487,0,0,0-1.169,2.138,13.238,13.238,0,0,0,0,5.849,4.6,4.6,0,0,0,1.17,2.124c-3.3-.049-6.6-.094-9.9-.185a3.087,3.087,0,0,1-2.863-2.294,11.858,11.858,0,0,1-.188-4.121,4.441,4.441,0,0,1,.569-1.91A3.129,3.129,0,0,1,103.913,327Z" transform="translate(-100.614 -326.82)" fill="#e49542"/><path d="M128.09,403.26q20.732.455,41.471,0c-.01,1.01-.055,2.018-.144,3.025-1.893.041-3.788.018-5.68.126-8.107.1-16.216.071-24.325.063a23.9,23.9,0,0,0,.135,3.388,62.427,62.427,0,0,0,.832,6.648,7.805,7.805,0,0,0,.645,1.947c-2.263-.008-4.528.008-6.792-.008a4.105,4.105,0,0,1-3.767-2.535A34.2,34.2,0,0,1,128.09,403.26Z" transform="translate(-123.636 -390.868)" fill="#e49542"/></g></svg>