<svg xmlns="http://www.w3.org/2000/svg" width="61.276" height="83" viewBox="0 0 61.276 83"><g transform="translate(-67.003)"><g transform="translate(67.003)"><path d="M139.159,0h.506a12.423,12.423,0,0,1,7.627,2.8,12.269,12.269,0,0,1,4.5,10.8,12.437,12.437,0,0,1-6.958,9.981c-.018,1.461,0,2.946,0,4.417.126.2.387.245.575.373a6.082,6.082,0,0,1,2.958,5.99,6.2,6.2,0,0,1-3.617,4.9,17.094,17.094,0,0,1-2.54,7.481A18.376,18.376,0,0,1,139,50.575a17.132,17.132,0,0,1,10.7,12.51,34.2,34.2,0,0,1,.387,7.112c.019,3.544-.037,7.1.029,10.634.765.079,1.808-.267,2.313.5A1.093,1.093,0,0,1,151.527,83H103.975a1.1,1.1,0,0,1-.888-1.637c.488-.8,1.545-.456,2.313-.533.018-3.652,0-7.306.008-10.959,0-2.77-.123-5.614.772-8.276a17.116,17.116,0,0,1,10.309-11.02,18.521,18.521,0,0,1-3.216-3.842,17.1,17.1,0,0,1-2.535-7.475,6.182,6.182,0,0,1-3.654-6.014,6.115,6.115,0,0,1,3.1-4.943c.036-3.819.212-7.635.409-11.45a16.776,16.776,0,0,1,.49-4.161,8.66,8.66,0,0,1,3.853-4.938,17.081,17.081,0,0,1,6.8-2.156,26.441,26.441,0,0,0,3.871-.358A16.933,16.933,0,0,0,131.519,2.8c.678-.468,1.391-.88,2.093-1.311A13.154,13.154,0,0,1,139.159,0M134.68,3.375c-1.13.635-2.163,1.431-3.31,2.036a19.3,19.3,0,0,1-7.16,2.248,16.054,16.054,0,0,0-7.7,1.7,6.665,6.665,0,0,0-3.176,3.472,12.871,12.871,0,0,0-.577,4.124c-.18,3.258-.282,6.52-.378,9.782a6.925,6.925,0,0,0,3.923-5.442c.081-.486.091-1.1.58-1.378a1.535,1.535,0,0,1,1.264,0,6.567,6.567,0,0,0,3.766,1.748,35.873,35.873,0,0,0,4.682-.19,43.663,43.663,0,0,1,7.794.392c2.09.339,4.186.979,6.321.689a10.122,10.122,0,0,0,6.836-3.891,10.225,10.225,0,0,0,2.112-7.147A10.223,10.223,0,0,0,134.68,3.375M112.865,28.906c-.091,2.942-.019,5.912-.034,8.864a14.96,14.96,0,0,0,4.176,10.258,14.428,14.428,0,0,0,10.236,4.533,14.7,14.7,0,0,0,13.087-6.895,15.1,15.1,0,0,0,2.328-7.895c.01-4.463,0-8.927,0-13.39a12.819,12.819,0,0,1-4.288.376c-1.5-.214-2.983-.5-4.468-.775a41.232,41.232,0,0,0-7.292-.332c-2.02.091-4.072.468-6.068-.024a10.98,10.98,0,0,1-2.271-.9,9.449,9.449,0,0,1-5.41,6.181m-3.61,4.328a3.972,3.972,0,0,0,1.4,3.455q0-3.054,0-6.108a3.979,3.979,0,0,0-1.4,2.654m35.575-2.65q0,3.052,0,6.1a3.986,3.986,0,0,0,0-6.1m-29.946,23.2a14.564,14.564,0,0,1,1.1,4.1c.167,2.151.066,4.31.094,6.465q0,8.219,0,16.436,5.286.015,10.571,0c0-7.622.021-15.246-.01-22.867-.352-.066-.64-.35-.987-.381-1.752,1.122-3.489,2.268-5.241,3.39a1.05,1.05,0,0,1-1.3-.1,1.545,1.545,0,0,1-.394-1.336c-.011-2.44.028-4.881-.019-7.321a11.894,11.894,0,0,0-3.823,1.613m21.893-1.613c-.05,2.6,0,5.2-.023,7.794a1.121,1.121,0,0,1-.93,1.12,1.338,1.338,0,0,1-1.052-.342c-1.645-1.067-3.286-2.138-4.936-3.194l-.115-.018a5.031,5.031,0,0,1-.861.383c-.07,2.84-.01,5.7-.031,8.543,0,4.777,0,9.555,0,14.332q5.282.012,10.566,0,0-10.485,0-20.97a15.86,15.86,0,0,1,.9-5.343c.05-.263.308-.5.246-.76a13.3,13.3,0,0,0-3.774-1.543M120.9,53.357c.006,1.559,0,3.119,0,4.678,1.133-.738,2.286-1.454,3.4-2.221a3.116,3.116,0,0,1-.117-1.381,19.41,19.41,0,0,1-3.284-1.076m10.4,1.07a3.183,3.183,0,0,1-.122,1.4c1.127.751,2.268,1.48,3.406,2.213,0-1.559,0-3.121,0-4.68a18.612,18.612,0,0,1-3.289,1.072m-4.97.313c-.1.8.919,1.227,1.59,1.141.572-.062,1.336-.465,1.23-1.14a25.189,25.189,0,0,1-2.821,0m-14.044.974a14.749,14.749,0,0,0-4.656,10.1c.777.013,1.555.024,2.331-.008,1.316.031,2.633.019,3.949.006,0-2,0-4,0-6a16.394,16.394,0,0,0-.337-3.244c-.152-.5-.318-.99-.468-1.488-.347.092-.566.4-.82.632m30.109-.686a13.16,13.16,0,0,0-.806,4.148c-.039,2.211-.008,4.422-.016,6.634,2.094.023,4.189.01,6.283.006A14.72,14.72,0,0,0,142.4,55.028m-34.74,12.965c-.188.292-.041.725-.07,1.072.786.015,1.574.011,2.36,0,1.321,0,2.642.018,3.964-.006,0-.357.008-.713,0-1.068-1.32,0-2.639-.01-3.959,0q-1.148-.017-2.292,0m33.923,0c-.013.357-.008.713,0,1.07,2.109.023,4.22.008,6.329.006.011-.357,0-.713,0-1.068-2.111-.023-4.221-.008-6.33-.008m-34,3.262q-.007,4.766,0,9.535c.7.008,1.409.006,2.112,0,1.4.008,2.808,0,4.21,0q.024-4.773,0-9.55c-1.4,0-2.808,0-4.213,0-.7-.006-1.409-.008-2.112,0m33.994.057c0,3.161-.011,6.322.006,9.483,2.109,0,4.218,0,6.327,0q.007-4.771,0-9.54c-2.1-.011-4.2.006-6.293-.01Z" transform="translate(-97.105)" fill="#333"/><path d="M196.922,200.283c.486-.431,1.182-.248,1.772-.287,1.425.011,2.85-.021,4.273.016a3.215,3.215,0,0,1,3.027,2.882c.068,1.085.015,2.176.031,3.262a1.115,1.115,0,0,1-.809,1.141,1.076,1.076,0,0,1-1.35-.992c-.036-1.057.018-2.116-.026-3.169a1.055,1.055,0,0,0-1.067-.961c-1.72-.016-3.442.01-5.162-.013a1.1,1.1,0,0,1-1.05-1.012A1.141,1.141,0,0,1,196.922,200.283Z" transform="translate(-175.558 -167.569)" fill="#333"/><path d="M276.048,200.057a30.4,30.4,0,0,1,3.67-.091c.658.036,1.516-.178,1.96.459a1.084,1.084,0,0,1-.846,1.709c-1.456.013-2.911.01-4.366,0a1.087,1.087,0,0,1-.418-2.078Z" transform="translate(-241.615 -167.539)" fill="#333"/><path d="M214.845,217.014a1.073,1.073,0,1,1-.222,1.874A1.078,1.078,0,0,1,214.845,217.014Z" transform="translate(-190.31 -181.767)" fill="#333"/><path d="M290.649,217.031a1.083,1.083,0,1,1-.3,1.855A1.089,1.089,0,0,1,290.649,217.031Z" transform="translate(-253.81 -181.798)" fill="#333"/><path d="M236.877,271.442c1.483-.075,2.978-.015,4.466-.031a1.083,1.083,0,1,1,0,2.164q-2.108,0-4.216,0a1.1,1.1,0,0,1-1.123-.926A1.057,1.057,0,0,1,236.877,271.442Z" transform="translate(-208.588 -227.406)" fill="#333"/><path d="M224.448,393.252a1.083,1.083,0,1,1-.464,1.785A1.092,1.092,0,0,1,224.448,393.252Z" transform="translate(-198.287 -329.47)" fill="#333"/><path d="M275.722,393.283a1.109,1.109,0,0,1,1.449,1.039,1.083,1.083,0,1,1-1.449-1.039Z" transform="translate(-241.292 -329.483)" fill="#333"/><path d="M224.3,429.887a1.083,1.083,0,1,1-.154,1.843A1.09,1.09,0,0,1,224.3,429.887Z" transform="translate(-198.303 -360.111)" fill="#333"/><path d="M275.683,429.861a1.082,1.082,0,1,1-.282,1.838A1.089,1.089,0,0,1,275.683,429.861Z" transform="translate(-241.292 -360.118)" fill="#333"/><path d="M224.269,466.471a1.083,1.083,0,1,1-.1,1.843A1.09,1.09,0,0,1,224.269,466.471Z" transform="translate(-198.303 -390.753)" fill="#333"/><path d="M275.541,466.5a1.082,1.082,0,1,1-.1,1.8A1.088,1.088,0,0,1,275.541,466.5Z" transform="translate(-241.295 -390.759)" fill="#333"/><path d="M67.217,499.035c.428-.608,1.256-.412,1.89-.444.624.021,1.452-.146,1.843.481a1.1,1.1,0,0,1-.786,1.688H68.039A1.093,1.093,0,0,1,67.217,499.035Z" transform="translate(-67.003 -417.76)" fill="#333"/><path d="M419.518,499.955a1.058,1.058,0,0,1,.862-1.329c.694-.066,1.4-.018,2.1-.028a1.077,1.077,0,0,1,1.1.859,1.09,1.09,0,0,1-1,1.307h-2.1A1.117,1.117,0,0,1,419.518,499.955Z" transform="translate(-362.337 -417.764)" fill="#333"/></g><g transform="translate(88.043 2.181)"><path d="M213.325,14.646a10.216,10.216,0,0,1,12.863,15.289,10.122,10.122,0,0,1-6.836,3.891c-2.135.29-4.231-.35-6.321-.689a43.663,43.663,0,0,0-7.794-.392,35.873,35.873,0,0,1-4.682.19,6.566,6.566,0,0,1-3.766-1.748c.024-1.127.112-2.25.165-3.375a13.969,13.969,0,0,1,.452-3.631,7.254,7.254,0,0,1,2.351-3.5,11.016,11.016,0,0,1,3.1-1.748,19.3,19.3,0,0,0,7.16-2.248c1.148-.6,2.18-1.4,3.31-2.036m5.771.091a1.073,1.073,0,0,0-.384,1.718c.464.468,1.193.4,1.764.657.543.2,1.17.6,1.738.246a1.086,1.086,0,0,0,.013-1.846,7.979,7.979,0,0,0-1.893-.7,1.893,1.893,0,0,0-1.237-.078m4.85,2.759a1.087,1.087,0,0,0-.488,1.654,7.707,7.707,0,0,1,1.271,2.318,6.989,6.989,0,0,1-2.544,7.864c-.383.276-.867.55-.945,1.062a1.067,1.067,0,0,0,.88,1.224,1.15,1.15,0,0,0,1.046-.327,9.152,9.152,0,0,0,2.176-13.21A1.162,1.162,0,0,0,223.947,17.5Z" transform="translate(-196.79 -13.452)" fill="#665a52"/></g><g transform="translate(109.299 3.383)"><path d="M330.938,20.952a1.893,1.893,0,0,1,1.237.078,7.979,7.979,0,0,1,1.893.7,1.086,1.086,0,0,1-.013,1.846c-.567.353-1.195-.047-1.738-.246-.571-.261-1.3-.188-1.764-.657A1.073,1.073,0,0,1,330.938,20.952Z" transform="translate(-329.887 -20.869)" fill="#fff"/><path d="M350.234,38.045a1.162,1.162,0,0,1,1.4.584,9.152,9.152,0,0,1-2.176,13.21,1.15,1.15,0,0,1-1.046.327,1.067,1.067,0,0,1-.88-1.224c.078-.512.563-.786.945-1.062a6.989,6.989,0,0,0,2.543-7.864,7.707,7.707,0,0,0-1.271-2.318A1.087,1.087,0,0,1,350.234,38.045Z" transform="translate(-344.333 -35.203)" fill="#fff"/><path d="M328.474,159.7a1.082,1.082,0,0,1,1.6.918c.024,3.827.01,7.656.008,11.485a1.085,1.085,0,1,1-2.164.023c-.015-3.735,0-7.468-.007-11.2A1.242,1.242,0,0,1,328.474,159.7Z" transform="translate(-327.91 -137.073)" fill="#fff"/><path d="M358.6,446.4a1.084,1.084,0,0,1,1.641.94c.013,1.616.016,3.232,0,4.847a1.076,1.076,0,0,1-2.151.018c-.024-1.572,0-3.147-.01-4.719A1.158,1.158,0,0,1,358.6,446.4Z" transform="translate(-353.183 -377.281)" fill="#fff"/></g><g transform="translate(82.275 7.66)"><path d="M165.341,48.949a16.054,16.054,0,0,1,7.7-1.7,11.016,11.016,0,0,0-3.1,1.748,7.254,7.254,0,0,0-2.351,3.5,13.969,13.969,0,0,0-.452,3.631c-.053,1.125-.141,2.248-.165,3.375a1.535,1.535,0,0,0-1.264,0c-.49.274-.5.892-.58,1.378a6.925,6.925,0,0,1-3.923,5.442c.1-3.262.2-6.523.378-9.782a12.871,12.871,0,0,1,.577-4.124A6.665,6.665,0,0,1,165.341,48.949Z" transform="translate(-161.21 -47.25)" fill="#504944"/></g><g transform="translate(77.474 22.724)"><path d="M163.977,146.361a9.448,9.448,0,0,0,5.41-6.181,10.98,10.98,0,0,0,2.271.9c.292,1.464.532,2.936.686,4.421a8.029,8.029,0,0,1,.13,2.119,4.507,4.507,0,0,1-1.12,2.261c-.59.039-1.286-.144-1.772.287a1.141,1.141,0,0,0-.362.867c-.229.006-.457.019-.684.047-.157.2-.049.49-.081.726a31.511,31.511,0,0,0,.374,6.668,16.014,16.014,0,0,0,7.715,10.576c.571.383,1.253.558,1.811.963a14.428,14.428,0,0,1-10.236-4.533,14.96,14.96,0,0,1-4.176-10.258C163.958,152.273,163.886,149.3,163.977,146.361Z" transform="translate(-158.688 -140.18)" fill="#a58d78"/><path d="M131.6,439.5c.7-.011,1.409-.01,2.112,0q0,4.771,0,9.54c-.7,0-1.409.007-2.112,0Q131.583,444.264,131.6,439.5Z" transform="translate(-131.591 -390.968)" fill="#a58d78"/></g><g transform="translate(79.125 23.611)"><path d="M195.008,145.665c2,.493,4.048.115,6.068.024a41.231,41.231,0,0,1,7.292.332c1.485.277,2.971.561,4.468.775a12.818,12.818,0,0,0,4.288-.376c0,4.463.006,8.927,0,13.39a15.1,15.1,0,0,1-2.328,7.895A14.7,14.7,0,0,1,201.7,174.6c-.558-.405-1.24-.58-1.811-.963a16.014,16.014,0,0,1-7.715-10.576,31.512,31.512,0,0,1-.374-6.668c.032-.237-.076-.525.081-.726.227-.028.456-.041.684-.047a1.1,1.1,0,0,0,1.05,1.012c1.72.023,3.442,0,5.162.013a1.055,1.055,0,0,1,1.067.961c.044,1.054-.01,2.112.026,3.169a1.076,1.076,0,0,0,1.35.992,1.115,1.115,0,0,0,.809-1.141c-.016-1.086.037-2.177-.031-3.262a3.215,3.215,0,0,0-3.027-2.882c-1.423-.037-2.848,0-4.273-.016a4.507,4.507,0,0,0,1.12-2.261,8.029,8.029,0,0,0-.13-2.119c-.154-1.485-.394-2.957-.686-4.421m19.419,2.381a1.242,1.242,0,0,0-.561,1.222c.006,3.735-.008,7.468.006,11.2a1.085,1.085,0,1,0,2.164-.023c0-3.829.016-7.658-.008-11.485a1.082,1.082,0,0,0-1.6-.918M206,154.557a1.087,1.087,0,0,0,.418,2.078c1.454.008,2.91.011,4.366,0a1.084,1.084,0,0,0,.846-1.709c-.444-.637-1.3-.423-1.96-.459a30.4,30.4,0,0,0-3.67.091m-9.9,2.73a1.073,1.073,0,0,0-.222,1.874,1.073,1.073,0,1,0,.222-1.874m12.3-.015a1.083,1.083,0,1,0,1.461,1.083,1.106,1.106,0,0,0-1.461-1.083m-8.55,8.8a1.057,1.057,0,0,0-.879,1.208,1.1,1.1,0,0,0,1.123.926q2.108,0,4.216,0a1.083,1.083,0,1,0,0-2.164C202.835,166.06,201.34,166,199.857,166.074Z" transform="translate(-183.689 -145.65)" fill="#ffd3ae"/><path d="M141.806,191.294a3.979,3.979,0,0,1,1.4-2.654q0,3.054,0,6.108A3.972,3.972,0,0,1,141.806,191.294Z" transform="translate(-141.778 -181.671)" fill="#ffd3ae"/><path d="M361.4,188.66a3.986,3.986,0,0,1,0,6.1Q361.4,191.71,361.4,188.66Z" transform="translate(-325.797 -181.688)" fill="#ffd3ae"/><path d="M144.65,439.495c1.405-.01,2.809,0,4.213,0q.017,4.773,0,9.55c-1.4-.007-2.806,0-4.21,0Q144.649,444.264,144.65,439.495Z" transform="translate(-144.184 -391.856)" fill="#ffd3ae"/><path d="M341.307,439.53l.041-.07c2.1.016,4.2,0,6.293.01q0,4.768,0,9.54c-2.109.006-4.218,0-6.327,0-.018-3.161,0-6.322-.006-9.483m3.239,1.195a1.159,1.159,0,0,0-.52,1.086c0,1.572-.015,3.147.01,4.719a1.076,1.076,0,0,0,2.151-.018c.016-1.615.013-3.231,0-4.847A1.084,1.084,0,0,0,344.546,440.724Z" transform="translate(-308.959 -391.831)" fill="#ffd3ae"/></g><g transform="translate(79.845 52.17)"><path d="M176.67,323.433a11.9,11.9,0,0,1,3.823-1.613c.047,2.44.008,4.881.019,7.321a1.545,1.545,0,0,0,.394,1.336,1.05,1.05,0,0,0,1.3.1c1.752-1.122,3.489-2.268,5.241-3.39.347.031.635.315.987.381.031,7.621.01,15.245.01,22.867q-5.284.012-10.571,0-.007-8.219,0-16.436c-.028-2.154.073-4.314-.094-6.465a14.564,14.564,0,0,0-1.1-4.1m8.383,10a1.083,1.083,0,1,0,1.384,1.221,1.1,1.1,0,0,0-1.384-1.221m-.165,5.995a1.083,1.083,0,1,0,1.563,1.08,1.1,1.1,0,0,0-1.563-1.08m-.029,5.941a1.083,1.083,0,1,0,1.6.965A1.108,1.108,0,0,0,184.858,345.368Z" transform="translate(-171.734 -321.82)" fill="#3a88d6"/><path d="M270.617,321.82a13.3,13.3,0,0,1,3.774,1.543c.062.264-.2.5-.246.76a15.861,15.861,0,0,0-.9,5.343q0,10.485,0,20.97-5.284.019-10.566,0c-.01-4.777,0-9.555,0-14.332.021-2.847-.039-5.7.031-8.543a5.034,5.034,0,0,0,.861-.383l.115.018c1.65,1.055,3.291,2.127,4.936,3.194a1.338,1.338,0,0,0,1.052.342,1.121,1.121,0,0,0,.931-1.12c.021-2.6-.028-5.2.023-7.794m-5.241,11.63a1.083,1.083,0,1,0,1.449,1.039,1.109,1.109,0,0,0-1.449-1.039m-.039,5.943a1.082,1.082,0,1,0,1.485,1.1,1.1,1.1,0,0,0-1.485-1.1m-.146,6a1.082,1.082,0,1,0,1.634.937A1.1,1.1,0,0,0,265.191,345.392Z" transform="translate(-243.788 -321.82)" fill="#3a88d6"/><path d="M342.121,339.45a14.72,14.72,0,0,1,5.461,10.788c-2.094,0-4.189.016-6.283-.006.008-2.211-.023-4.422.016-6.634A13.159,13.159,0,0,1,342.121,339.45Z" transform="translate(-309.672 -336.592)" fill="#3a88d6"/><path d="M149.632,349.213a1.61,1.61,0,0,1,.3-.253,16.4,16.4,0,0,1,.337,3.244c0,2,0,4,0,6-1.316.013-2.633.024-3.949-.007A16.116,16.116,0,0,1,149.632,349.213Z" transform="translate(-146.304 -344.56)" fill="#3a88d6"/><path d="M146.222,419.4c1.32-.013,2.639-.006,3.959,0,.011.355.008.712,0,1.068-1.321.024-2.642.011-3.964.007C146.223,420.113,146.225,419.757,146.222,419.4Z" transform="translate(-146.22 -403.575)" fill="#3a88d6"/><path d="M341.307,419.4c2.109,0,4.22-.015,6.33.008,0,.355.006.712,0,1.068-2.109,0-4.22.016-6.329-.007C341.3,420.109,341.294,419.753,341.307,419.4Z" transform="translate(-309.675 -403.574)" fill="#3a88d6"/></g><g transform="translate(90.796 53.355)"><path d="M213.77,329.14a19.411,19.411,0,0,0,3.284,1.076,3.116,3.116,0,0,0,.117,1.381c-1.112.767-2.265,1.483-3.4,2.221C213.77,332.259,213.776,330.7,213.77,329.14Z" transform="translate(-213.77 -329.138)" fill="#f7931e"/><path d="M277.322,330.2a18.614,18.614,0,0,0,3.289-1.072c-.008,1.559,0,3.121,0,4.68-1.138-.733-2.279-1.462-3.406-2.213A3.183,3.183,0,0,0,277.322,330.2Z" transform="translate(-266.917 -329.13)" fill="#f7931e"/><path d="M247.255,337.67a25.188,25.188,0,0,0,2.821,0c.105.674-.658,1.078-1.23,1.14C248.175,338.9,247.156,338.474,247.255,337.67Z" transform="translate(-241.821 -336.286)" fill="#f7931e"/></g><g transform="translate(77.457 55.082)"><path d="M136.6,340.412c.255-.23.473-.54.82-.632.151.5.316.991.468,1.488a1.61,1.61,0,0,0-.3.253,16.116,16.116,0,0,0-3.312,8.982c-.777.032-1.555.021-2.331.008A14.749,14.749,0,0,1,136.6,340.412Z" transform="translate(-131.867 -339.78)" fill="#37638e"/><path d="M131.587,419.393q1.145-.015,2.292,0c0,.357,0,.713,0,1.072-.786.01-1.574.013-2.36,0C131.546,420.118,131.4,419.685,131.587,419.393Z" transform="translate(-131.489 -406.481)" fill="#37638e"/></g></g></svg>