<svg xmlns="http://www.w3.org/2000/svg" width="80.415" height="83" viewBox="0 0 80.415 83"><g transform="translate(-7.953)"><g transform="translate(7.953)"><path d="M53.262,0h.76a4.5,4.5,0,0,1,1.829.725Q67.438,8.613,79.02,16.512a6.143,6.143,0,0,1,1.817,1.555,3.855,3.855,0,0,1,.045,4.275C79.7,24.1,78.5,25.842,77.309,27.6a5.973,5.973,0,0,1,2.451.313,4.018,4.018,0,0,1,2.467,3.537,11.266,11.266,0,0,0,.066,1.692,6.424,6.424,0,0,1,1.555,1.835,6.2,6.2,0,0,1,.618,3.275q0,5.179,0,10.362a5.171,5.171,0,0,1,2.482.311,2.691,2.691,0,0,1,1.417,2.469c0,4.163,0,8.326,0,12.489a2.663,2.663,0,0,1-1.474,2.394,5.29,5.29,0,0,1-2.415.274c-.028,3.811.015,7.624-.021,11.435A5.332,5.332,0,0,1,79.674,83H12.78A5.387,5.387,0,0,1,8.5,80.045,6.18,6.18,0,0,1,7.959,77q.01-19.132,0-38.264A8.958,8.958,0,0,1,8.222,35.8a5.3,5.3,0,0,1,2.79-3.137,12.5,12.5,0,0,1,.105-1.877,4.014,4.014,0,0,1,3.174-3.1c1.248-.162,2.514-.039,3.771-.076.608-6.034,1.185-12.071,1.8-18.1a3.843,3.843,0,0,1,4.153-3.335c6.107.6,12.217,1.192,18.322,1.812a1.262,1.262,0,0,1,1.125,1.253,1.27,1.27,0,0,1-1.44,1.086Q33.341,9.458,24.663,8.6a2.721,2.721,0,0,0-1.806.149,1.549,1.549,0,0,0-.674,1.221c-.154,1.54-.3,3.082-.456,4.622L19.991,32.172l1.5,0q.712-7.1,1.405-14.2a2.884,2.884,0,0,1,.757-1.8,6.556,6.556,0,0,1,1.927-1.112,6.837,6.837,0,0,0,2.352-2.219A2.8,2.8,0,0,1,30.653,11.6c2.978.3,5.961.577,8.939.887a1.261,1.261,0,0,1,1.12,1.273,1.247,1.247,0,0,1-1.3,1.07c-3.03-.259-6.053-.614-9.083-.874-.279-.06-.415.22-.561.4a8.815,8.815,0,0,1-3.8,3.151,1.947,1.947,0,0,0-.635.37,14.689,14.689,0,0,0-.211,1.752q-.62,6.271-1.237,12.544c1.927,0,3.855,0,5.782,0Q33.524,26.5,37.39,20.828q2.354-3.46,4.711-6.919c1.025-1.493,2.039-2.991,3.061-4.484q2.653-3.893,5.306-7.781A3.937,3.937,0,0,1,53.262,0m-.827,2.963c-.947,1.354-1.861,2.728-2.8,4.09Q41.083,19.613,32.523,32.171c.608,0,1.217.008,1.827,0q7.4-10.9,14.828-21.768a3.035,3.035,0,0,1,3.279-1.17,6.957,6.957,0,0,0,2.821-.493A6.57,6.57,0,0,1,56.927,8.1a2.845,2.845,0,0,1,2.065.533q6.171,4.209,12.346,8.415a2.808,2.808,0,0,1,1.214,2.717,7.186,7.186,0,0,0,.417,3.291l.076.031a11.032,11.032,0,0,0,.452,1.034,2.748,2.748,0,0,1-.258,2.573c-1.227,1.835-2.495,3.644-3.719,5.483.326,0,.655,0,.982,0,.274,0,.55,0,.827,0q3.6-5.282,7.2-10.561a2.5,2.5,0,0,0,.618-1.342,1.539,1.539,0,0,0-.788-1.342q-11.9-8.107-23.8-16.221a1.484,1.484,0,0,0-2.12.259m4.194,7.759a9.526,9.526,0,0,1-5.238.794A9.519,9.519,0,0,0,50.122,13.2Q43.671,22.692,37.2,32.172c2,0,3.993,0,5.988,0a9.77,9.77,0,0,1,9.355-9.068,9.746,9.746,0,0,1,10.086,9.055c1,.026,1.991.01,2.988.01q.513,0,1.029,0c1.519-2.235,3.048-4.464,4.563-6.7.263-.285.018-.623-.113-.9a9.076,9.076,0,0,1-.9-5.134c.071-.282-.2-.439-.391-.577q-6.074-4.126-12.136-8.266c-.327-.327-.72-.019-1.046.128M48.7,26.79a7.435,7.435,0,0,0-3.137,5.38q7.353.01,14.71,0A7.377,7.377,0,0,0,48.7,26.79m-35.179,4.2a3.372,3.372,0,0,0-.133,1.182c1.407,0,2.816,0,4.223,0,.079-.736.149-1.47.22-2.206-.969.01-1.939-.023-2.907.013a1.627,1.627,0,0,0-1.4,1.008m60.673,1.18c1.9.024,3.792-.039,5.687.037a3.561,3.561,0,0,0-.133-1.214,1.626,1.626,0,0,0-1.433-1.013c-.874-.032-1.746,0-2.62-.013q-.754,1.1-1.5,2.2M10.347,37.134c-.049,1.19-.006,2.385-.019,3.576q32.781,0,65.559,0,3.105,0,6.212,0c0-1.141.016-2.281-.006-3.422a2.886,2.886,0,0,0-2.79-2.743c-1.522-.013-3.043,0-4.565,0q-30.717,0-61.436,0a2.894,2.894,0,0,0-2.954,2.6m-.019,5.945c-.011,9.665.021,19.332-.016,29,2.132.052,4.263,0,6.4.028a1.177,1.177,0,1,1,.015,2.352c-2.133.024-4.267-.011-6.4.016q.012,1.415,0,2.83a3.535,3.535,0,0,0,.311,1.735,2.913,2.913,0,0,0,2.668,1.6H79.128a2.9,2.9,0,0,0,2.957-2.67c.041-1.164,0-2.328.019-3.492-2.073-.019-4.147,0-6.22-.008q-25.775-.007-51.549,0a1.266,1.266,0,0,1-1.276-1.172,1.378,1.378,0,0,1,.691-1.065,4.322,4.322,0,0,1,1.543-.126q25.294,0,50.589,0c2.069,0,4.139-.006,6.209.006.018-1.85,0-3.7.008-5.549q-3.112,0-6.222,0c-1.675,0-3.348,0-5.022,0a8.965,8.965,0,0,1-.318-17.924c1.782-.032,3.563,0,5.345-.015q3.108,0,6.215,0,0-2.767,0-5.533-3.11,0-6.22,0-32.776,0-65.552,0M65.6,53.585a6.548,6.548,0,0,0,.154,8.149A6.682,6.682,0,0,0,71.517,64.2c4.706-.008,9.414.006,14.12-.006.464.037.352-.514.368-.811-.032-4.116.045-8.235-.039-12.351-2.065-.115-4.14-.019-6.209-.049q-4.367,0-8.734,0A6.638,6.638,0,0,0,65.6,53.585Z" transform="translate(-7.953)"/><path d="M371.877,325.706a4.8,4.8,0,1,1-2.38,1.328,4.819,4.819,0,0,1,2.38-1.328m.519,2.308a2.428,2.428,0,1,0,2.853,1.684A2.447,2.447,0,0,0,372.4,328.015Z" transform="translate(-309.744 -272.802)"/></g><g transform="translate(21.727 2.374)"><path d="M267.888,15.232a1.484,1.484,0,0,1,2.12-.259q11.9,8.107,23.8,16.221a1.539,1.539,0,0,1,.788,1.342,2.5,2.5,0,0,1-.618,1.342q-3.6,5.279-7.2,10.561c-.277,0-.553,0-.827,0,1.183-1.718,2.331-3.461,3.524-5.173a2.757,2.757,0,0,0,.381-2.5,2.362,2.362,0,0,0-1.363-1.42l-.076-.031a7.187,7.187,0,0,1-.417-3.291,2.808,2.808,0,0,0-1.214-2.717Q280.623,25.1,274.445,20.9a2.845,2.845,0,0,0-2.065-.533,6.571,6.571,0,0,0-1.649.639,6.957,6.957,0,0,1-2.821.493c0-.071,0-.216,0-.287-.935-.637-1.848-1.315-2.826-1.887C266.027,17.961,266.941,16.586,267.888,15.232Z" transform="translate(-237.18 -14.643)" fill="#a8e83a"/><path d="M94.05,52.789a2.721,2.721,0,0,1,1.806-.149q8.679.868,17.357,1.717a1.27,1.27,0,0,0,1.44-1.086c.569.049,1.136.123,1.7.195-1.021,1.493-2.036,2.991-3.061,4.484-.46-.066-.924-.112-1.389-.146a1.261,1.261,0,0,0-1.12-1.273c-2.978-.31-5.961-.587-8.939-.887a2.8,2.8,0,0,0-2.715,1.243,6.837,6.837,0,0,1-2.352,2.219c-1.269-.274-2.576-.282-3.858-.475.154-1.54.3-3.082.456-4.622A1.549,1.549,0,0,1,94.05,52.789Z" transform="translate(-92.92 -46.414)" fill="#a8e83a"/></g><g transform="translate(19.991 7.053)"><path d="M159.52,68.627q8.555-12.559,17.114-25.117c.978.572,1.89,1.25,2.826,1.887,0,.071,0,.216,0,.287a3.035,3.035,0,0,0-3.279,1.17q-7.417,10.882-14.828,21.768C160.737,68.635,160.128,68.632,159.52,68.627Z" transform="translate(-146.987 -43.51)" fill="#b6fa4c"/><path d="M83.946,90.01c1.282.193,2.589.2,3.858.475A6.556,6.556,0,0,0,85.877,91.6a2.884,2.884,0,0,0-.757,1.8q-.7,7.1-1.405,14.2l-1.5,0Z" transform="translate(-82.21 -82.472)" fill="#b6fa4c"/><path d="M391.274,142.39a2.362,2.362,0,0,1,1.363,1.42,2.757,2.757,0,0,1-.381,2.5c-1.193,1.712-2.341,3.455-3.524,5.173-.327,0-.657,0-.982,0,1.224-1.838,2.492-3.647,3.719-5.483a2.748,2.748,0,0,0,.258-2.573A11.04,11.04,0,0,1,391.274,142.39Z" transform="translate(-338.219 -126.361)" fill="#b6fa4c"/><path d="M243.087,158.4a7.377,7.377,0,0,1,11.573,5.382q-7.356,0-14.71,0A7.435,7.435,0,0,1,243.087,158.4Z" transform="translate(-214.379 -138.661)" fill="#b6fa4c"/></g><g transform="translate(25.115 10.449)"><path d="M274.587,64.727c.326-.148.718-.456,1.046-.128q6.069,4.129,12.135,8.266c.186.138.462.3.391.577a9.075,9.075,0,0,0,.9,5.134c.131.279.376.616.113.9-1.516,2.237-3.044,4.466-4.563,6.7q-.515,0-1.029,0c.42-.819,1.363-1.678.856-2.667a8.937,8.937,0,0,1-1.067-3.9,8.7,8.7,0,0,0,.034-1.73,3.307,3.307,0,0,0-1.355-1.38c-3.981-2.6-7.87-5.327-11.842-7.938a13.687,13.687,0,0,0-2.124-1.354,9.519,9.519,0,0,1,1.269-1.688A9.526,9.526,0,0,0,274.587,64.727Z" transform="translate(-243.073 -64.454)" fill="#73cc00"/><path d="M129.417,84.9c.465.034.929.079,1.389.146q-2.349,3.463-4.711,6.919c-4.09-.412-8.188-.754-12.275-1.2a14.692,14.692,0,0,1,.211-1.752,1.947,1.947,0,0,1,.635-.37,8.815,8.815,0,0,0,3.8-3.151c.146-.175.282-.456.561-.4,3.03.259,6.053.614,9.083.874A1.247,1.247,0,0,0,129.417,84.9Z" transform="translate(-113.82 -81.586)" fill="#73cc00"/></g><g transform="translate(23.878 13.204)"><path d="M201.3,81.45a13.686,13.686,0,0,1,2.124,1.354c3.972,2.612,7.861,5.342,11.842,7.938a3.307,3.307,0,0,1,1.355,1.38,8.7,8.7,0,0,1-.034,1.73,8.937,8.937,0,0,0,1.067,3.9c.507.989-.436,1.848-.856,2.667-1,0-1.992.016-2.988-.01a9.745,9.745,0,0,0-19.442.013c-2,0-3.993,0-5.988,0Q194.834,90.93,201.3,81.45Z" transform="translate(-175.056 -81.45)" fill="#7d0"/><path d="M107.427,121.08c4.087.446,8.185.788,12.275,1.2q-3.866,5.671-7.729,11.343c-1.927.007-3.855,0-5.782,0Q106.8,127.353,107.427,121.08Z" transform="translate(-106.19 -114.656)" fill="#7d0"/></g><g transform="translate(10.311 29.965)"><path d="M41.6,185.869a1.627,1.627,0,0,1,1.4-1.008c.968-.036,1.937,0,2.907-.013-.071.736-.141,1.47-.22,2.206-1.407,0-2.816,0-4.223,0A3.372,3.372,0,0,1,41.6,185.869Z" transform="translate(-38.395 -184.844)" fill="#ffb125"/><path d="M416.56,187.051q.746-1.1,1.5-2.2c.874.011,1.746-.019,2.62.013a1.627,1.627,0,0,1,1.433,1.013,3.561,3.561,0,0,1,.133,1.214C420.352,187.012,418.455,187.075,416.56,187.051Z" transform="translate(-352.679 -184.845)" fill="#ffb125"/><path d="M22.516,265.734q32.776,0,65.552,0c-.01,1.843-.019,3.688,0,5.531-1.782.01-3.563-.018-5.345.015a8.965,8.965,0,0,0,.318,17.924c1.675,0,3.348,0,5.022,0-.008,1.846-.015,3.694,0,5.543q-25.294,0-50.589,0a4.321,4.321,0,0,0-1.543.126,1.378,1.378,0,0,0-.691,1.065c-1.712,0-3.425,0-5.137,0a1.259,1.259,0,0,0-1.216-1.18c-2.132-.031-4.263.024-6.4-.028C22.537,285.065,22.5,275.4,22.516,265.734Z" transform="translate(-22.5 -252.62)" fill="#ffb125"/></g><g transform="translate(10.321 34.536)"><path d="M22.6,215.638a2.894,2.894,0,0,1,2.954-2.6q30.719,0,61.436,0a4.635,4.635,0,0,1,1.114,2.581c.07,1.195.006,2.393.036,3.589q-32.779,0-65.559,0C22.589,218.022,22.547,216.828,22.6,215.638Z" transform="translate(-22.569 -213.039)" fill="#ff6d3a"/><path d="M356.632,317.065a6.638,6.638,0,0,1,5.418-2.607q4.367,0,8.734,0-.012,5.308,0,10.621a1.792,1.792,0,0,1-.588,1.511,2.069,2.069,0,0,1-1.509.392c-2.214-.013-4.429-.006-6.642-.006a7.843,7.843,0,0,1-4.051-1.076c-.4-.242-.8-.465-1.206-.687a6.548,6.548,0,0,1-.154-8.149m4.481-.681a4.8,4.8,0,1,0,5.6,3.2A4.8,4.8,0,0,0,361.113,316.384Z" transform="translate(-301.348 -298.015)" fill="#ff6d3a"/><path d="M30.161,452.06c1.712.007,3.425,0,5.137,0a1.266,1.266,0,0,0,1.276,1.172q25.775.012,51.549,0c-.029.955.006,1.911,0,2.869a1.315,1.315,0,0,1-.237.9,1.15,1.15,0,0,1-.729.2q-30.806.007-61.613,0a4.8,4.8,0,0,1-2.984-1.133q.012-1.415,0-2.83c2.133-.028,4.267.008,6.4-.016A1.264,1.264,0,0,0,30.161,452.06Z" transform="translate(-22.56 -413.312)" fill="#ff6d3a"/></g><g transform="translate(10.321 34.539)"><path d="M419.92,213.062c1.522,0,3.043-.008,4.565,0a2.886,2.886,0,0,1,2.79,2.743c.023,1.141,0,2.281.007,3.422q-3.105,0-6.212,0c-.029-1.2.034-2.394-.036-3.589A4.634,4.634,0,0,0,419.92,213.062Z" transform="translate(-355.505 -213.061)" fill="#ed5729"/><path d="M378.538,314.429c2.068.029,4.143-.066,6.209.049.084,4.116.006,8.235.039,12.351-.016.3.1.848-.368.811-4.706.013-9.414,0-14.12.006a6.682,6.682,0,0,1-5.758-2.462c.405.222.811.446,1.206.687a7.843,7.843,0,0,0,4.051,1.076c2.213,0,4.427-.006,6.642.007a2.069,2.069,0,0,0,1.509-.392,1.792,1.792,0,0,0,.588-1.511Q378.534,319.74,378.538,314.429Z" transform="translate(-309.102 -297.988)" fill="#ed5729"/><path d="M88.127,459.328c2.073,0,4.147-.011,6.22.008-.021,1.164.021,2.328-.019,3.492a2.9,2.9,0,0,1-2.957,2.67H25.544a2.913,2.913,0,0,1-2.668-1.6,3.535,3.535,0,0,1-.311-1.735,4.8,4.8,0,0,0,2.984,1.133q30.806-.01,61.613,0a1.15,1.15,0,0,0,.729-.2,1.315,1.315,0,0,0,.237-.9C88.133,461.24,88.1,460.283,88.127,459.328Z" transform="translate(-22.564 -419.404)" fill="#ed5729"/></g><g transform="translate(75.869 43.078)"><path d="M426.915,265.734q3.11,0,6.22,0,0,2.765,0,5.533-3.108,0-6.215,0C426.9,269.422,426.905,267.577,426.915,265.734Z" transform="translate(-426.904 -265.733)" fill="#ff901d"/><path d="M426.919,410.534q3.11,0,6.222,0c0,1.85.01,3.7-.008,5.549-2.07-.013-4.14,0-6.209-.007C426.9,414.228,426.911,412.38,426.919,410.534Z" transform="translate(-426.91 -387.059)" fill="#ff901d"/></g><g transform="translate(68.694 55.15)"><path d="M384.558,340.264a2.428,2.428,0,1,1-1.83,2.958A2.444,2.444,0,0,1,384.558,340.264Z" transform="translate(-382.648 -340.202)" fill="#f2f2f2"/></g></g></svg>