<svg xmlns="http://www.w3.org/2000/svg" width="120.847" height="83" viewBox="0 0 120.847 83"><g transform="translate(0 -80.177)"><g transform="translate(0 80.177)"><path d="M82.955,86.235a28.253,28.253,0,1,1,1.669,45.615,28.219,28.219,0,0,1-1.669-45.615m16.123-2.481a24.533,24.533,0,0,0-13.057,4.6,24.663,24.663,0,1,0,13.057-4.6Z" transform="translate(-55.13 -80.177)"/><path d="M185.106,112.5a3.01,3.01,0,0,1,1.548-.144c1.553.651,1.2,2.556,1.14,3.9a1.764,1.764,0,0,1-2.785,1.109c-1.015-.758-.666-2.164-.706-3.25A2.221,2.221,0,0,1,185.106,112.5Z" transform="translate(-140.782 -104.723)"/><path d="M173.635,136.9a1.977,1.977,0,0,1,2.131-.394,7.075,7.075,0,0,1,.781.814,2,2,0,0,1-.411,2.061c-3.142,3.179-6.321,6.326-9.479,9.491a6.022,6.022,0,0,1,.467,3.484,5.571,5.571,0,0,1-4.468,4.463,5.994,5.994,0,0,1-3.481-.465c-1.279,1.267-2.53,2.563-3.824,3.812a1.761,1.761,0,1,1-2.5-2.481c1.253-1.3,2.556-2.544,3.819-3.833a6.251,6.251,0,0,1-.536-2.955,5.567,5.567,0,0,1,4.381-4.966,5.969,5.969,0,0,1,3.64.439c3.165-3.149,6.309-6.323,9.479-9.47M160.8,149.545a2.008,2.008,0,1,0,2.856,2.061A2.02,2.02,0,0,0,160.8,149.545Z" transform="translate(-116.379 -123.104)"/><path d="M149.695,178.112a1.947,1.947,0,0,1,1.815-1.78c4.015-.047,8.034,0,12.052-.021a3.388,3.388,0,0,1,2.906,1.246,3.964,3.964,0,0,1,.64,2.549q6.723,0,13.449,0a5.135,5.135,0,0,1,2.783.677,4.41,4.41,0,0,1,2.112,3.68c.073,5.78.031,11.565.116,17.348,1.506,1.027,2.969,2.117,4.463,3.16a8.276,8.276,0,0,1,2.271,1.992,4.949,4.949,0,0,1,.751,2.384v.345a13.18,13.18,0,0,1-.439,2.2c-1.093,4.012-2.148,8.037-3.238,12.049a7.174,7.174,0,0,1-7.13,5.145,12.553,12.553,0,0,1-9.79,7.468,7.87,7.87,0,0,1-6.758-2.278,7.642,7.642,0,0,1-1.917-5.216q-20.085-.011-40.168-.007a12.667,12.667,0,0,1-9.189,7.411,8.061,8.061,0,0,1-7.211-2.013,7.574,7.574,0,0,1-2.084-5.389c-2.483-.024-4.966.021-7.447-.017a3.149,3.149,0,0,1-3-2.094,4.918,4.918,0,0,1,.215-3.042c1.121-4.076,2.164-8.174,3.3-12.243a1.907,1.907,0,0,1,2.11-1.308,1.955,1.955,0,0,1,1.173,2.7c-1.126,4.147-2.23,8.3-3.342,12.455H105.9a13.31,13.31,0,0,1,2.582-3.869,11.585,11.585,0,0,1,9.529-3.616,7.227,7.227,0,0,1,5.417,3.559,8.671,8.671,0,0,1,.954,3.925h26.853l1.048-3.913,11.188-41.749c-3.987-.019-7.975.024-11.962-.017a1.95,1.95,0,0,1-1.813-1.728m9.259,32.249c6.8.047,13.6,0,20.4.028a1.76,1.76,0,1,1,.028,3.519c-5.818.033-11.641,0-17.461.014-1.3,0-2.606,0-3.906,0-1.053,3.864-2.075,7.735-3.116,11.6,3.224,0,6.448.009,9.672,0a13.064,13.064,0,0,1,2.58-3.89,11.591,11.591,0,0,1,9.628-3.571,7.292,7.292,0,0,1,5.325,3.562,8.8,8.8,0,0,1,.923,3.928,3.938,3.938,0,0,0,2.181-1.2,6.013,6.013,0,0,0,1.135-2.752l2.053-7.664c-.873-.05-1.9.189-2.62-.432a2.446,2.446,0,0,1-.684-1.352,1.98,1.98,0,0,1,1.367-1.7,21.549,21.549,0,0,1,2.9-.047c.151-.6.319-1.426-.342-1.794-1.95-1.371-3.852-2.823-5.842-4.128-3.548-.064-7.1-.007-10.647-.026-1.5-.017-3.127.189-4.47-.642a4.788,4.788,0,0,1-2.249-3.736,17.007,17.007,0,0,1,.477-2.474,63.036,63.036,0,0,1,1.862-6.333,7.253,7.253,0,0,1,6.269-3.59q3.763,0,7.527,0c-.038-1.119.059-2.247-.068-3.359-.125-.6-.819-.692-1.326-.67-3.517,0-7.036,0-10.553,0-1.291,0-2.582,0-3.873,0Q162.531,197,158.954,210.36m11.962-16.38c-.482,1.874-1.039,3.732-1.478,5.617a.99.99,0,0,0,.977,1.3c3.861.024,7.723,0,11.584.009q-.007-1.951-.019-3.9-.014-2.893-.026-5.787-3.2,0-6.4,0a10.95,10.95,0,0,0-2.082.083,3.616,3.616,0,0,0-2.561,2.681m-55.665,27.693a9.229,9.229,0,0,0-5.523,4.138,6.362,6.362,0,0,0-.97,4.232,3.472,3.472,0,0,0,1.94,2.606,5.6,5.6,0,0,0,3.972.125,9.164,9.164,0,0,0,5.714-5.273,4.707,4.707,0,0,0-.392-4.669,4.657,4.657,0,0,0-4.742-1.159m58.547.026a9.241,9.241,0,0,0-5.178,3.736,6.671,6.671,0,0,0-1.239,4.416,3.5,3.5,0,0,0,1.886,2.754,5.8,5.8,0,0,0,4.6-.021,9.114,9.114,0,0,0,5.33-5.551,4.484,4.484,0,0,0-.595-4.249A4.723,4.723,0,0,0,173.8,221.7Z" transform="translate(-72.204 -153.618)"/><path d="M104.487,193.091c.9-1.081,2.4-.779,3.642-.758a1.764,1.764,0,0,1,1.173,2.844c-.769.958-2.143.628-3.212.663a1.911,1.911,0,0,1-1.758-1.175A2.827,2.827,0,0,1,104.487,193.091Z" transform="translate(-79.666 -165.819)"/><path d="M256.931,192.973c.8-.963,2.181-.595,3.267-.64a2.136,2.136,0,0,1,1.65.963,3.9,3.9,0,0,1,.033,1.442,1.959,1.959,0,0,1-1.461,1.09,11.457,11.457,0,0,1-2.575-.038A1.772,1.772,0,0,1,256.931,192.973Z" transform="translate(-195.986 -165.836)"/><path d="M184.295,266.086a1.764,1.764,0,0,1,2.729-1.249c1.1.741.743,2.233.772,3.359a1.95,1.95,0,0,1-1.112,1.69,4.837,4.837,0,0,1-1.225.024C183.92,269.274,184.25,267.415,184.295,266.086Z" transform="translate(-140.75 -221.02)"/><path d="M0,298.108a1.823,1.823,0,0,1,1.886-1.532c6.057-.024,12.118.009,18.177-.017a2.385,2.385,0,0,1,1.9.555,1.779,1.779,0,0,1-.111,2.551,2.516,2.516,0,0,1-1.787.451c-6.064-.021-12.13.007-18.193-.014A1.9,1.9,0,0,1,0,298.691Z" transform="translate(0 -245.487)"/><path d="M25.069,328.815a3.384,3.384,0,0,1,1.338-.175c3.54.017,7.081,0,10.621.009A1.769,1.769,0,0,1,37.954,332a3.308,3.308,0,0,1-1.4.194c-3.545-.017-7.093.007-10.638-.009a1.8,1.8,0,0,1-1.7-1.036A1.778,1.778,0,0,1,25.069,328.815Z" transform="translate(-18.378 -269.996)"/><path d="M49.13,360.844a12.95,12.95,0,0,1,3.217-.172c.916.021,2.068-.182,2.7.661a1.775,1.775,0,0,1-.906,2.811,29.482,29.482,0,0,1-3.2.076c-.821,0-1.817.1-2.391-.623A1.785,1.785,0,0,1,49.13,360.844Z" transform="translate(-36.769 -294.455)"/><path d="M173.883,384.9a1.77,1.77,0,1,1-.361,3.031A1.786,1.786,0,0,1,173.883,384.9Z" transform="translate(-132.04 -312.855)"/><path d="M422.47,384.855a1.769,1.769,0,1,1-.519,3.014A1.781,1.781,0,0,1,422.47,384.855Z" transform="translate(-321.879 -312.849)"/></g><g transform="translate(20.573 83.716)"><path d="M110.539,95.206a24.769,24.769,0,1,1-13.057,4.6,24.647,24.647,0,0,1,13.057-4.6M95.192,107.44A19.728,19.728,0,0,0,91.161,119.1l.25-.2a2.827,2.827,0,0,0-.156,1.574,4.6,4.6,0,0,0-.118,1.331,20.919,20.919,0,0,0,17.938,18.7,4.815,4.815,0,0,0,2.223.009,4.838,4.838,0,0,0,1.225-.024,1.681,1.681,0,0,0,.817.158,20.848,20.848,0,0,0,19.114-17.686,4.688,4.688,0,0,0,.031-2.436,3.9,3.9,0,0,0-.033-1.442l.184.194a20.531,20.531,0,0,0-5.2-13.234,7.1,7.1,0,0,0-.741-.618l.068.413a7.077,7.077,0,0,0-.781-.814l.389.085a7.59,7.59,0,0,0-1.869-1.784,21.345,21.345,0,0,0-8.584-3.869,8.742,8.742,0,0,0-3.451-.2,3.01,3.01,0,0,0-1.548.144l.177-.255A20.566,20.566,0,0,0,95.192,107.44Z" transform="translate(-87.163 -95.168)" fill="#eceaec"/></g><g transform="translate(24.531 87.694)"><path d="M108,120.318a20.566,20.566,0,0,1,15.9-8.292l-.177.255a2.221,2.221,0,0,0-.8,1.617c.04,1.086-.309,2.492.706,3.25a1.764,1.764,0,0,0,2.785-1.109c.061-1.345.413-3.25-1.14-3.9a8.742,8.742,0,0,1,3.451.2,21.345,21.345,0,0,1,8.584,3.869,7.59,7.59,0,0,1,1.869,1.784l-.389-.085a1.977,1.977,0,0,0-2.131.394c-3.17,3.146-6.314,6.321-9.479,9.47a5.969,5.969,0,0,0-3.64-.439,5.567,5.567,0,0,0-4.381,4.966,6.251,6.251,0,0,0,.536,2.955c-1.263,1.289-2.566,2.537-3.819,3.833a1.761,1.761,0,1,0,2.5,2.481c1.293-1.249,2.544-2.544,3.824-3.812a5.994,5.994,0,0,0,3.481.465,5.571,5.571,0,0,0,4.468-4.463,6.022,6.022,0,0,0-.467-3.484c3.158-3.165,6.337-6.311,9.479-9.491a2,2,0,0,0,.411-2.061l-.068-.413a7.1,7.1,0,0,1,.741.618,20.531,20.531,0,0,1,5.2,13.234l-.184-.194a2.136,2.136,0,0,0-1.65-.963c-1.086.045-2.471-.323-3.267.64a1.772,1.772,0,0,0,.913,2.818,11.456,11.456,0,0,0,2.575.038,1.959,1.959,0,0,0,1.461-1.09,4.688,4.688,0,0,1-.031,2.436,20.848,20.848,0,0,1-19.114,17.686,1.681,1.681,0,0,1-.817-.158,1.95,1.95,0,0,0,1.112-1.69c-.028-1.126.328-2.618-.772-3.359a1.764,1.764,0,0,0-2.729,1.249c-.045,1.329-.375,3.189,1.164,3.824a4.815,4.815,0,0,1-2.223-.009,20.919,20.919,0,0,1-17.938-18.7,4.6,4.6,0,0,1,.118-1.331,1.911,1.911,0,0,0,1.758,1.175c1.069-.035,2.443.3,3.212-.663a1.764,1.764,0,0,0-1.173-2.844c-1.239-.021-2.738-.323-3.642.758l-.25.2A19.728,19.728,0,0,1,108,120.318Z" transform="translate(-103.933 -112.025)" fill="#fff"/></g><g transform="translate(25.937 104.619)"><path d="M157.238,183.734c1.3.009,2.608-.026,3.911.017.89,6.139-.687,12.392-3.4,17.889a33.261,33.261,0,0,1-15.337,15.13,31.216,31.216,0,0,1-22.428,1.548,2.674,2.674,0,0,0-2.2-.007c-.774.46-.909,1.428-1.14,2.219-.345,1.513-.847,2.983-1.168,4.5a1.781,1.781,0,0,0,1.5,2.176c1.081.109,2.171.05,3.255.113a13.31,13.31,0,0,0-2.582,3.869H109.89c1.112-4.154,2.216-8.308,3.342-12.455a1.955,1.955,0,0,0-1.173-2.7c.489-1.683.895-3.387,1.388-5.07a28.257,28.257,0,0,0,43.791-27.226Z" transform="translate(-109.89 -183.729)" fill="#db4655"/><path d="M217.02,368.17c9.618.012,19.236-.007,28.855.012l-1.048,3.913H217.974A8.671,8.671,0,0,0,217.02,368.17Z" transform="translate(-191.734 -324.637)" fill="#db4655"/></g><g transform="translate(31.475 104.64)"><path d="M179.071,183.82l.3.031a1.95,1.95,0,0,0,1.813,1.728c3.987.04,7.975,0,11.962.017l-11.188,41.749c-9.618-.019-19.236,0-28.855-.012a7.227,7.227,0,0,0-5.417-3.559,11.585,11.585,0,0,0-9.529,3.616c-1.083-.064-2.174,0-3.255-.113a1.781,1.781,0,0,1-1.5-2.176c.321-1.518.824-2.988,1.168-4.5.231-.791.366-1.758,1.14-2.219a2.674,2.674,0,0,1,2.2.007,31.216,31.216,0,0,0,22.428-1.548,33.261,33.261,0,0,0,15.337-15.13C178.385,196.212,179.961,189.959,179.071,183.82Z" transform="translate(-133.35 -183.82)" fill="#e5646e"/></g><g transform="translate(36.487 106.411)"><path d="M184.535,191.529a2.008,2.008,0,1,1-.394,3.378A2.021,2.021,0,0,1,184.535,191.529Z" transform="translate(-176.599 -191.321)" fill="#5d5360"/><path d="M161.147,367.9a4.657,4.657,0,0,1,4.742,1.159,4.707,4.707,0,0,1,.392,4.669A9.164,9.164,0,0,1,160.567,379a5.6,5.6,0,0,1-3.972-.125,3.472,3.472,0,0,1-1.94-2.606,6.361,6.361,0,0,1,.97-4.232,9.229,9.229,0,0,1,5.523-4.138m-1.2,3.987a1.77,1.77,0,1,0,2.471,1.81A1.783,1.783,0,0,0,159.944,371.89Z" transform="translate(-154.588 -326.081)" fill="#5d5360"/><path d="M409.542,367.931a4.723,4.723,0,0,1,4.808,1.086,4.484,4.484,0,0,1,.595,4.249,9.114,9.114,0,0,1-5.33,5.551,5.8,5.8,0,0,1-4.6.021,3.5,3.5,0,0,1-1.886-2.754,6.671,6.671,0,0,1,1.239-4.416,9.241,9.241,0,0,1,5.178-3.736m-1,3.925a1.769,1.769,0,1,0,2.339,2.061A1.778,1.778,0,0,0,408.539,371.856Z" transform="translate(-344.435 -326.083)" fill="#5d5360"/></g><g transform="translate(86.75 110.205)"><path d="M367.54,234.112q3.6-13.351,7.163-26.714c1.291,0,2.582,0,3.873,0-.526,2.559-1.522,5.016-1.848,7.614a63.025,63.025,0,0,0-1.862,6.333,17,17,0,0,0-.477,2.474,11.575,11.575,0,0,0-.576,1.449c-.743,2.884-1.544,5.754-2.3,8.634C370.2,234.088,368.864,234,367.54,234.112Z" transform="translate(-367.54 -207.397)" fill="#ffa95f"/><path d="M393.788,328.085q1.954-.018,3.911,0a2.446,2.446,0,0,0,.684,1.352c.725.621,1.747.382,2.62.432l-2.053,7.664c-1.414-.009-2.828,0-4.239.024A7.292,7.292,0,0,0,389.386,334a11.591,11.591,0,0,0-9.628,3.571c-2.138-.132-4.293.1-6.427-.118-.725-.139-.524-1.062-.427-1.579.507-2.009,1.1-4,1.624-6,5.82-.012,11.643.019,17.461-.014A1.917,1.917,0,0,0,393.788,328.085Z" transform="translate(-371.561 -299.593)" fill="#ffa95f"/></g><g transform="translate(86.75 110.201)"><path d="M408.318,207.386c3.517,0,7.036,0,10.553,0,.507-.021,1.2.068,1.327.67.127,1.112.031,2.24.068,3.359q-3.764,0-7.527,0A7.253,7.253,0,0,0,406.47,215C406.8,212.4,407.792,209.944,408.318,207.386Z" transform="translate(-397.281 -207.378)" fill="#ffc269"/><path d="M373.814,278.429a11.575,11.575,0,0,1,.576-1.449,4.788,4.788,0,0,0,2.249,3.736c1.343.831,2.969.625,4.47.642,3.55.019,7.1-.038,10.647.026,1.99,1.305,3.892,2.757,5.842,4.128.661.368.493,1.19.342,1.794a21.549,21.549,0,0,0-2.9.047,1.98,1.98,0,0,0-1.367,1.7q-1.954-.018-3.911,0a1.9,1.9,0,0,0-1.827-1.749c-6.8-.028-13.6.019-20.4-.028,1.324-.111,2.655-.024,3.975-.208C372.27,284.184,373.07,281.314,373.814,278.429Z" transform="translate(-367.54 -260.552)" fill="#ffc269"/></g><g transform="translate(97.187 117.767)"><path d="M413.283,242.206a3.616,3.616,0,0,1,2.561-2.681,10.949,10.949,0,0,1,2.082-.083c-.312,1.275-.689,2.533-1.024,3.8a2.663,2.663,0,0,0-.04,1.659c.411.385,1.039.29,1.558.34,1.976-.007,3.954-.017,5.929-.014q.011,1.954.019,3.9c-3.861-.007-7.723.014-11.584-.009a.99.99,0,0,1-.977-1.3C412.244,245.938,412.8,244.08,413.283,242.206Z" transform="translate(-411.758 -239.434)" fill="#c3ddff"/></g><g transform="translate(102.166 117.774)"><path d="M434.041,239.467q3.2,0,6.4,0,.014,2.893.026,5.787c-1.976,0-3.953.007-5.929.014-.519-.05-1.147.045-1.558-.34a2.663,2.663,0,0,1,.04-1.659C433.352,242,433.729,240.741,434.041,239.467Z" transform="translate(-432.852 -239.466)" fill="#dbeaff"/></g><g transform="translate(82.695 140.477)"><path d="M350.36,347.249c1.041-3.864,2.063-7.735,3.116-11.6,1.3.007,2.6,0,3.906,0-.519,2.006-1.116,3.994-1.624,6-.1.517-.3,1.44.427,1.579,2.134.222,4.289-.014,6.427.118a13.064,13.064,0,0,0-2.58,3.89C356.808,347.258,353.584,347.249,350.36,347.249Z" transform="translate(-350.36 -335.65)" fill="#ff8b5a"/><path d="M465.62,368.159c1.411-.028,2.825-.033,4.239-.024a6.013,6.013,0,0,1-1.135,2.752,3.938,3.938,0,0,1-2.181,1.2A8.8,8.8,0,0,0,465.62,368.159Z" transform="translate(-438.415 -360.465)" fill="#ff8b5a"/></g></g></svg>