<svg xmlns="http://www.w3.org/2000/svg" width="83" height="83" viewBox="0 0 83 83"><path d="M9.357,0H11.7a4.19,4.19,0,0,1,3.795,4.048c.016,7.447,0,14.9.008,22.344,2.777,0,5.555-.006,8.332,0a5.947,5.947,0,0,1-1-3.056c-.031-1.731,0-3.463-.01-5.194.05-.391-.31-.626-.525-.895A10.24,10.24,0,0,1,20.38,6.426a1.3,1.3,0,0,1,1.558-.564,1.332,1.332,0,0,1,.691,1.271,14.448,14.448,0,0,0-.558,2.422,7.938,7.938,0,0,0,3.056,7.027c1.422-.008,2.845,0,4.267,0,1.769,0,3.536,0,5.3,0a8,8,0,0,0,3.02-5.213A7.882,7.882,0,0,0,25.13,4.048,1.352,1.352,0,0,1,23.318,4a1.624,1.624,0,0,1-.245-1.06c.091-.522.571-.825.968-1.11A10.4,10.4,0,0,1,29.577,0h.82a10.31,10.31,0,0,1,7.2,17.174c-.235.3-.644.548-.6.978-.015,1.728.023,3.458-.01,5.186a5.96,5.96,0,0,1-1,3.059q4.148-.015,8.3,0a7.571,7.571,0,0,1-1.462-2.728,13.24,13.24,0,0,1-.272-3.727c.013-.747-.034-1.5.018-2.245A1.165,1.165,0,0,1,43.62,16.6c.794-.06,1.59-.006,2.386-.021-.141-2.767-.2-5.539-.139-8.311a8.391,8.391,0,0,1,.655-3.4A8.077,8.077,0,0,1,53.566,0h.514a8.031,8.031,0,0,1,7.8,7.78c.083,2.933.023,5.868-.122,8.8.806.016,1.613-.044,2.417.028a1.155,1.155,0,0,1,1.016,1.059c.062.705.01,1.414.023,2.12a13.631,13.631,0,0,1-.3,3.985,7.653,7.653,0,0,1-1.431,2.625c1.339-.006,2.678,0,4.017,0,.008-7.447-.006-14.9.008-22.345A4.193,4.193,0,0,1,71.271,0h2.346a4.243,4.243,0,0,1,3.349,2.313A6.267,6.267,0,0,1,77.4,5.351q0,10.519,0,21.039a6.6,6.6,0,0,1,3.1.436,4.516,4.516,0,0,1,2.5,3.6v.733a4.509,4.509,0,0,1-2.608,3.66,6.754,6.754,0,0,1-3,.386q0,13.034,0,26.064a6.616,6.616,0,0,1,3.069.418A4.513,4.513,0,0,1,83,65.28v.736a4.5,4.5,0,0,1-2.5,3.615,6.5,6.5,0,0,1-3.108.446c0,3.874.008,7.749,0,11.623a1.306,1.306,0,0,1-.965,1.3H68.517a1.25,1.25,0,0,1-1-1.127c-.053-1.14,0-2.279-.024-3.419a2.352,2.352,0,0,1,.269-1.467,1.8,1.8,0,0,1,.937-.514,1.352,1.352,0,0,1,1.192,1.02c.1,1.02.011,2.049.041,3.074q1.114,0,2.232,0,1.4,0,2.8,0,0-37.605,0-75.212c-.019-.828.152-1.842-.546-2.456A2.377,2.377,0,0,0,72.64,2.42a3.221,3.221,0,0,0-2.062.387,1.835,1.835,0,0,0-.647,1.569q.007,33.474,0,66.95a10.552,10.552,0,0,1-.07,1.934,1.405,1.405,0,0,1-1.161.885,1.349,1.349,0,0,1-1.172-1.063c-.078-1,0-2.009-.036-3.012q-26,.015-51.993,0c-.006,3.874.006,7.75,0,11.625a1.3,1.3,0,0,1-.982,1.3h-7.9a1.28,1.28,0,0,1-1-1.3c-.015-3.876,0-7.752,0-11.628a6.8,6.8,0,0,1-3-.389A4.5,4.5,0,0,1,0,66.047V65.3a4.5,4.5,0,0,1,2.644-3.664,6.783,6.783,0,0,1,2.96-.371q0-13.031,0-26.064a6.535,6.535,0,0,1-3.074-.423A4.5,4.5,0,0,1,0,31.182v-.749a4.5,4.5,0,0,1,2.605-3.651,6.742,6.742,0,0,1,3-.392q0-10.522,0-21.042a6.276,6.276,0,0,1,.43-3.04A4.261,4.261,0,0,1,9.357,0m-.6,2.753a1.807,1.807,0,0,0-.721,1.624q.007,38.094,0,76.191h2.305c.909,0,1.819,0,2.728,0q0-37.686,0-75.373c-.01-.754.122-1.644-.475-2.227a2.2,2.2,0,0,0-1.777-.546,3.619,3.619,0,0,0-2.062.332m43.877-.2a5.7,5.7,0,0,0-3.879,3.265,6.21,6.21,0,0,0-.456,2.61q-.078,4.075.148,8.151h3.438q3.72,0,7.439,0c.152-2.929.211-5.865.126-8.8A5.592,5.592,0,0,0,56.339,3a5.84,5.84,0,0,0-3.707-.446M25.262,19.007c0,1.446-.021,2.89.01,4.335a3.271,3.271,0,0,0,2.777,3.02c1.14.039,2.279.036,3.419.021a3.257,3.257,0,0,0,3.087-3.053c.031-1.44,0-2.881.011-4.32H28.022c-.921,0-1.84,0-2.761,0m19.717.006c.021,1.057-.036,2.116.029,3.172a4.667,4.667,0,0,0,3.1,3.947,11.227,11.227,0,0,0,3.456.259c2.214-.006,4.427,0,6.64,0a4.663,4.663,0,0,0,4.176-2.772c.648-1.448.324-3.074.4-4.606q-6.738,0-13.475,0c-1.444,0-2.889,0-4.332,0M3.252,29.206a2.232,2.232,0,0,0-.854,1.6A2.231,2.231,0,0,0,3.265,32.4a3.847,3.847,0,0,0,2.339.371V31.451c0-.877,0-1.752,0-2.628a3.839,3.839,0,0,0-2.351.383M15.5,28.823v3.944q26,0,52,0V28.823q-24.251,0-48.5,0H15.5m61.9,0c0,.875,0,1.749,0,2.625,0,.439,0,.88,0,1.32a3.877,3.877,0,0,0,2.344-.373,2.257,2.257,0,0,0,.861-1.589,2.229,2.229,0,0,0-.858-1.6,3.847,3.847,0,0,0-2.346-.379M15.5,35.2q0,13.031,0,26.066c2.717,0,5.436,0,8.152,0a6.246,6.246,0,0,1-1.192-3.247c-.041-.968,0-1.937-.019-2.9A4.573,4.573,0,0,1,21.2,47.628a5.115,5.115,0,0,1-1.086-1.594,4.559,4.559,0,0,1,1-4.977,4.639,4.639,0,0,1,4.52-1.119,5,5,0,0,1,.937-1.863,4.556,4.556,0,0,1,5-1.405,4.661,4.661,0,0,1,2.95,3.265,4.7,4.7,0,0,1,3.579.415,4.541,4.541,0,0,1,2.266,4.4,4.725,4.725,0,0,1-1.409,2.881,4.688,4.688,0,0,1,1.167,4.918q1.379,0,2.759,0a4.679,4.679,0,0,1,1.167-4.918,4.882,4.882,0,0,1-1.253-2.064,4.554,4.554,0,0,1,1.519-4.815,4.668,4.668,0,0,1,4.171-.815,5.051,5.051,0,0,1,.931-1.851,4.557,4.557,0,0,1,5.016-1.407,4.66,4.66,0,0,1,2.936,3.258,5.032,5.032,0,0,1,2.325-.071,4.557,4.557,0,0,1,3.492,3.724A4.658,4.658,0,0,1,61.8,47.628a4.577,4.577,0,0,1-1.247,7.493,15.512,15.512,0,0,1-.3,4.359,6.825,6.825,0,0,1-.914,1.791c2.719-.01,5.437,0,8.156,0q0-13.034,0-26.067-26,0-52,0m14.024,3.729a2.111,2.111,0,0,0-1.509,1.6,17.857,17.857,0,0,0,.019,1.791,1.217,1.217,0,0,1-1.555.885c-.473-.2-.827-.6-1.292-.815a2.1,2.1,0,0,0-2.464,3.3,4.545,4.545,0,0,0,1.527.906,1.2,1.2,0,0,1,.439,1.631c-.274.506-.892.606-1.352.874a2.1,2.1,0,0,0,1.3,3.941,4.02,4.02,0,0,0,1.6-.864,1.207,1.207,0,0,1,1.694.467c.255.47.049,1.015.05,1.516a2.1,2.1,0,0,0,4.007,1.016,3.917,3.917,0,0,0,.107-2,1.2,1.2,0,0,1,1.613-1.106,11.558,11.558,0,0,0,1.5.9A2.107,2.107,0,0,0,37.457,49.6a4.13,4.13,0,0,0-1.532-.927,1.2,1.2,0,0,1-.459-1.66c.3-.524.948-.6,1.423-.893a2.1,2.1,0,0,0-1.538-3.873,6.672,6.672,0,0,0-1.592.918,1.206,1.206,0,0,1-1.666-1.01,4.521,4.521,0,0,0-.079-2.017,2.116,2.116,0,0,0-2.488-1.209m22.588.088a2.114,2.114,0,0,0-1.209,1.36,6.189,6.189,0,0,0,0,1.782A1.207,1.207,0,0,1,49.336,43.2c-.507-.214-.882-.657-1.4-.861a2.1,2.1,0,0,0-2.36,3.348,4.607,4.607,0,0,0,1.521.9,1.2,1.2,0,0,1,.451,1.611c-.29.556-.976.639-1.465.948a2.1,2.1,0,0,0,1.4,3.886,4.033,4.033,0,0,0,1.6-.866,1.21,1.21,0,0,1,1.7.478c.243.467.045,1.005.045,1.5a2.1,2.1,0,0,0,4.054.914A5.6,5.6,0,0,0,54.95,53a1.215,1.215,0,0,1,1.621-.929,10.454,10.454,0,0,0,1.49.895,2.106,2.106,0,0,0,2.169-3.451,5.516,5.516,0,0,0-1.54-.888,1.211,1.211,0,0,1-.126-1.91c.481-.35,1.112-.447,1.551-.866a2.1,2.1,0,0,0-1.987-3.583,7.858,7.858,0,0,0-1.516.895,1.2,1.2,0,0,1-1.668-1.012,4.358,4.358,0,0,0-.092-2.041,2.123,2.123,0,0,0-2.738-1.093M37.977,55.005a5.068,5.068,0,0,1-3.463.31,4.762,4.762,0,0,1-2.655,3.169,4.587,4.587,0,0,1-6.225-3.172c-.255.053-.507.109-.76.165.068,1.209-.2,2.492.324,3.633a3.666,3.666,0,0,0,3.335,2.154c1.626.008,3.254,0,4.879,0q10.531,0,21.064,0a3.659,3.659,0,0,0,3.6-3.067c.109-.9.024-1.814.053-2.719-.255-.057-.507-.112-.76-.165a5.13,5.13,0,0,1-.822,1.718A4.551,4.551,0,0,1,51.7,58.663a4.634,4.634,0,0,1-3.213-3.349,4.773,4.773,0,0,1-2.592,0,3.554,3.554,0,0,0-1.3-.34c-2.2.028-4.411-.037-6.611.032m-34.7,9.055a2.515,2.515,0,0,0-.866,1.3,2.235,2.235,0,0,0,.744,1.82c.671.6,1.626.446,2.451.464V66.311q0-1.306,0-2.612a3.9,3.9,0,0,0-2.328.362M15.5,63.7v3.943q26,0,52,0V66.314c0-.872,0-1.744,0-2.615q-24.253,0-48.5,0-1.748,0-3.5,0m61.9,0c0,.872,0,1.746,0,2.62q0,.661,0,1.324a3.63,3.63,0,0,0,2.443-.452,2.289,2.289,0,0,0,.754-1.855l-.052.075a1.955,1.955,0,0,0-1.234-1.576A6.184,6.184,0,0,0,77.4,63.7Z"/><path d="M162.282,267.137a4.333,4.333,0,1,1-3.5,4.618,4.345,4.345,0,0,1,3.5-4.618m.3,2.43a1.9,1.9,0,1,0,2.351,1.358A1.906,1.906,0,0,0,162.58,269.567Z" transform="translate(-133.02 -223.768)"/><path d="M303.235,267.074a4.333,4.333,0,1,1-3.485,4.777,4.356,4.356,0,0,1,3.485-4.777m.318,2.425a1.9,1.9,0,1,0,2.329,1.352A1.9,1.9,0,0,0,303.553,269.5Z" transform="translate(-251.123 -223.705)"/><g transform="translate(2.398 2.42)"><path d="M50.264,15.262a3.619,3.619,0,0,1,2.062-.332,3.732,3.732,0,0,0-.5,1.957c.024,25.4-.018,50.794.023,76.191H49.544q0-38.1,0-76.191A1.807,1.807,0,0,1,50.264,15.262Z" transform="translate(-43.906 -14.93)" fill="#b16e3d"/><path d="M425.656,15.317a3.221,3.221,0,0,1,2.062-.387,4.984,4.984,0,0,0-.462,1.947q.019,28.538.006,57.075c-.016,6.376.021,12.75-.019,19.126q-1.119,0-2.232,0c-.029-1.025.062-2.054-.041-3.074a1.352,1.352,0,0,0-1.192-1.02q0-1.165,0-2.328a1.405,1.405,0,0,0,1.161-.885,10.554,10.554,0,0,0,.07-1.934q0-33.474,0-66.95A1.835,1.835,0,0,1,425.656,15.317Z" transform="translate(-357.476 -14.93)" fill="#b16e3d"/><path d="M95.61,177.8h3.5c.013.864.016,1.726.023,2.591,16.159.049,32.32-.006,48.48.028v1.326q-26,0-52,0Z" transform="translate(-82.508 -151.397)" fill="#b16e3d"/><path d="M14.79,190.06A5.549,5.549,0,0,0,18,190.7v1.316a3.847,3.847,0,0,1-2.339-.371A2.231,2.231,0,0,1,14.79,190.06Z" transform="translate(-14.79 -161.67)" fill="#b16e3d"/><path d="M477.424,190.672a5.5,5.5,0,0,0,3.2-.642,2.258,2.258,0,0,1-.861,1.589,3.877,3.877,0,0,1-2.344.373C477.422,191.552,477.422,191.111,477.424,190.672Z" transform="translate(-402.425 -161.645)" fill="#b16e3d"/><path d="M95.61,392.934q1.748,0,3.5,0c.01.859.015,1.72.031,2.579,16.157.065,32.317-.006,48.474.036v1.328q-26,0-52,0Z" transform="translate(-82.508 -331.655)" fill="#b16e3d"/><path d="M15.6,405a2.235,2.235,0,0,1-.744-1.82c.652,1.1,2.1.932,3.2.952v1.333C17.23,405.446,16.275,405.6,15.6,405Z" transform="translate(-14.849 -340.241)" fill="#b16e3d"/><path d="M480.569,403.115l.052-.075a2.289,2.289,0,0,1-.754,1.855,3.63,3.63,0,0,1-2.443.452q0-.664,0-1.324C478.487,403.982,479.925,404.181,480.569,403.115Z" transform="translate(-402.425 -340.124)" fill="#b16e3d"/></g><g transform="translate(2.398 2.42)"><path d="M64.13,14.927a2.2,2.2,0,0,1,1.777.546c.6.584.465,1.474.475,2.227q0,37.686,0,75.373c-.909,0-1.819,0-2.728,0-.041-25.4,0-50.794-.023-76.191A3.732,3.732,0,0,1,64.13,14.927Z" transform="translate(-55.711 -14.927)" fill="#c17d4f"/><path d="M445.635,14.93a2.377,2.377,0,0,1,1.782.478c.7.614.527,1.628.546,2.456q-.01,37.608,0,75.212-1.4,0-2.8,0c.041-6.376,0-12.75.019-19.126q-.015-28.538-.006-57.075A4.983,4.983,0,0,1,445.635,14.93Z" transform="translate(-375.393 -14.929)" fill="#c17d4f"/><path d="M15.644,178.153a3.839,3.839,0,0,1,2.351-.383c0,.875,0,1.751,0,2.628a5.549,5.549,0,0,1-3.207-.64A2.232,2.232,0,0,1,15.644,178.153Z" transform="translate(-14.79 -151.367)" fill="#c17d4f"/><path d="M117.19,177.8q24.251,0,48.5,0v2.618c-16.161-.034-32.321.021-48.48-.028C117.206,179.523,117.2,178.66,117.19,177.8Z" transform="translate(-100.59 -151.393)" fill="#c17d4f"/><path d="M477.43,177.768a3.847,3.847,0,0,1,2.346.379,2.229,2.229,0,0,1,.858,1.6,5.5,5.5,0,0,1-3.2.642C477.428,179.517,477.426,178.644,477.43,177.768Z" transform="translate(-402.43 -151.365)" fill="#c17d4f"/><path d="M15.726,393.264a3.9,3.9,0,0,1,2.328-.362q0,1.306,0,2.612c-1.093-.019-2.543.151-3.2-.952A2.515,2.515,0,0,1,15.726,393.264Z" transform="translate(-14.849 -331.623)" fill="#c17d4f"/><path d="M117.18,392.934q24.253,0,48.5,0c0,.871,0,1.743,0,2.615-16.157-.042-32.317.029-48.474-.036C117.195,394.654,117.19,393.793,117.18,392.934Z" transform="translate(-100.582 -331.654)" fill="#c17d4f"/><path d="M477.43,392.9a6.185,6.185,0,0,1,1.91.136,1.955,1.955,0,0,1,1.234,1.576c-.644,1.067-2.081.867-3.145.908C477.428,394.649,477.426,393.775,477.43,392.9Z" transform="translate(-402.43 -331.624)" fill="#c17d4f"/></g><g transform="translate(21.938 2.434)"><path d="M138.522,16.627a7.861,7.861,0,0,1,6.06-1.506,14.44,14.44,0,0,0-2.5,2.485,9.2,9.2,0,0,0-.955,8.893,14.193,14.193,0,0,0,1.657,2.657c-1.422,0-2.845,0-4.267,0a7.938,7.938,0,0,1-3.056-7.027,14.447,14.447,0,0,1,.558-2.422,1.332,1.332,0,0,0-.691-1.271,10.742,10.742,0,0,1,1.38-1.858A1.352,1.352,0,0,0,138.522,16.627Z" transform="translate(-135.33 -15.013)" fill="#9bd069"/><path d="M320.527,15.154a5.84,5.84,0,0,1,3.707.446,5.592,5.592,0,0,1,3.109,4.784c.084,2.931.026,5.867-.126,8.8q-3.72,0-7.439,0c-.052-2.553-.057-5.106-.049-7.661A18.89,18.89,0,0,1,320.527,15.154Z" transform="translate(-289.833 -15.034)" fill="#9bd069"/></g><g transform="translate(27.009 2.542)"><path d="M170.791,15.68a7.886,7.886,0,0,1,6.528,8.827,8,8,0,0,1-3.02,5.213c-1.769-.008-3.536,0-5.3,0a14.193,14.193,0,0,1-1.657-2.657,9.2,9.2,0,0,1,.955-8.893A14.44,14.44,0,0,1,170.791,15.68Z" transform="translate(-166.61 -15.68)" fill="#aad880"/></g><g transform="translate(48.278 2.553)"><path d="M298.284,19.015a5.7,5.7,0,0,1,3.879-3.265,18.889,18.889,0,0,0-.8,6.364c-.008,2.555,0,5.108.049,7.661h-3.438q-.221-4.071-.148-8.151A6.21,6.21,0,0,1,298.284,19.015Z" transform="translate(-297.809 -15.75)" fill="#7dbe3b"/></g><g transform="translate(25.255 19.007)"><path d="M155.8,117.25c.921,0,1.84,0,2.761,0-.019,1.175-.01,2.352-.018,3.529a6.264,6.264,0,0,0,.242,2.046,8.407,8.407,0,0,0,.95,1.71c-.383.026-.765.058-1.148.066a3.271,3.271,0,0,1-2.777-3.02C155.778,120.14,155.8,118.7,155.8,117.25Z" transform="translate(-155.793 -117.25)" fill="#ecc32e"/></g><g transform="translate(28.004 19.011)"><path d="M172.768,117.27h6.543c-.01,1.44.019,2.881-.011,4.32a3.257,3.257,0,0,1-3.087,3.053c-1.14.015-2.279.018-3.419-.021.383-.008.765-.041,1.148-.066a8.408,8.408,0,0,1-.95-1.71,6.264,6.264,0,0,1-.242-2.046C172.758,119.622,172.748,118.445,172.768,117.27Z" transform="translate(-172.75 -117.27)" fill="#f4dd45"/><path d="M175.171,282.132a1.9,1.9,0,1,1-1.344,2.213A1.9,1.9,0,0,1,175.171,282.132Z" transform="translate(-173.615 -255.343)" fill="#f4dd45"/><path d="M316.152,282.127a1.9,1.9,0,1,1-1.363,2.206A1.9,1.9,0,0,1,316.152,282.127Z" transform="translate(-291.727 -255.343)" fill="#f4dd45"/></g><g transform="translate(44.976 19.01)"><path d="M277.444,117.268c1.443-.008,2.887,0,4.332,0,.068,1.662-.229,3.411.456,4.983a6.718,6.718,0,0,0,1.8,2.4,11.227,11.227,0,0,1-3.456-.259,4.667,4.667,0,0,1-3.1-3.947C277.409,119.384,277.465,118.325,277.444,117.268Z" transform="translate(-277.441 -117.264)" fill="#d80a61"/></g><g transform="translate(22.194 19.009)"><path d="M304.141,117.264q6.736,0,13.475,0c-.078,1.532.246,3.158-.4,4.606a4.663,4.663,0,0,1-4.176,2.772c-2.213.01-4.426,0-6.64,0a6.718,6.718,0,0,1-1.8-2.4C303.912,120.674,304.209,118.925,304.141,117.264Z" transform="translate(-277.024 -117.262)" fill="#da387d"/><path d="M144.237,239.745a2.116,2.116,0,0,1,2.488,1.209,4.521,4.521,0,0,1,.079,2.017,1.206,1.206,0,0,0,1.666,1.01,6.673,6.673,0,0,1,1.592-.918,2.1,2.1,0,0,1,1.538,3.873c-.475.292-1.127.37-1.423.893a1.2,1.2,0,0,0,.459,1.66,4.13,4.13,0,0,1,1.532.927,2.107,2.107,0,0,1-2.252,3.364,11.556,11.556,0,0,1-1.5-.9,1.2,1.2,0,0,0-1.613,1.106,3.917,3.917,0,0,1-.107,2,2.1,2.1,0,0,1-4.007-1.016c0-.5.2-1.046-.05-1.516a1.207,1.207,0,0,0-1.694-.467,4.02,4.02,0,0,1-1.6.864,2.1,2.1,0,0,1-1.3-3.941c.46-.267,1.078-.368,1.352-.874a1.2,1.2,0,0,0-.439-1.631,4.545,4.545,0,0,1-1.527-.906,2.1,2.1,0,0,1,2.464-3.3c.465.216.819.614,1.292.815a1.217,1.217,0,0,0,1.555-.885,17.852,17.852,0,0,1-.019-1.791,2.111,2.111,0,0,1,1.509-1.6m-.263,4.44a4.336,4.336,0,1,0,3.774,1.1A4.356,4.356,0,0,0,143.975,244.186Z" transform="translate(-136.906 -219.826)" fill="#da387d"/><path d="M284.939,239.838a2.123,2.123,0,0,1,2.738,1.093,4.359,4.359,0,0,1,.092,2.041,1.2,1.2,0,0,0,1.668,1.012,7.858,7.858,0,0,1,1.516-.895,2.1,2.1,0,0,1,1.987,3.583c-.439.418-1.07.516-1.551.866a1.211,1.211,0,0,0,.126,1.91,5.516,5.516,0,0,1,1.54.888,2.106,2.106,0,0,1-2.169,3.451,10.455,10.455,0,0,1-1.49-.895,1.215,1.215,0,0,0-1.621.929,5.6,5.6,0,0,1-.066,2.067,2.1,2.1,0,0,1-4.054-.914c0-.5.2-1.034-.045-1.5a1.21,1.21,0,0,0-1.7-.478,4.033,4.033,0,0,1-1.6.866,2.1,2.1,0,0,1-1.4-3.886c.49-.31,1.175-.392,1.465-.948a1.2,1.2,0,0,0-.451-1.611,4.607,4.607,0,0,1-1.521-.9,2.1,2.1,0,0,1,2.36-3.348c.514.2.888.647,1.4.861a1.207,1.207,0,0,0,1.568-1.046,6.188,6.188,0,0,1,0-1.782,2.114,2.114,0,0,1,1.209-1.36m0,4.353a4.333,4.333,0,1,0,5.1,3.623A4.356,4.356,0,0,0,284.937,244.191Z" transform="translate(-255.02 -219.831)" fill="#da387d"/></g><g transform="translate(31.859 54.968)"><path d="M202.648,339.117c2.2-.07,4.408,0,6.611-.032a3.555,3.555,0,0,1,1.3.34,4.773,4.773,0,0,0,2.592,0,4.634,4.634,0,0,0,3.213,3.349,4.551,4.551,0,0,0,4.845-1.632,5.13,5.13,0,0,0,.822-1.718c.253.053.506.109.76.165-.029.9.055,1.817-.053,2.719a3.659,3.659,0,0,1-3.6,3.067q-10.531.012-21.064,0a6.1,6.1,0,0,1-1.553-2.783,4.762,4.762,0,0,0,2.655-3.169A5.068,5.068,0,0,0,202.648,339.117Z" transform="translate(-196.53 -339.08)" fill="#9dc6fb"/></g><g transform="translate(24.866 55.312)"><path d="M153.4,341.365c.253-.057.506-.112.76-.165a4.587,4.587,0,0,0,6.225,3.172,6.1,6.1,0,0,0,1.553,2.783c-1.626-.006-3.254,0-4.88,0A3.666,3.666,0,0,1,153.721,345C153.2,343.857,153.465,342.575,153.4,341.365Z" transform="translate(-153.389 -341.2)" fill="#80b4fb"/></g></svg>