<svg xmlns="http://www.w3.org/2000/svg" width="85.615" height="83" viewBox="0 0 85.615 83"><g transform="translate(0 -7.791)"><g transform="translate(5.736 7.791)"><path d="M34.345,12.236A4.744,4.744,0,0,1,38.937,7.8q17.555-.028,35.112-.007a5.113,5.113,0,0,1,3.958,1.941,5.727,5.727,0,0,1,.831,2.6c.025,3.353-.007,6.705.015,10.058-.838,0-1.676,0-2.513,0-.007-3.3.007-6.6-.007-9.894a2.225,2.225,0,0,0-2.122-2.184c-2.349-.02-4.7-.017-7.048,0-5.294,0-10.588-.018-15.882.01-1.443-.047-2.888,0-4.331-.025a1.746,1.746,0,0,0-.9.132c-.057-.033-.169-.1-.226-.129-.834.008-1.669,0-2.5.007-1.463,0-2.928-.022-4.389.012a2.244,2.244,0,0,0-2.087,2.364q.005,30.295.005,60.59c.013,2.707-.005,5.415.012,8.122a2.185,2.185,0,0,0,2.058,2.154c1.466.047,2.935,0,4.4.018,10.244-.007,20.487.01,30.731-.005a2.273,2.273,0,0,0,2.3-2.321c-.017-2.665.018-5.331-.01-8q0-12.617,0-25.235c.843-.01,1.686-.005,2.53,0-.045,1.9-.01,3.8-.018,5.7q0,2.8,0,5.607c0,1.328,0,2.655,0,3.983,0,.485,0,.97,0,1.455q0,7.3,0,14.6a10.666,10.666,0,0,1-.326,3.709,4.765,4.765,0,0,1-4.478,3.017q-11.287,0-22.571,0c-.274.022-.585-.055-.826.114a.822.822,0,0,0-.5-.11c-3.737-.007-7.475.007-11.21-.007a4.752,4.752,0,0,1-4.588-4.445c-.05-3.612.042-7.232-.045-10.842.075-5.04.01-10.087.032-15.128-.015-8.938.03-17.876-.022-26.812C34.374,23.309,34.3,17.771,34.345,12.236Z" transform="translate(-34.3 -7.791)" fill="#2882b2"/></g><g transform="translate(0 9.736)"><path d="M295.68,19.42A41.065,41.065,0,0,1,321.8,37.576q-3.863,0-7.725,0c-1.757.005-3.517-.017-5.274.01l-.2.229a1.081,1.081,0,0,0-.157.773c.012,4.848-.017,9.7.015,14.546l.127.249.212.234c6.317.025,12.637,0,18.956.01a41.044,41.044,0,0,1-6.264,28.317c-.005-5.823,0-11.643-.005-17.466a1.158,1.158,0,0,0-.393-.849,1.213,1.213,0,0,0-.776-.244q-11.9,0-23.792,0c.008-1.9-.027-3.8.018-5.7,1.232,0,2.466,0,3.7,0,.3-.015.657-.015.853-.289a1.208,1.208,0,0,0,.326-.92q0-11.633,0-23.268a1.225,1.225,0,0,0-.375-.89,1.132,1.132,0,0,0-.619-.242c-1.3-.007-2.6,0-3.9,0-.022-3.353.01-6.705-.015-10.058A5.727,5.727,0,0,0,295.68,19.42Z" transform="translate(-246.237 -19.42)" fill="#60b7ff"/><path d="M249.691,34.685a1.252,1.252,0,1,1-.615,1.552A1.26,1.26,0,0,1,249.691,34.685Z" transform="translate(-207.358 -32.022)" fill="#60b7ff"/><path d="M5.746,133.67c.052,8.936.007,17.874.022,26.812-.022,5.042.043,10.088-.032,15.128-.719-1.334-1.482-2.652-2.084-4.048A41.215,41.215,0,0,1,0,155.9V153.99a40.823,40.823,0,0,1,3-14.734A48.544,48.544,0,0,1,5.746,133.67Z" transform="translate(0 -114.565)" fill="#60b7ff"/><path d="M111.462,285.226a4.2,4.2,0,0,1,.781-.038c5.354.005,10.709-.005,16.061.005a1.253,1.253,0,1,1-.015,2.5q-8.27,0-16.539,0a1.251,1.251,0,0,1-.288-2.47Z" transform="translate(-92.013 -240.746)" fill="#60b7ff"/><path d="M137.47,319.017a1.9,1.9,0,0,1,.771-.1c2.508.005,5.018,0,7.526.005a1.251,1.251,0,0,1,.015,2.5c-2.568.007-5.137,0-7.705,0a1.288,1.288,0,0,1-1.3-.826A1.253,1.253,0,0,1,137.47,319.017Z" transform="translate(-113.836 -268.838)" fill="#60b7ff"/><path d="M160.271,435.691c6.359.007,12.722-.02,19.081.013a41.592,41.592,0,0,1-11.456,7.769,40.99,40.99,0,0,1-35.826-.945c.241-.169.552-.092.826-.114q11.285.01,22.571,0a4.765,4.765,0,0,0,4.478-3.017A10.666,10.666,0,0,0,160.271,435.691Z" transform="translate(-109.986 -366.08)" fill="#60b7ff"/></g><g transform="translate(8.271 10.298)"><path d="M49.469,25.167A2.244,2.244,0,0,1,51.556,22.8c1.461-.033,2.926-.008,4.389-.012a4.578,4.578,0,0,0-.7,2.037c-.023,20.305.013,40.612-.015,60.917-1.918.032-3.838.007-5.756.012q-.015-30.295-.005-60.59m3.144-.289a1.248,1.248,0,1,0,1.774,1.289A1.247,1.247,0,0,0,52.613,24.877Z" transform="translate(-49.463 -22.785)" fill="#d8ecfe"/></g><g transform="translate(14.038 10.298)"><path d="M84.666,22.787c.834-.007,1.669,0,2.5-.007.057.032.169.1.226.129.527,1.13,1.087,2.246,1.625,3.371a2.931,2.931,0,0,0,2.632,1.732c1.577.023,3.155,0,4.732.01,2.6-.027,5.209,0,7.814-.015a2.963,2.963,0,0,0,2.572-1.615q.88-1.8,1.741-3.6c2.349-.013,4.7-.017,7.048,0a2.225,2.225,0,0,1,2.122,2.184c.013,3.3,0,6.6.007,9.894q-11.929,0-23.859,0c-1.731-.015-3.461-.01-5.192,0-.2.092-.462.145-.564.368a1.144,1.144,0,0,0-.268.773q-.005,11.633,0,23.267a1.558,1.558,0,0,0,.177.778,1.21,1.21,0,0,0,1.159.44q14.272-.008,28.544-.005.008,12.617,0,25.235c-11.245.012-22.492-.022-33.736.017.028-20.305-.008-40.612.015-60.917a4.578,4.578,0,0,1,.7-2.037m.507,2.092c-.4.3-.839.729-.709,1.286a1.258,1.258,0,0,0,1.219,1.087,1.311,1.311,0,0,0,1.279-1.089,1.289,1.289,0,0,0-1.789-1.284m27.073,0a1.252,1.252,0,1,0,1.732.684,1.252,1.252,0,0,0-1.732-.684M89.361,66.7a1.251,1.251,0,0,0,.288,2.47q8.27.005,16.539,0a1.253,1.253,0,1,0,.015-2.5c-5.353-.01-10.707,0-16.061-.005a4.2,4.2,0,0,0-.781.038m4.185,5.7a1.253,1.253,0,0,0-.7,1.587,1.288,1.288,0,0,0,1.3.826c2.568,0,5.137,0,7.705,0a1.251,1.251,0,0,0-.015-2.5c-2.508-.008-5.018,0-7.526-.005A1.9,1.9,0,0,0,93.547,72.4Z" transform="translate(-83.95 -22.78)" fill="#eaf6ff"/></g><g transform="translate(8.282 10.294)"><path d="M104.55,22.892a1.746,1.746,0,0,1,.9-.132c1.443.022,2.888-.022,4.331.025.535,1.279,1.187,2.508,1.814,3.746a3.526,3.526,0,0,0,1.941,1.475c-1.577-.008-3.155.013-4.732-.01a2.931,2.931,0,0,1-2.632-1.732C105.637,25.138,105.077,24.022,104.55,22.892Z" transform="translate(-95.35 -22.76)" fill="#005e89"/><path d="M49.53,399.312c1.918-.005,3.838.02,5.756-.012.02,2.717-.015,5.436.018,8.155a4.553,4.553,0,0,0,.7,2.15c-1.468-.02-2.936.028-4.4-.018a2.185,2.185,0,0,1-2.058-2.154C49.525,404.726,49.543,402.019,49.53,399.312Z" transform="translate(-49.53 -336.336)" fill="#005e89"/><path d="M137.708,417.008a12.708,12.708,0,0,1,2.127-.079c1.672.02,3.348-.043,5.018.023a2.085,2.085,0,0,1-.326,4.152c-2.012.01-4.022.007-6.032,0a2.1,2.1,0,0,1-2.152-1.349A2.079,2.079,0,0,1,137.708,417.008Z" transform="translate(-121.697 -351.011)" fill="#005e89"/></g><g transform="translate(14.038 10.302)"><path d="M135.85,22.825c5.294-.028,10.588-.013,15.882-.01q-.86,1.806-1.741,3.6a2.963,2.963,0,0,1-2.572,1.615c-2.605.017-5.21-.012-7.814.015a3.526,3.526,0,0,1-1.941-1.475C137.037,25.334,136.385,24.1,135.85,22.825Z" transform="translate(-127.171 -22.808)" fill="#116d9a"/><path d="M83.95,399.2c11.244-.038,22.491-.005,33.736-.017.028,2.665-.007,5.331.01,8a2.273,2.273,0,0,1-2.3,2.321c-10.244.015-20.487,0-30.731.005a4.553,4.553,0,0,1-.7-2.15c-.033-2.719,0-5.438-.018-8.155m10.255,3.033a2.079,2.079,0,0,0-1.364,2.749,2.1,2.1,0,0,0,2.152,1.349c2.01.005,4.02.008,6.032,0a2.052,2.052,0,0,0,1.948-1.212,2.073,2.073,0,0,0-1.622-2.94c-1.671-.067-3.346,0-5.018-.023A12.7,12.7,0,0,0,94.205,402.238Z" transform="translate(-83.95 -336.249)" fill="#116d9a"/></g><g transform="translate(10.707 12.265)"><path d="M64.743,34.674a1.248,1.248,0,1,1-.125,2.186A1.256,1.256,0,0,1,64.743,34.674Z" transform="translate(-64.029 -34.548)" fill="#fff"/><path d="M87.612,34.8A1.289,1.289,0,0,1,89.4,36.084a1.311,1.311,0,0,1-1.279,1.089A1.258,1.258,0,0,1,86.9,36.086C86.772,35.529,87.207,35.1,87.612,34.8Z" transform="translate(-83.058 -34.669)" fill="#fff"/></g><g transform="translate(18.161 22.379)"><path d="M108.61,95.408c.1-.222.36-.276.564-.368,1.731-.008,3.461-.013,5.192,0-.134.1-.264.211-.39.324a7.607,7.607,0,0,0,1.585,1.314c3.951,3.008,7.913,6,11.856,9.023a15.427,15.427,0,0,1,2.033,1.645c-.64.507-1.286,1.01-1.948,1.487a1.034,1.034,0,0,1-1.3-.059c-1.579-1.194-3.145-2.4-4.724-3.593-3.329-2.6-6.722-5.119-10.072-7.69C110.459,96.814,109.575,96.055,108.61,95.408Z" transform="translate(-108.61 -95.032)" fill="#e8b800"/><path d="M373.132,128c1.757-.027,3.517-.005,5.274-.01-.007.072-.022.219-.028.291,2.873,2.232,5.8,4.408,8.675,6.637-.672.56-1.381,1.075-2.077,1.607a.727.727,0,0,1-.946.107c-1.018-.744-2.012-1.525-3.017-2.288-1.851-1.458-3.757-2.844-5.608-4.3-.839-.584-1.607-1.269-2.475-1.813Z" transform="translate(-328.731 -122.478)" fill="#e8b800"/><path d="M300.7,315.88q4.442,3.288,8.794,6.7c-.632.512-1.281,1-1.938,1.48a1.074,1.074,0,0,1-1.364-.07c-1.562-1.2-3.134-2.38-4.692-3.578a4.473,4.473,0,0,0-.8-.543C300.7,318.535,300.7,317.208,300.7,315.88Z" transform="translate(-268.577 -278.95)" fill="#e8b800"/></g><g transform="translate(23.528 22.389)"><path d="M141.09,95.09q11.929.013,23.859,0c.838,0,1.676,0,2.513,0,1.3.005,2.6,0,3.9,0a1.132,1.132,0,0,1,.619.242c-4.311,3.316-8.647,6.6-12.976,9.888-.943.724-1.9,1.433-2.828,2.172a15.428,15.428,0,0,0-2.033-1.645c-3.943-3.02-7.9-6.015-11.856-9.023a7.607,7.607,0,0,1-1.585-1.314C140.825,95.3,140.956,95.192,141.09,95.09Z" transform="translate(-140.7 -95.09)" fill="#fac600"/><path d="M405.538,127.952q3.863,0,7.725,0,4.7,0,9.393,0a.491.491,0,0,1,.512.263,9.01,9.01,0,0,0-1.861,1.247c-2.127,1.605-4.242,3.229-6.361,4.844-.261.182-.513.376-.761.575-2.878-2.229-5.8-4.4-8.675-6.637C405.517,128.171,405.532,128.024,405.538,127.952Z" transform="translate(-361.229 -122.447)" fill="#fac600"/><path d="M300.7,282.35q11.9,0,23.792,0a1.213,1.213,0,0,1,.776.244c-4.264,3.344-8.625,6.565-12.911,9.884-.972.7-1.918,1.436-2.863,2.174q-4.354-3.4-8.794-6.7Q300.7,285.153,300.7,282.35Z" transform="translate(-273.944 -251.037)" fill="#fac600"/></g><g transform="translate(17.889 22.637)"><path d="M263.126,96.57a1.225,1.225,0,0,1,.375.89q.005,11.636,0,23.268a1.208,1.208,0,0,1-.326.92c-4.343-5.063-8.665-10.145-13.026-15.19C254.479,103.167,258.815,99.886,263.126,96.57Z" transform="translate(-226.209 -96.57)" fill="#fed402"/><path d="M106.985,98.053a1.144,1.144,0,0,1,.268-.773c.965.647,1.849,1.406,2.793,2.085,3.349,2.572,6.742,5.09,10.072,7.69-4.177,4.9-8.379,9.779-12.558,14.677a3.742,3.742,0,0,1-.4.365,1.558,1.558,0,0,1-.177-.778Q106.986,109.686,106.985,98.053Z" transform="translate(-106.98 -97.161)" fill="#fed402"/><path d="M371.98,130.213a1.081,1.081,0,0,1,.157-.773c.868.543,1.635,1.229,2.475,1.813,1.851,1.458,3.757,2.844,5.608,4.3q-4.033,4.738-8.1,9.453l-.127-.249C371.963,139.911,371.991,135.06,371.98,130.213Z" transform="translate(-327.665 -123.944)" fill="#fed402"/><path d="M468.3,130.817a9.01,9.01,0,0,1,1.861-1.247l.149.247v15.035a2.336,2.336,0,0,1-.227.365c-2.66-3.227-5.433-6.368-8.143-9.555C464.059,134.046,466.174,132.423,468.3,130.817Z" transform="translate(-402.584 -124.052)" fill="#fed402"/><path d="M383.331,283.81a1.158,1.158,0,0,1,.393.849c.008,5.823,0,11.643.005,17.466-.87,1.329-1.834,2.594-2.829,3.833-3.5-4.083-7.026-8.143-10.48-12.264C374.706,290.375,379.067,287.154,383.331,283.81Z" transform="translate(-326.368 -252.5)" fill="#fed402"/></g><g transform="translate(18.07 32.524)"><path d="M121.016,155.707c1.579,1.192,3.145,2.4,4.724,3.594a1.034,1.034,0,0,0,1.3.059c.662-.477,1.308-.98,1.948-1.487.93-.739,1.885-1.448,2.828-2.172,4.361,5.045,8.684,10.127,13.026,15.19-.2.274-.55.274-.853.289-1.234,0-2.468,0-3.7,0-.844,0-1.687-.008-2.53,0q-14.272.01-28.544.005a1.21,1.21,0,0,1-1.159-.44,3.74,3.74,0,0,0,.4-.365C112.637,165.486,116.839,160.608,121.016,155.707Z" transform="translate(-108.06 -155.7)" fill="#fee45a"/><path d="M380.938,166c1,.763,2,1.543,3.017,2.288a.727.727,0,0,0,.946-.107c.7-.532,1.4-1.047,2.077-1.607.247-.2.5-.393.761-.575,2.711,3.187,5.483,6.328,8.143,9.555-.184.241-.517.109-.768.144q-1.555,0-3.107,0c-6.319-.008-12.638.015-18.956-.01l-.212-.234Q376.9,170.739,380.938,166Z" transform="translate(-328.564 -164.278)" fill="#fee45a"/><path d="M301.5,342.925c1.558,1.2,3.13,2.383,4.692,3.578a1.074,1.074,0,0,0,1.364.07c.657-.478,1.306-.968,1.938-1.48.945-.737,1.891-1.472,2.863-2.174,3.453,4.12,6.981,8.18,10.48,12.264a31.683,31.683,0,0,1-3.053,3.266c-6.359-.033-12.722-.007-19.081-.013q-.008-7.3,0-14.6A6.8,6.8,0,0,0,301.5,342.925Z" transform="translate(-268.49 -311.614)" fill="#fee45a"/></g><g transform="translate(50.282 63.292)"><path d="M300.7,339.7a4.474,4.474,0,0,1,.8.543,6.8,6.8,0,0,1-.8.911C300.7,340.67,300.7,340.185,300.7,339.7Z" transform="translate(-300.698 -339.7)" fill="#fdd405"/></g></g></svg>