<svg xmlns="http://www.w3.org/2000/svg" width="116.756" height="80" viewBox="0 0 116.756 80"><g transform="translate(-1.08 -0.83)"><g transform="translate(24.212 12.032)"><path d="M415.613,87.822c.607-.066,1.211-.172,1.81-.292.036.465.057.93.057,1.4a4.5,4.5,0,0,1-1.761.163c-.167-.1-.315-.221-.473-.331A.846.846,0,0,1,415.613,87.822Z" transform="translate(-384.855 -87.53)" fill="#fff"/><path d="M515.35,102.3c.516-.3.691-.992,1.264-1.193.025.6.05,1.2.028,1.808a8.348,8.348,0,0,0-1.282-.358C515.358,102.5,515.353,102.367,515.35,102.3Z" transform="translate(-472.035 -99.355)" fill="#fff"/><path d="M435.436,170.057c.481-.47.585-1.173.974-1.707a4.71,4.71,0,0,1,.7,1.222c.074.239.317.342.516.459.539.072,1.084.079,1.624.147-.4.438-.9.793-1.265,1.266-.116.676.291,1.288.2,1.961a11.1,11.1,0,0,0-1.538-.771c-.41-.123-.746.185-1.087.354a3.439,3.439,0,0,1-.908.333,5.815,5.815,0,0,0,.274-1.963c-.412-.355-.937-.664-1.132-1.2A15.572,15.572,0,0,1,435.436,170.057Z" transform="translate(-401.013 -157.908)" fill="#fff"/><path d="M275.91,179.625a13.842,13.842,0,0,1,2.144.3,5.619,5.619,0,0,1-1,1.153A9.334,9.334,0,0,0,275.91,179.625Z" transform="translate(-263.532 -167.715)" fill="#fff"/><path d="M399.492,188.964c.318-.217.217-.8.686-.795a3.681,3.681,0,0,0,.447.917c.385.329.921.264,1.39.331-.292.253-.6.483-.877.757a8.209,8.209,0,0,0-.026,1.371,5.014,5.014,0,0,0-1.093-.514,6.312,6.312,0,0,0-1.091.514,8.264,8.264,0,0,1,.005-1.289,6.661,6.661,0,0,1-.844-.842C398.577,189.359,399.161,189.406,399.492,188.964Z" transform="translate(-369.926 -175.166)" fill="#fff"/><path d="M482.137,188.894a6.594,6.594,0,0,0,.534-.974c.5.093.461.658.752.976a3.982,3.982,0,0,0,1.158.314c-.177.357-.522.593-.717.93,0,.386.063.771.066,1.159a7.016,7.016,0,0,1-.991-.469c-.488-.052-.866.351-1.311.487.009-.4.1-.789.1-1.187a8.765,8.765,0,0,0-.833-.938C481.306,189.122,481.8,189.217,482.137,188.894Z" transform="translate(-442.028 -174.949)" fill="#fff"/><path d="M253.811,205.677c.211-.326.672-.19,1-.164.18.18.426.37.358.658a3.344,3.344,0,0,1-.574,1.284,6.1,6.1,0,0,0-1.411-.472A4.159,4.159,0,0,1,253.811,205.677Z" transform="translate(-243.739 -190.226)" fill="#fff"/><path d="M653.01,237.536c.4-.089.793-.225,1.19-.336a4.632,4.632,0,0,1,.311,1.982.719.719,0,0,1-1.2-.248C653.244,238.458,653.051,238.014,653.01,237.536Z" transform="translate(-591.909 -217.862)" fill="#fff"/><path d="M635.53,241.73a2.727,2.727,0,0,1,1.1-.306c.26-.068.331.236.432.4a3.957,3.957,0,0,1,.066,1.557c-.233.307-.606.278-.95.262A3.211,3.211,0,0,1,635.53,241.73Z" transform="translate(-576.687 -221.531)" fill="#fff"/><path d="M504.921,246.324a3.01,3.01,0,0,1,1.815.245,3.28,3.28,0,0,1,.789.882,7.834,7.834,0,0,1,.08,1.9,1.875,1.875,0,0,1-1.2,1.712,8.063,8.063,0,0,1-1.424.044c-.668.059-1.163-.514-1.461-1.041a6.167,6.167,0,0,1-.08-2.4c.036-.4.384-.652.636-.928a1.864,1.864,0,0,1,.849-.415m0,1.414a5.234,5.234,0,0,0-.034,1.733c.018.442.563.81.935.474a3.144,3.144,0,0,0,.035-2.549A.728.728,0,0,0,504.921,247.738Z" transform="translate(-461.591 -225.766)" fill="#fff"/><path d="M525.391,246.264c.461-.005.923-.006,1.385-.014a4.406,4.406,0,0,1-.669,1.5c-.788,1.2-1.349,2.535-2.013,3.808-.226.482-.6.873-.813,1.362-.488,1.03-1.045,2.025-1.548,3.047-.465,0-.929,0-1.393-.005a8.471,8.471,0,0,1,.89-2c.624-.879,1.018-1.888,1.561-2.815.367-.842.935-1.572,1.309-2.41C524.509,247.9,525.016,247.118,525.391,246.264Z" transform="translate(-476.381 -225.743)" fill="#fff"/><path d="M334.927,247.6a15.3,15.3,0,0,1,1.8-.013c.006,3.008-.012,6.016.009,9.024a5.511,5.511,0,0,1-1.854.1l-.169-.183c-.034-2.067-.008-4.137-.012-6.206a19.8,19.8,0,0,1-2.339,1.163c-.034-.561-.025-1.123-.006-1.684C333.34,249.268,334.6,248.773,334.927,247.6Z" transform="translate(-312.675 -226.886)" fill="#fff"/><path d="M388.52,247.65a5.553,5.553,0,0,1,1.382-.071,2.908,2.908,0,0,1,1.693.748,2.628,2.628,0,0,1,.839,1.417,10,10,0,0,1,.248,3.446,7.614,7.614,0,0,1-.54,2.2,3.129,3.129,0,0,1-1.653,1.45,8.328,8.328,0,0,1-1.948.006A3.257,3.257,0,0,1,386.453,254a11.673,11.673,0,0,1-.006-3.53,3.32,3.32,0,0,1,.659-1.848,5.131,5.131,0,0,1,1.415-.972m.419,1.465c-.744.74-.47,1.845-.64,2.775a17.778,17.778,0,0,0,.089,1.817,1.987,1.987,0,0,0,.579,1.55.876.876,0,0,0,1.252-.213,2.854,2.854,0,0,0,.379-1.468c-.008-1.078.036-2.158-.026-3.233a2.341,2.341,0,0,0-.6-1.265A1.375,1.375,0,0,0,388.939,249.115Z" transform="translate(-359.672 -226.893)" fill="#fff"/><path d="M447.084,247.609a3.436,3.436,0,0,1,3.116.491,2.894,2.894,0,0,1,.942,1.716,9.654,9.654,0,0,1,.212,2.875,5.892,5.892,0,0,1-.484,2.508,2.435,2.435,0,0,1-2.278,1.585,3.55,3.55,0,0,1-1.727-.209,2.829,2.829,0,0,1-1.446-1.717,6.048,6.048,0,0,1-.293-1.77,11.447,11.447,0,0,1,.221-3.371,2.726,2.726,0,0,1,1.738-2.107m1.014,1.3c-.561.071-.841.7-.84,1.215.023.329-.318.543-.279.871-.01.7-.03,1.4,0,2.1.018.4.274.744.3,1.146a1.347,1.347,0,0,0,.523.97,7.2,7.2,0,0,0,.944.005,2.061,2.061,0,0,0,.419-1.072c0-.5.358-.923.289-1.43a5.552,5.552,0,0,0-.2-2.2c-.159-.372-.014-.831-.3-1.156A.788.788,0,0,0,448.1,248.907Z" transform="translate(-410.871 -226.791)" fill="#fff"/><path d="M246.09,249.955c.717-.085,1.414-.269,2.125-.385a1.934,1.934,0,0,1-.3,1.3C247.3,250.583,246.683,250.286,246.09,249.955Z" transform="translate(-237.565 -228.634)" fill="#fff"/><path d="M651.28,281.392a11.15,11.15,0,0,1,1.673.345,2.817,2.817,0,0,1,.2.368,5.549,5.549,0,0,1-1.85.509C651.315,282.208,651.292,281.8,651.28,281.392Z" transform="translate(-590.402 -256.343)" fill="#fff"/><path d="M554.925,283.7a2.271,2.271,0,0,1,2.642,1.3,4.267,4.267,0,0,1-.3,2.721,2.388,2.388,0,0,1-3.348.289,3.14,3.14,0,0,1-.439-3.163,1.888,1.888,0,0,1,1.446-1.153m.3.916c-.51.559-.336,1.361-.346,2.049a.753.753,0,0,0,.643.826c.159-.127.419-.226.428-.461a10.992,10.992,0,0,0-.013-2.031A.751.751,0,0,0,555.221,284.617Z" transform="translate(-505.029 -258.301)" fill="#fff"/><path d="M466.35,411.353c.323,0,.647,0,.972-.005.088.632.013,1.27.059,1.9a2.378,2.378,0,0,0,.521-.348c.255-.491.355-1.143.892-1.419.291-.213.671-.114,1.005-.146.009.238.014.474.017.713l-.7.118a6.716,6.716,0,0,1-.65,1.424,4.828,4.828,0,0,1,1.171,1.914c.151-.045.3-.088.455-.13a7.465,7.465,0,0,1,.563-1.284c.38-.835.784-1.66,1.125-2.513.413-.05.99-.2,1.278.193a32.056,32.056,0,0,0,1.54,4.217,5.732,5.732,0,0,1-1.063,0,2.659,2.659,0,0,1-.46-1.03c-.6-.013-1.2-.031-1.8-.025a8.28,8.28,0,0,1-.388.987c-.693-.022-1.386,0-2.078-.054-.322-.172-.36-.583-.526-.876a2.321,2.321,0,0,0-.877-1.1c-.1.667.019,1.35-.138,2.012-.308-.012-.614-.019-.919-.017-.03-1.509-.019-3.021,0-4.53m5.739,1.512c-.074.463-.274.892-.379,1.346q.578.014,1.158-.01C472.533,413.779,472.762,412.965,472.09,412.865Z" transform="translate(-429.352 -369.502)" fill="#fff"/><path d="M379.394,413.26c.3.059.705-.114.906.171.026.853.09,1.7.187,2.551.209-.335.386-.691.619-1.012.413-.525.619-1.173,1-1.716.34,0,.678,0,1.017,0,.034,1.47.032,2.941.04,4.412-.257,0-.513.008-.769.022a10.63,10.63,0,0,1-.127-2.656c-.468.5-.69,1.164-1.109,1.7-.271.329-.394.773-.734,1.043a3.643,3.643,0,0,1-.888.052,2.865,2.865,0,0,1-.128-.721C379.41,415.821,379.389,414.541,379.394,413.26Z" transform="translate(-353.645 -371.165)" fill="#fff"/><path d="M413.767,412.631a19.112,19.112,0,0,1,3.31-.143c-.005,1.476.072,2.951.017,4.425-.3-.012-.6-.005-.9.013-.013-.57,0-1.138-.036-1.707a5.752,5.752,0,0,0-.65-.013,5.475,5.475,0,0,0-1.221,1.434c-.248.519-.932.31-1.382.273a6.069,6.069,0,0,1,1.37-1.857,1.912,1.912,0,0,1-.923-.631c-.222-.224-.115-.566-.138-.845-.053-.411.288-.7.558-.95m.495.77c0,.249,0,.5-.008.749a2.119,2.119,0,0,0,1.49.236c.349-.217.3-.7.364-1.054A5.581,5.581,0,0,0,414.262,413.4Z" transform="translate(-382.822 -370.501)" fill="#fff"/><path d="M530.505,413.3c.227.009.455.016.685.018.093.111.19.221.288.331a2.9,2.9,0,0,0-.2,1.421c-.031.238.186.375.332.523a4.215,4.215,0,0,0,1.251.056c.424-.618.209-1.4.326-2.094.331.009.661.019.994.027.036.592-.216,1.147-.19,1.739a11.208,11.208,0,0,1-.267,2.66c-.291,0-.58-.008-.868-.012.036-.556.052-1.112.061-1.669-.784.017-1.791.269-2.373-.406C529.921,415.146,530.446,414.149,530.505,413.3Z" transform="translate(-485.003 -371.209)" fill="#fff"/><path d="M345.68,414.458c1.142-.016,2.286-.088,3.429-.041-.022.256.1.575-.136.761a4.049,4.049,0,0,0-1.193.14,27.8,27.8,0,0,0,.163,3.523,2.268,2.268,0,0,1-1.158-.044c.052-1.171-.085-2.337-.107-3.505-.437,0-.872.005-1.308,0C345.395,415,345.175,414.389,345.68,414.458Z" transform="translate(-323.994 -372.168)" fill="#fff"/><path d="M311.525,415.479a3.311,3.311,0,0,1,.882-.016c.271.507.076,1.134.152,1.693.534-.018,1.07.008,1.6-.028l.176-.169a8.314,8.314,0,0,1-.1-1.632q.512-.016,1.026-.017c-.027,1.47.068,2.934.134,4.4-.3.005-.6.014-.9.031-.03-.539,0-1.079-.045-1.615l-.167-.174c-.571-.049-1.146,0-1.717,0-.041.662.14,1.314.068,1.976a4.549,4.549,0,0,1-.88-.025c-.187-.672-.052-1.38-.2-2.058C311.489,417.058,311.511,416.266,311.525,415.479Z" transform="translate(-294.532 -372.959)" fill="#fff"/><path d="M565.779,416.71c.469.017.933.092,1.4.087a15.131,15.131,0,0,1,2.054.284c-.018.244-.032.488-.041.735-.892.124-1.738-.333-2.628-.2,0,.332,0,.664.009,1,.733,0,1.465.039,2.2.037.008.249.014.5.017.751-.767-.006-1.53-.094-2.3-.1-.014.368-.034.736-.056,1.1.857-.05,1.669.273,2.525.279-.013.239-.021.479-.023.72-1.187.182-2.339-.273-3.521-.231.03-1.084.072-2.168.142-3.25A7.67,7.67,0,0,0,565.779,416.71Z" transform="translate(-515.636 -374.178)" fill="#fff"/><path d="M274.309,418.538a3.506,3.506,0,0,1,.411-1.218c.327.019.655.016.982,0,.559.978,1.005,2.017,1.584,2.985.174.488.627.851.673,1.382-.37.006-.738.009-1.1.017-.138-.286-.278-.57-.4-.862-.61-.025-1.218.013-1.827.044a4.383,4.383,0,0,1-.376,1.049,6.4,6.4,0,0,1-.995.035c.329-1.151.722-2.283,1.049-3.434m.518,1.41,1-.045a3.213,3.213,0,0,0-.541-1.249A12.118,12.118,0,0,0,274.827,419.948Z" transform="translate(-261.225 -374.709)" fill="#fff"/><path d="M598.693,421.3a2.234,2.234,0,0,1,3.372.01,5.715,5.715,0,0,1,.309.567c-.155.38-.587.349-.926.363a4.809,4.809,0,0,0-.465-.746,2.534,2.534,0,0,0-1.106-.039,1.747,1.747,0,0,0-.633,1.053,1.454,1.454,0,0,0,.578,1.737c.367.023.854.147,1.11-.2a1.177,1.177,0,0,0,.288-.574c.311.081.6.218.913.31a1.676,1.676,0,0,1-.923,1.234,5.967,5.967,0,0,1-1.9-.018,2.471,2.471,0,0,1-1.138-1.583A3.147,3.147,0,0,1,598.693,421.3Z" transform="translate(-544.134 -377.507)" fill="#fff"/><path d="M241.47,422.227c.888-.2,1.78-.348,2.667-.547.6.173,1.24.632,1.2,1.33a1.247,1.247,0,0,1-.756,1.373,8.559,8.559,0,0,1-1.53.385,3.052,3.052,0,0,1,.385,1.69c-.292.057-.588.094-.882.124-.295-.411-.235-.934-.382-1.4-.251-.983-.419-1.985-.7-2.96m1.3.487a5.884,5.884,0,0,0,.08,1.186,3.858,3.858,0,0,0,1.466-.362,1.826,1.826,0,0,0-.156-.858C243.7,422.687,243.238,422.693,242.775,422.714Z" transform="translate(-233.542 -378.506)" fill="#fff"/><path d="M633.741,423.27c.612.019,1.227.008,1.839.05a10.7,10.7,0,0,0,1.9.244c0,.255,0,.508.006.764-.488.014-.977.005-1.464.009-.063.748-.119,1.5-.14,2.248a6.509,6.509,0,0,0-.361,1.35,1.532,1.532,0,0,1-.935-.315c.31-.921.079-1.925.4-2.844a5.508,5.508,0,0,0,.03-.684c-.43-.008-.861-.022-1.291-.035Q633.73,423.663,633.741,423.27Z" transform="translate(-575.111 -379.891)" fill="#fff"/><path d="M663.8,427.344a8.175,8.175,0,0,1,2.9.328,1.068,1.068,0,0,1,.656,1.165c0,.4-.322.655-.578.912a3.57,3.57,0,0,1,.478.45,1.51,1.51,0,0,1-.221,1.331c-.531.652-1.464.508-2.19.346a5.844,5.844,0,0,0-1.642-.16,3.364,3.364,0,0,1,.123-1.213c.212-.592-.008-1.275.327-1.826a3.256,3.256,0,0,0,.147-1.333m.892.813c-.022.3-.047.594-.071.893a6.992,6.992,0,0,0,1.514.072c.149-.133.27-.292.4-.438a2.581,2.581,0,0,0-1.848-.527m-.085,1.722a3.077,3.077,0,0,0-.257,1.061c.536.063,1.11.415,1.638.178.381-.159.242-.6.255-.921A5.273,5.273,0,0,0,664.608,429.879Z" transform="translate(-600.786 -383.426)" fill="#fff"/><path d="M212.023,431.681c.264-.372.818-.3,1.2-.225.717.835,1.326,1.758,2.091,2.549.255.411.7.739.729,1.255-.353.019-.707.04-1.059.067-.212-.234-.367-.54-.66-.682a7.633,7.633,0,0,0-1.671.421c0,.3,0,.6,0,.9a2.809,2.809,0,0,1-1.035.386,9.443,9.443,0,0,1,.227-2.479,19.367,19.367,0,0,1,.176-2.191m.752.941c-.014.461-.028.924-.065,1.385.381-.013.764-.04,1.143-.074C213.558,433.445,213.331,432.87,212.775,432.622Z" transform="translate(-207.548 -386.967)" fill="#fff"/><path d="M695.356,433.446c.319-.137.7,0,1.049-.036a6.9,6.9,0,0,1,.519,1.773,27.646,27.646,0,0,1,.6,2.881,4.127,4.127,0,0,1-.994-.083,8.636,8.636,0,0,0-.167-.915,3.254,3.254,0,0,0-1.965-.308,1.3,1.3,0,0,1-.488.774c-.353.012-.7-.016-1.056-.034a9.324,9.324,0,0,1,.917-1.592c.59-.778.924-1.729,1.579-2.461m-.362,2.5a3.263,3.263,0,0,0,1.115-.052c-.313-.376-.251-.885-.336-1.335A3.1,3.1,0,0,0,694.994,435.945Z" transform="translate(-626.61 -388.697)" fill="#fff"/><path d="M180.11,436.9c1.12-.151,2.149-.771,3.3-.7-.006.258-.014.517-.034.777a9.237,9.237,0,0,0-1.951.452c.229,1.217.8,2.346.991,3.575a3.321,3.321,0,0,1-.9.2c-.235-.928-.712-1.762-.939-2.69A13.58,13.58,0,0,1,180.11,436.9Z" transform="translate(-180.11 -391.141)" fill="#fff"/></g><g transform="translate(1.08 0.83)"><path d="M189.36,2.39c.435-.527.888-1.04,1.333-1.56a11.288,11.288,0,0,1,1.566,1.557.354.354,0,0,0,.545-.05A10.494,10.494,0,0,0,194.317.888c.446.536.823,1.127,1.275,1.658a.5.5,0,0,0,.656.152c.583-.406,1.125-.867,1.673-1.319A14.049,14.049,0,0,1,199.2,3.541a19.9,19.9,0,0,0,2.246-1.353,11.427,11.427,0,0,0,.857,1.628,2,2,0,0,1,.224.5c.793.008,1.345-.735,2.116-.832a.359.359,0,0,1,.454.288c.19.578.421,1.14.638,1.708a8.568,8.568,0,0,0,2.131-.672c.4-.109.5.408.549.7.19.5.18,1.138.717,1.41a10.407,10.407,0,0,1,2.309-.616c.032.815.36,1.579.379,2.4a8.31,8.31,0,0,1,1.213-.271c.473-.008.9-.238,1.375-.266,0,.766.057,1.53.081,2.295a10.49,10.49,0,0,0,1.381-.04,10.023,10.023,0,0,1,1.218-.2c.018.868-.021,1.738.031,2.6a4.524,4.524,0,0,1,1.261-.1c.4.134.8-.063,1.208-.094a9.978,9.978,0,0,1-.2,2.392c.882.138,1.779.075,2.669.13a7.726,7.726,0,0,0-.3,1.571,3.039,3.039,0,0,0-.181.988c.836-.065,1.61.339,2.443.3a8.155,8.155,0,0,1-.576,2.218c.318.386.84.269,1.264.419a4.6,4.6,0,0,0,1.227.2c-.168.866-.721,1.614-.832,2.495.774.177,1.491.549,2.274.7a6.5,6.5,0,0,1-.872,1.8.6.6,0,0,0-.076.447,23.4,23.4,0,0,1,2.1,1.04,8.612,8.612,0,0,1-1.207,1.87,7.641,7.641,0,0,0,2.218,1.239,2.46,2.46,0,0,1-.8,1.1,6.012,6.012,0,0,0-.725,1.036,8.728,8.728,0,0,0,2.074,1.194,7.145,7.145,0,0,1-1.73,1.89c.615.572,1.3,1.072,1.939,1.616a11.407,11.407,0,0,1-1.885,1.7,11.967,11.967,0,0,1,1.774,1.687,8.992,8.992,0,0,1-1.81,1.434.419.419,0,0,0,.146.491c.444.423.866.87,1.284,1.319l-.052.269a23.386,23.386,0,0,0-2.071,1.252A12.746,12.746,0,0,0,228.862,47c.2.15.114.422.114.636a4.1,4.1,0,0,0-2.009.868c.214.795.861,1.4,1,2.218-.514.169-1,.4-1.513.588a1.454,1.454,0,0,0-.581.326c-.012.159-.005.319,0,.479-.857-.39-1.817-.456-2.664-.862a21.762,21.762,0,0,0,1.078-2.717,22.189,22.189,0,0,0,1.34-4.691,7.469,7.469,0,0,1,.261-1.557,13.034,13.034,0,0,1,.238-2.446c.066-1.235.049-2.477.012-3.713a15.492,15.492,0,0,1-.258-2.565,5.022,5.022,0,0,1-.239-1.463,22.21,22.21,0,0,0-1.529-5.222,24.125,24.125,0,0,0-1.641-3.818c-.738-1.165-1.323-2.429-2.142-3.544a17.32,17.32,0,0,1-1.465-1.9,9.756,9.756,0,0,0-.979-1.191,30.027,30.027,0,0,0-2.257-2.277c-.858-.6-1.526-1.43-2.4-2.017-.612-.407-1.116-.955-1.742-1.342-1.372-.888-2.808-1.669-4.228-2.479a42.088,42.088,0,0,0-7.274-2.749,14.731,14.731,0,0,1-1.917-.353c-.437-.127-.907-.08-1.337-.235-.548-.189-1.141-.094-1.7-.229a5.656,5.656,0,0,0-1.382-.168c-2.286-.061-4.575-.09-6.858.045-.478.01-.923.226-1.4.212-.73,0-1.415.274-2.138.339a15.589,15.589,0,0,1-2,.377,40.031,40.031,0,0,0-8.4,3.331c-.756.434-1.494.9-2.265,1.309-.557.329-1.048.758-1.593,1.106-.69.433-1.239,1.047-1.9,1.512-.881.6-1.51,1.492-2.384,2.1a7.806,7.806,0,0,0-1.119,1.225c-.616.722-1.279,1.406-1.844,2.169-.4.583-.824,1.151-1.217,1.74a22.27,22.27,0,0,0-2.212,3.9,15,15,0,0,0-1.482,3.433c-.273.851-.549,1.707-.778,2.571-.3.45-.229,1.01-.419,1.5-.12.4-.085.828-.2,1.23-.287.841-.083,1.76-.351,2.6a41.042,41.042,0,0,0,0,5.451c.267.862.072,1.795.389,2.646.054.718.282,1.4.39,2.111a11.241,11.241,0,0,1,.571,1.846,32.366,32.366,0,0,0,1.6,4.182,13.686,13.686,0,0,1-1.751.519,2.4,2.4,0,0,1-.713.036c.083-.149.167-.3.243-.447-.756-.324-1.508-.668-2.292-.92.03-.088.09-.265.121-.354.457-.563.673-1.274,1.1-1.858a9.7,9.7,0,0,0-1.457-.68,2.574,2.574,0,0,1-.8-.439,13.7,13.7,0,0,0,1.249-1.963,8.573,8.573,0,0,0-1.876-1.251c-.01-.067-.032-.2-.043-.271.454-.588,1.145-1,1.4-1.725a12.375,12.375,0,0,0-1.631-1.231c-.162-.065-.2-.236-.264-.379a10.973,10.973,0,0,0,1.758-1.594,18.1,18.1,0,0,0-1.711-1.461c-.014-.059-.044-.18-.059-.239a16.906,16.906,0,0,0,1.815-1.606c-.249-.26-.461-.55-.7-.819-.288-.336-.687-.606-.791-1.062a16.652,16.652,0,0,0,1.8-1.162c-.226-.85-1.05-1.353-1.354-2.168a15.606,15.606,0,0,0,1.651-.871,1.741,1.741,0,0,0,.525-.4,12.051,12.051,0,0,1-1.271-1.724.939.939,0,0,1,.4-.367,11.287,11.287,0,0,0,1.883-.9c-.451-.659-.715-1.421-1.12-2.106a17.026,17.026,0,0,1,2.262-.693,2.16,2.16,0,0,0-.446-1.482,1.9,1.9,0,0,1-.231-1.074,16.149,16.149,0,0,0,2.238-.388c.094-.859-.428-1.606-.553-2.436a5.9,5.9,0,0,0,1.416-.132A4.042,4.042,0,0,1,159.9,17.7c.107-.886-.435-1.694-.256-2.584a16.789,16.789,0,0,0,2.472-.1,5.779,5.779,0,0,1-.284-2.388,3.1,3.1,0,0,0,1.145.085,1.917,1.917,0,0,1,1.008.128,13.42,13.42,0,0,0,.13-2.641,4.07,4.07,0,0,1,.941.142,8.561,8.561,0,0,0,1.627.134c.145-.224.4-.413.394-.7.018-.532.019-1.066.05-1.6a2.608,2.608,0,0,1,.649.072c.652.207,1.342.248,2,.452-.012-.813.41-1.556.323-2.377.917.008,1.733.58,2.656.557a12.643,12.643,0,0,1,.6-2.1c.84.006,1.5.618,2.323.718a9.689,9.689,0,0,0,1.048-2.221c.479.28.983.517,1.478.771a1.86,1.86,0,0,0,.8.279,22.618,22.618,0,0,0,1.047-2.067,11.563,11.563,0,0,1,2.206,1.274,15.035,15.035,0,0,0,1.333-2.1,22.921,22.921,0,0,1,1.986,1.483c.668-.482.885-1.4,1.622-1.8.065.009.193.027.257.035.5.388.882.9,1.376,1.293C188.993,2.5,189.233,2.557,189.36,2.39Z" transform="translate(-131.899 -0.83)" fill="#ff254c"/><path d="M215.537,33.988a9.26,9.26,0,0,1,2.07-.213c1.5-.006,2.995-.04,4.489.072,1.384.32,2.846.141,4.221.54.944.123,1.842.451,2.768.662a31.746,31.746,0,0,1,5.735,2.177,25.6,25.6,0,0,1,2.628,1.385A16.065,16.065,0,0,1,240.03,40.2c.658.393,1.167.979,1.8,1.411.817.549,1.423,1.345,2.211,1.929a28.322,28.322,0,0,1,2.762,2.914c.558.743,1.093,1.5,1.636,2.259a17.863,17.863,0,0,1,1.943,3.23c.266.674.774,1.22,1.019,1.9a37.182,37.182,0,0,1,1.293,3.642,8.419,8.419,0,0,0,.438,1.216c.26.894.36,1.827.592,2.728a7.006,7.006,0,0,0,.249,1.7,45.577,45.577,0,0,1,.062,5.412,9.332,9.332,0,0,1-.133,1.742c-.163.6-.084,1.244-.269,1.841-.132.45-.121.928-.28,1.371a2.944,2.944,0,0,0-.149.965l-.251,0a6.8,6.8,0,0,1-.566,2.251c-.354,1.021-.712,2.043-1.149,3.032a1.468,1.468,0,0,1-1.1-.342,21.681,21.681,0,0,0,1.815-4.663c.269-.892.379-1.815.612-2.713a7.013,7.013,0,0,1,.248-1.571c.054-.892.1-1.784.115-2.677-.008-.412.289-.765.266-1.18-.016-.364-.247-.682-.264-1.045-.019-.929-.056-1.858-.119-2.783a7.627,7.627,0,0,1-.271-1.673c-.208-.506-.164-1.069-.341-1.581a25.089,25.089,0,0,0-1.143-3.748c-.482-.893-.752-1.881-1.249-2.766a16.146,16.146,0,0,0-1.351-2.379,13.311,13.311,0,0,0-2.084-2.967c-.634-.782-1.235-1.6-1.914-2.341a26.413,26.413,0,0,0-2.583-2.333,21.749,21.749,0,0,1-1.684-1.417c-.894-.545-1.691-1.233-2.587-1.774-.6-.309-1.146-.708-1.761-.982-1.1-.419-2.088-1.089-3.208-1.466a31.69,31.69,0,0,0-5.739-1.795,19.388,19.388,0,0,0-3.613-.563,13.277,13.277,0,0,0-1.685-.235c-1.725-.017-3.451-.04-5.175.018-.8.132-1.614.208-2.423.291-.724.229-1.494.169-2.212.413a33.719,33.719,0,0,0-7.188,2.35c-.716.293-1.353.751-2.085,1.007a15.92,15.92,0,0,0-2.168,1.248c-1.044.6-1.926,1.43-2.926,2.094a6.373,6.373,0,0,0-.824.715c-.505.492-1.123.854-1.607,1.371a29.326,29.326,0,0,0-3.141,3.57,14.865,14.865,0,0,0-2.477,3.756,8.5,8.5,0,0,1-.572.947,26.831,26.831,0,0,0-1.972,4.779,13.111,13.111,0,0,0-.871,3.085c-.2.557-.11,1.168-.309,1.726a19.567,19.567,0,0,0-.187,2.022,12.992,12.992,0,0,0-.154,1.943,17.664,17.664,0,0,0,.052,2.14c.286,1.1.021,2.26.384,3.344.052.727.295,1.415.379,2.137a16.469,16.469,0,0,0,.592,2.08c.432.827.631,1.748,1,2.6a6.814,6.814,0,0,1,.566,1.572c-.32.031-.637.087-.954.134a9.4,9.4,0,0,0-.681-1.528c-.362-.727-.539-1.527-.842-2.279a38.4,38.4,0,0,1-1.054-4.381,2.5,2.5,0,0,0-.27-1.231,22.772,22.772,0,0,1-.154-2.771,8.251,8.251,0,0,1,.027-3.366,5.808,5.808,0,0,1,.34-2.535,6.526,6.526,0,0,1,.277-1.593,11.923,11.923,0,0,1,.4-1.981,23.71,23.71,0,0,1,1.539-4.26c.186-.417.364-.839.579-1.243a17.494,17.494,0,0,1,1.654-3c.314-.435.563-.911.841-1.37.7-1.016,1.553-1.9,2.284-2.893.5-.668,1.155-1.187,1.7-1.815.415-.39.827-.786,1.27-1.143.839-.571,1.487-1.376,2.339-1.932a17.207,17.207,0,0,1,3.22-2.092,31.606,31.606,0,0,1,6.305-2.943,45,45,0,0,1,5.33-1.486C213.461,34.152,214.5,34.037,215.537,33.988Z" transform="translate(-160.509 -29.51)" fill="#ff254c"/><path d="M227.308,45.783a15.353,15.353,0,0,0,2.49-.248c1.12-.049,2.244-.022,3.366-.017a21.384,21.384,0,0,0,2.582.245c.616-.031,1.189.253,1.8.267a34.414,34.414,0,0,1,8.424,2.6c.765.379,1.578.651,2.319,1.081a30.5,30.5,0,0,1,3.858,2.574c.734.455,1.339,1.072,2.022,1.592a25.344,25.344,0,0,1,2.3,2.235,23.86,23.86,0,0,1,1.959,2.29,17.356,17.356,0,0,1,2.513,3.848,22.976,22.976,0,0,1,2.324,5.167,13.982,13.982,0,0,1,.876,2.884c.163.491.115,1.026.3,1.513.145.615.081,1.261.212,1.881a8.209,8.209,0,0,1,.147,1.976c.1,1.335-.019,2.672-.049,4.007a11.722,11.722,0,0,0-.271,2.038c-.217.571-.18,1.2-.381,1.774a26.537,26.537,0,0,1-.662,2.6c-.612,1.1-.882,2.346-1.455,3.465a6.687,6.687,0,0,0-1.081-.208c-.058-.434.271-.74.433-1.1a24.114,24.114,0,0,0,1.611-5.3c.252-.606.109-1.306.457-1.881.147-.651.017-1.341.171-2a16.319,16.319,0,0,0,.138-3.228,17.652,17.652,0,0,1-.244-2.685,1.763,1.763,0,0,0-.247-.764,24.779,24.779,0,0,0-1.279-5.212,11.18,11.18,0,0,0-.95-2.252c-.3-.549-.482-1.158-.8-1.7a16.277,16.277,0,0,0-1.415-2.328,27.146,27.146,0,0,0-1.764-2.473A10.7,10.7,0,0,1,255.7,57c-.384-.384-.735-.8-1.15-1.153-.74-.636-1.355-1.408-2.136-2-.991-.594-1.849-1.388-2.872-1.934a29.817,29.817,0,0,0-3.632-2.085,14.112,14.112,0,0,0-2.442-.979,41.32,41.32,0,0,0-6.181-1.733,6.148,6.148,0,0,1-1.24-.165,19.342,19.342,0,0,0-2.371-.2,19.034,19.034,0,0,0-2.848-.107c-.957-.041-1.886.234-2.844.176a15.135,15.135,0,0,0-2.066.288,31.944,31.944,0,0,0-4.141,1.016c-1.019.2-1.924.76-2.945.954a39.268,39.268,0,0,0-8.49,5.065,17.176,17.176,0,0,0-1.729,1.645,20.093,20.093,0,0,0-1.543,1.552c-.506.694-1.127,1.292-1.676,1.95-.628.822-1.142,1.722-1.686,2.6a17.915,17.915,0,0,0-2.136,4.368c-1.168,2.19-1.412,4.694-1.908,7.083-.087,2.288-.076,4.579-.014,6.866.012.614.275,1.189.274,1.8a36.581,36.581,0,0,0,.928,3.871,5,5,0,0,0,.406,1.038c.442.722.6,1.571.988,2.322a1.067,1.067,0,0,1,.094.711c-.386.016-.889.067-1.079-.355a31.274,31.274,0,0,1-1.957-5.823,3.312,3.312,0,0,1-.345-1.344,5.874,5.874,0,0,1-.257-1.535,7.828,7.828,0,0,1-.217-2.118c0-.99-.056-1.979-.01-2.969a11.448,11.448,0,0,1,.218-2.9,12.85,12.85,0,0,1,.19-1.408c.182-.492.088-1.058.4-1.505a27.423,27.423,0,0,1,1.417-4.518,9.547,9.547,0,0,1,.831-1.818c.623-1.131,1.171-2.305,1.877-3.388a43.263,43.263,0,0,1,2.747-3.446c.6-.61,1.081-1.326,1.727-1.889a17.188,17.188,0,0,1,1.454-1.292c1.088-.78,2.076-1.7,3.206-2.421.757-.444,1.45-1,2.247-1.379a15.6,15.6,0,0,1,1.646-.849c.973-.335,1.857-.888,2.844-1.185a29.587,29.587,0,0,1,4.277-1.335c.651-.2,1.342-.186,1.988-.416A8.374,8.374,0,0,0,227.308,45.783Z" transform="translate(-172.957 -39.734)" fill="#ff254c"/><path d="M408.07,81.559a10.274,10.274,0,0,1,2.651-.234,8.161,8.161,0,0,1,.127,1.536c-.031.627.227,1.218.252,1.84.021.512.013,1.023.048,1.535-.3.012-.6.014-.9,0a12.565,12.565,0,0,0-.233-1.9c-.3-.2-.7.062-.994.2-.628.5-.767,1.361-1.257,1.967a2.593,2.593,0,0,1-1.222.233,8.412,8.412,0,0,1,1.534-2.408,2,2,0,0,1-1.279-.481,1.558,1.558,0,0,1-.3-1.235,1.694,1.694,0,0,1,1.579-1.059m-.1.848a.846.846,0,0,0-.367.937c.158.11.306.234.473.331a4.5,4.5,0,0,0,1.761-.163c0-.466-.021-.932-.057-1.4C409.176,82.235,408.573,82.341,407.965,82.406Z" transform="translate(-354.076 -70.912)" fill="#ff254c"/><path d="M468.079,81.52c.32-.006.641,0,.963.005.035.8-.128,1.6-.072,2.4.774-.328.938-1.227,1.465-1.8a1.749,1.749,0,0,1,1.348-.349c0,.257,0,.513,0,.769a1.644,1.644,0,0,0-.88.16,9.478,9.478,0,0,1-.952,1.47,10.077,10.077,0,0,1,1.373,2.567c.757-.757,1.306-1.689,2.074-2.436a19.763,19.763,0,0,0,1.4-1.676,2.886,2.886,0,0,0,1.043.22c.043.376.03.758.1,1.133a18.98,18.98,0,0,1,.249,3.005,4.625,4.625,0,0,1,.173,1.3,8.131,8.131,0,0,1-1.116-.314,10.693,10.693,0,0,0-.089-1.2c-.588-.208-1.185-.385-1.774-.584-.627-.212-.66.751-1.177.88-.693-.159-1.415-.156-2.1-.373a8.6,8.6,0,0,0-.9-2.238q-.264,0-.527-.012a6.961,6.961,0,0,1-.323,2.16,5.787,5.787,0,0,1-.837-.208c.068-.584.068-1.174.149-1.756a7.3,7.3,0,0,0,.214-1.872c0-.424.169-.824.2-1.246m5.62,3.721.01.257a8.348,8.348,0,0,1,1.282.358c.022-.6,0-1.205-.028-1.808C474.391,84.249,474.215,84.939,473.7,85.241Z" transform="translate(-407.254 -71.092)" fill="#ff254c"/><path d="M363.255,87.614a2.772,2.772,0,0,1,.969-.314c.495,1.362.943,2.749,1.432,4.12.043.269.168.656-.15.8-.194.019-.388.031-.581.036a4.934,4.934,0,0,0-.579-1.808,7.785,7.785,0,0,0-.495-1.106,30.708,30.708,0,0,0-.861,3.093c-.025.178-.043.358-.052.539a4.716,4.716,0,0,0-1,.359c-.541-1.172-.819-2.446-1.295-3.645-.158-.386-.277-.787-.416-1.18a3.149,3.149,0,0,1,1.028-.132,9.465,9.465,0,0,0,.69,2.326c.11.178.11.57.4.514C362.72,90.035,362.969,88.819,363.255,87.614Z" transform="translate(-313.826 -76.128)" fill="#ff254c"/><path d="M545.647,99.96a2.359,2.359,0,0,1,.788.36c-.04.713-.729,1.154-.858,1.83-.068.292.177.485.38.642a2.449,2.449,0,0,0,1.412.477c.289-.645.708-1.224.973-1.88a2.027,2.027,0,0,1,.99.381c-.9,1.41-1.646,2.907-2.468,4.362a6.912,6.912,0,0,1-.964-.386,4.182,4.182,0,0,0,.8-1.849,2.581,2.581,0,0,1-1.855-1.028c-.152-.257-.447-.486-.388-.817A22,22,0,0,0,545.647,99.96Z" transform="translate(-474.243 -87.152)" fill="#ff254c"/><path d="M320.06,105.1a24.8,24.8,0,0,1,3.623-1.91,5.2,5.2,0,0,0,.49.509,14.119,14.119,0,0,1-1.323.616c-.031.066-.093.2-.123.261a19.625,19.625,0,0,1,1.6,2.421c.217.441.7.823.565,1.363-.248.026-.522.235-.755.143-.444-.567-.72-1.247-1.156-1.82-.438-.53-.667-1.2-1.128-1.711-.389.24-.757.514-1.159.733C320.347,105.7,320.241,105.328,320.06,105.1Z" transform="translate(-278.846 -89.965)" fill="#ff254c"/><path d="M569.364,127.228c.609-.665,1.222-1.328,1.858-1.968a.667.667,0,0,1,.752.182c.743.765,1.563,1.451,2.313,2.206a5.654,5.654,0,0,0-.618.443c-.629-.516-1.194-1.1-1.786-1.656-.54-.251-.894.415-1.118.8a11.787,11.787,0,0,1,1.764,1.479c.159.328-.2.509-.394.7-.432-.426-.954-.752-1.353-1.213-.181-.18-.373-.483-.671-.379a6.273,6.273,0,0,1-.981.89c.023.061.07.18.094.24a4.572,4.572,0,0,1,1.248.981c.275.282.663.513.7.945-.169.127-.333.26-.488.4a38.463,38.463,0,0,0-2.866-2.575C568.321,128.2,568.815,127.683,569.364,127.228Z" transform="translate(-494.594 -109.148)" fill="#ff254c"/><path d="M288.48,127.38l.4-.01c.393.424.808.829,1.213,1.243.65.7,1.5,1.171,2.116,1.9.034.128.062.256.085.386-.205.165-.4.478-.7.349-.485-.456-.978-.9-1.5-1.317l-.127.005c-.444.375-.8.846-1.265,1.2a2.293,2.293,0,0,0,.052.363c.433.519,1.066.867,1.375,1.487-.221.173-.366.5-.684.495-1.3-1.1-2.47-2.35-3.79-3.432a1.426,1.426,0,0,1,.8-.53c.642.189.862,1.07,1.536,1.149a15.6,15.6,0,0,1,1.558-1.284,17.1,17.1,0,0,0-1.286-1.163c-.152-.092-.156-.275-.2-.429A5.493,5.493,0,0,0,288.48,127.38Z" transform="translate(-248.882 -111.02)" fill="#ff254c"/><path d="M312.734,137.828a9.674,9.674,0,0,1,2.287-.158,10.994,10.994,0,0,1,2.622.185c.362.1.743.052,1.109.124,1.027.256,2.063.47,3.1.7a19.455,19.455,0,0,1,4.618,2.191,13.48,13.48,0,0,1,1.748,1.22,22.242,22.242,0,0,1,2.97,2.844,28.427,28.427,0,0,1,2.457,3.487,20.393,20.393,0,0,1,1.674,4.715,8.877,8.877,0,0,1,.216,1.32,8.66,8.66,0,0,1,.2,2.383,16.467,16.467,0,0,1-.129,2.788c-.2.548-.1,1.154-.319,1.7a18.958,18.958,0,0,1-.99,3.158,8.918,8.918,0,0,1-1.106,2.119,14.127,14.127,0,0,1-.876,1.251,7.236,7.236,0,0,1-.836-.1c.306-.389.6-.787.882-1.194.432-.7.716-1.482,1.164-2.175A23.1,23.1,0,0,0,334.6,161.2a7.155,7.155,0,0,1,.265-1.411,34.356,34.356,0,0,0-.012-5.53c-.2-.527-.173-1.106-.389-1.627a19.6,19.6,0,0,0-.9-2.759c-.625-1.081-1.189-2.2-1.893-3.235-.773-.947-1.594-1.853-2.367-2.8a3.415,3.415,0,0,0-.709-.474c-.53-.371-.955-.875-1.509-1.215a20.414,20.414,0,0,0-2.41-1.479c-.633-.284-1.229-.647-1.885-.875a16.082,16.082,0,0,0-3.255-.952,10.834,10.834,0,0,0-2.58-.332,32.986,32.986,0,0,0-5.691.174c-.746.2-1.5.371-2.239.579a23.369,23.369,0,0,0-3.644,1.571,23.137,23.137,0,0,0-3,1.956,18.5,18.5,0,0,0-1.525,1.317,24.255,24.255,0,0,0-2.6,3.191,13.9,13.9,0,0,0-1.441,2.653,12.605,12.605,0,0,1-.724,1.748,15.467,15.467,0,0,0-.645,3.425,11.728,11.728,0,0,0,0,3.929,6.763,6.763,0,0,0,.275,1.912,12.862,12.862,0,0,0,.822,2.527,14.308,14.308,0,0,0,1.624,3.327c.341.348.6.758.906,1.137-.008.074-.026.22-.034.293a2.435,2.435,0,0,1-.968-.022,16.577,16.577,0,0,1-1.756-2.872,10.655,10.655,0,0,1-1.079-2.625,9.733,9.733,0,0,1-.581-2.678,8.65,8.65,0,0,1-.243-1.663,16.646,16.646,0,0,1,.216-4.043c.047-.279.034-.565.1-.84a25.335,25.335,0,0,1,1.116-3.625,3.713,3.713,0,0,0,.264-.859l.145.212a6.093,6.093,0,0,1,.6-1.252,15.1,15.1,0,0,1,1.806-2.619,10.467,10.467,0,0,1,1.709-1.9c.66-.45,1.143-1.109,1.809-1.553.722-.488,1.433-1,2.177-1.452a25.418,25.418,0,0,1,4.095-1.82,13.363,13.363,0,0,0,1.371-.3c.435-.168.92-.106,1.354-.279C311.676,137.872,312.226,137.988,312.734,137.828Z" transform="translate(-256.501 -119.99)" fill="#ff254c"/><path d="M322.483,147.685a8.344,8.344,0,0,0,1.977-.231,23.072,23.072,0,0,1,2.429-.021,9.741,9.741,0,0,0,2.084.243A25.511,25.511,0,0,1,333.542,149c.616.28,1.2.621,1.809.924a26.81,26.81,0,0,1,2.694,1.764,21.94,21.94,0,0,1,1.748,1.5c.8.8,1.39,1.786,2.128,2.644a12.436,12.436,0,0,1,1.738,3.33,9.049,9.049,0,0,0,.466,1.026,12.364,12.364,0,0,1,.641,2.938,14.938,14.938,0,0,1,.155,4.213c-.231.694-.129,1.45-.4,2.134a5.05,5.05,0,0,1-.4,1.464c-.407.753-.6,1.6-1,2.359a7.922,7.922,0,0,1-1.9,2.792c-2.237.013-4.472-.118-6.71-.121a6.97,6.97,0,0,0-.9-.145c-4.3,0-8.609-.04-12.911.028a12.14,12.14,0,0,1-2.335.183,17.974,17.974,0,0,0-3,.181c-.981.084-1.965.107-2.948.14a5.961,5.961,0,0,1-1.908.2,24.724,24.724,0,0,1-1.877-2.713,16.689,16.689,0,0,1-1.85-6.089l-.2-.013c-.03-1.283-.049-2.567-.008-3.85a8.435,8.435,0,0,0,.085-1.519q.107.151.209.31a8.635,8.635,0,0,1,.438-2.039,20.093,20.093,0,0,1,1.308-3.322,4.826,4.826,0,0,1,.624-.882,15.6,15.6,0,0,1,2.3-3,8.453,8.453,0,0,1,1.845-1.656,18.36,18.36,0,0,1,2.415-1.667,21.37,21.37,0,0,1,3.53-1.643c1.049-.28,2.1-.572,3.16-.792m2.15,4.138a15.572,15.572,0,0,0-1.646.106c.2.532.72.841,1.132,1.2a5.815,5.815,0,0,1-.274,1.963,3.44,3.44,0,0,0,.908-.333c.341-.169.677-.477,1.087-.354a11.1,11.1,0,0,1,1.538.771c.09-.673-.317-1.286-.2-1.961.367-.473.861-.828,1.265-1.266-.54-.068-1.085-.075-1.624-.147-.2-.116-.442-.22-.516-.459a4.71,4.71,0,0,0-.7-1.222c-.389.534-.494,1.236-.974,1.707m-4.857,1.649c-.331.442-.915.4-1.4.45a6.661,6.661,0,0,0,.844.842,8.264,8.264,0,0,0-.005,1.289,6.314,6.314,0,0,1,1.091-.514,5.014,5.014,0,0,1,1.093.514,8.209,8.209,0,0,1,.026-1.371c.273-.274.585-.5.877-.757-.469-.067-1.005,0-1.39-.331a3.681,3.681,0,0,1-.447-.917c-.469-.009-.368.578-.686.795m10.543.147c-.333.323-.831.227-1.247.3a8.764,8.764,0,0,1,.833.938c.008.4-.088.789-.1,1.187.446-.136.823-.539,1.311-.487a7.014,7.014,0,0,0,.991.469c0-.388-.063-.773-.066-1.159.2-.337.54-.574.717-.93a3.982,3.982,0,0,1-1.158-.314c-.291-.318-.256-.882-.752-.975a6.594,6.594,0,0,1-.534.974m3.221,6.613a1.864,1.864,0,0,0-.849.415c-.252.275-.6.53-.636.928a6.167,6.167,0,0,0,.08,2.4c.3.527.793,1.1,1.461,1.041a8.063,8.063,0,0,0,1.424-.044,1.875,1.875,0,0,0,1.2-1.712,7.834,7.834,0,0,0-.08-1.9,3.28,3.28,0,0,0-.789-.882,3.01,3.01,0,0,0-1.815-.245m5.68-.036c-.375.854-.881,1.638-1.291,2.474-.373.837-.942,1.567-1.309,2.41-.543.928-.937,1.937-1.561,2.815a8.468,8.468,0,0,0-.89,2c.464.009.928,0,1.393.005.5-1.022,1.059-2.017,1.548-3.047.212-.488.587-.88.813-1.362.664-1.273,1.225-2.6,2.013-3.808a4.407,4.407,0,0,0,.669-1.5c-.463.008-.924.009-1.385.014m-26.758.189c-.327,1.177-1.587,1.672-2.566,2.2-.018.561-.027,1.123.006,1.684a19.8,19.8,0,0,0,2.339-1.163c0,2.069-.022,4.138.012,6.206l.169.183a5.511,5.511,0,0,0,1.854-.1c-.021-3.008,0-6.016-.009-9.024a15.3,15.3,0,0,0-1.8.013m6.6.047a5.131,5.131,0,0,0-1.415.972,3.32,3.32,0,0,0-.659,1.848,11.672,11.672,0,0,0,.006,3.53,3.257,3.257,0,0,0,2.088,2.843,8.328,8.328,0,0,0,1.948-.006,3.129,3.129,0,0,0,1.653-1.45,7.614,7.614,0,0,0,.54-2.2,10,10,0,0,0-.248-3.446,2.628,2.628,0,0,0-.839-1.417,2.907,2.907,0,0,0-1.693-.748,5.553,5.553,0,0,0-1.383.071m7.365.061a2.726,2.726,0,0,0-1.738,2.107,11.446,11.446,0,0,0-.221,3.371,6.047,6.047,0,0,0,.293,1.77,2.828,2.828,0,0,0,1.446,1.717,3.55,3.55,0,0,0,1.727.209,2.435,2.435,0,0,0,2.278-1.585,5.892,5.892,0,0,0,.484-2.508,9.654,9.654,0,0,0-.212-2.875,2.894,2.894,0,0,0-.942-1.716,3.436,3.436,0,0,0-3.116-.491m13.684,4.583a1.888,1.888,0,0,0-1.446,1.153,3.14,3.14,0,0,0,.439,3.163,2.388,2.388,0,0,0,3.348-.289,4.267,4.267,0,0,0,.3-2.721A2.271,2.271,0,0,0,340.107,165.075Z" transform="translate(-267.079 -128.472)" fill="#ff254c"/><path d="M600.12,162.8a3.044,3.044,0,0,1,4.228-1.956,2.062,2.062,0,0,1,.96,1.107,1.541,1.541,0,0,1,.035,1.563,3.843,3.843,0,0,0-.186.413c-.38-.035-.618-.351-.917-.544.424-.242.342-.829.249-1.234a1.5,1.5,0,0,0-1.557-.694,3.994,3.994,0,0,0-1.752,1.133,1.885,1.885,0,0,0-.034,1.3,1.825,1.825,0,0,0,.711.482c.376.071.782-.07,1.132.134.013.256.039.51.07.764a2.213,2.213,0,0,1-1.4.031A2.421,2.421,0,0,1,600.12,162.8Z" transform="translate(-522.704 -139.88)" fill="#ff254c"/><path d="M266.769,171.515a3.711,3.711,0,0,1,1.789.207,6.255,6.255,0,0,1,1.715.252,10.477,10.477,0,0,1,2.178.367,3.466,3.466,0,0,1-.527.7,8.075,8.075,0,0,0-1.468-.025c-.269.6-.659,1.132-.977,1.7a11.145,11.145,0,0,1,.792.982,5.337,5.337,0,0,0-.385.68l-.261.032c-.916-.991-1.594-2.175-2.5-3.173-.271-.313-.786-.568-.713-1.049a1.175,1.175,0,0,1,.355-.681m.866,1.025a9.334,9.334,0,0,1,1.143,1.448,5.618,5.618,0,0,0,1-1.153A13.839,13.839,0,0,0,267.634,172.54Z" transform="translate(-232.125 -149.428)" fill="#ff254c"/><path d="M621.911,191.207q.424-.01.85-.027c.357,1.236,1.041,2.357,1.388,3.593-.243.028-.484.054-.725.085a3.936,3.936,0,0,1-.434-1.071c-1.035-.058-1.862.682-2.841.881a6.917,6.917,0,0,0-1.346.465,6.862,6.862,0,0,0-.452-.65c1.256-.866,2.883-1.05,4.164-1.83A2.438,2.438,0,0,1,621.911,191.207Z" transform="translate(-538.595 -166.586)" fill="#ff254c"/><path d="M246.253,197.963a1.556,1.556,0,0,1,2.01-.474,1.793,1.793,0,0,1,.938.831,2.615,2.615,0,0,1-.594,2.178,9.345,9.345,0,0,0,1.733.78c-.018.345,0,.743-.366.908a8.333,8.333,0,0,0-1.092-.432c-.876-.282-1.712-.676-2.593-.939-.311-.14-.69-.185-.921-.457a1.1,1.1,0,0,1,.146-.668c.26-.571.442-1.174.739-1.727m.739.6a4.159,4.159,0,0,0-.631,1.306,6.1,6.1,0,0,1,1.411.472,3.344,3.344,0,0,0,.574-1.284c.068-.288-.178-.478-.358-.658C247.664,198.378,247.2,198.243,246.992,198.568Z" transform="translate(-213.789 -171.914)" fill="#ff254c"/><path d="M630.152,229.5a19.675,19.675,0,0,1,2.007-.329c.07.429.256.831.3,1.266a5.979,5.979,0,0,1,.275,1.943,1.47,1.47,0,0,1-1.191.87c-.442.061-.771-.309-1.153-.468-.087.311-.088.69-.375.9a1.528,1.528,0,0,1-2.115-.22,5.755,5.755,0,0,1-.813-2.442,3.109,3.109,0,0,1-.177-.771c1.066-.306,2.169-.46,3.242-.746m.13,1.041c.041.478.234.923.3,1.4a.719.719,0,0,0,1.2.248,4.632,4.632,0,0,0-.311-1.982c-.4.111-.788.247-1.19.336m-2.259.525a3.211,3.211,0,0,0,.647,1.916c.344.016.717.045.95-.262a3.957,3.957,0,0,0-.066-1.557c-.1-.167-.172-.472-.432-.4A2.728,2.728,0,0,0,628.024,231.067Z" transform="translate(-546.049 -199.666)" fill="#ff254c"/><path d="M239.083,239.321c1.065-.231,2.129-.459,3.208-.6a1.527,1.527,0,0,1-.388,1.125c-.419.088-1.19-.131-1.234.488a13.859,13.859,0,0,0-.3,1.509c.185.454.824.434,1.123.8.081.333-.15.624-.283.908-.73-.381-1.394-.872-2.111-1.275-.894-.487-1.727-1.08-2.636-1.544a8.113,8.113,0,0,0,.048-.829,2.07,2.07,0,0,1,.8-.283c.6-.023,1.164-.3,1.775-.3m-1.379,1.186c.593.331,1.205.628,1.82.917a1.934,1.934,0,0,0,.3-1.3C239.118,240.238,238.421,240.422,237.7,240.507Z" transform="translate(-206.048 -207.983)" fill="#ff254c"/><path d="M514.87,254.937a.729.729,0,0,1,.937-.342,3.144,3.144,0,0,1-.035,2.549c-.372.336-.917-.032-.935-.474A5.234,5.234,0,0,1,514.87,254.937Z" transform="translate(-448.408 -221.763)" fill="#ff254c"/><path d="M402.2,258.724a1.375,1.375,0,0,1,1.028-.036,2.341,2.341,0,0,1,.6,1.265c.062,1.075.018,2.155.026,3.233a2.854,2.854,0,0,1-.379,1.468.876.876,0,0,1-1.252.213,1.986,1.986,0,0,1-.579-1.55,17.77,17.77,0,0,1-.089-1.817C401.726,260.569,401.452,259.464,402.2,258.724Z" transform="translate(-349.799 -225.3)" fill="#ff254c"/><path d="M460.582,258.63a.788.788,0,0,1,.863.443c.283.326.138.784.3,1.156a5.552,5.552,0,0,1,.2,2.2c.068.508-.292.932-.289,1.43a2.061,2.061,0,0,1-.419,1.072,7.2,7.2,0,0,1-.944-.005,1.347,1.347,0,0,1-.523-.97c-.026-.4-.282-.746-.3-1.146-.03-.7-.01-1.4,0-2.1-.039-.328.3-.541.279-.871C459.741,259.334,460.022,258.7,460.582,258.63Z" transform="translate(-400.224 -225.312)" fill="#ff254c"/><path d="M635.449,269.02a11.666,11.666,0,0,1,2.366.627c.863.353,1.784.526,2.65.864.457.182.2.757.3,1.132q-1.719.663-3.385,1.445a8.012,8.012,0,0,1-1.841.663c.012-.34.018-.68.03-1.019a2.532,2.532,0,0,0,1.047-.475,11.756,11.756,0,0,0-.09-2.111,1.314,1.314,0,0,1-1.048-.358,6.911,6.911,0,0,1-.025-.766m2.045,1.6c.012.407.035.815.026,1.222a5.549,5.549,0,0,0,1.85-.509,2.817,2.817,0,0,0-.2-.368A11.15,11.15,0,0,0,637.494,270.62Z" transform="translate(-553.485 -234.368)" fill="#ff254c"/><path d="M232.631,271.32c.292.01.583.013.875.01,0,.82-.01,1.64-.012,2.46,1.47.009,2.939.047,4.408.049q-.014.5-.017,1.008a11.332,11.332,0,0,1-2.442-.138c-.947-.03-1.9,0-2.843-.037C232.6,273.554,232.6,272.436,232.631,271.32Z" transform="translate(-202.686 -236.371)" fill="#ff254c"/><path d="M566.107,291.2a.751.751,0,0,1,.712.382,11,11,0,0,1,.013,2.031c-.009.235-.269.335-.428.461a.753.753,0,0,1-.643-.826C565.771,292.56,565.6,291.759,566.107,291.2Z" transform="translate(-492.783 -253.681)" fill="#ff254c"/><path d="M246.79,327.76c.344.407.508.925.82,1.353a5.915,5.915,0,0,0,1.779.187c-.377.488-.846.893-1.251,1.359a5.808,5.808,0,0,1,.211,1.545,13.316,13.316,0,0,0-1.487-.616c-.578.05-1.023.508-1.594.6-.025-.491.251-.924.266-1.4.036-.181-.12-.3-.224-.411a5.876,5.876,0,0,1-.991-1.067c.58-.047,1.163-.047,1.74-.116C246.3,328.715,246.55,328.239,246.79,327.76Z" transform="translate(-212.892 -285.519)" fill="#ff254c"/><path d="M630.908,328.71a2.379,2.379,0,0,1,.872,1.318,8.19,8.19,0,0,0,1.874.38,4.851,4.851,0,0,0-1.182,1.075,6.975,6.975,0,0,0,.078,1.527,3.429,3.429,0,0,1-1.459-.59c-.512.278-1.045.512-1.544.813a14.694,14.694,0,0,0,.242-1.744,6.375,6.375,0,0,1-1.208-1.118,4.809,4.809,0,0,0,1.68-.341A3.239,3.239,0,0,0,630.908,328.71Z" transform="translate(-547.504 -286.346)" fill="#ff254c"/><path d="M176.073,371.344a6.869,6.869,0,0,1,.916-.136q6.783-.058,13.569-.006a5.6,5.6,0,0,1,1.589.12c.845.07,1.7.022,2.543.076,1.044.088,2.1.008,3.14.1,1.234.3,2.53.072,3.761.385a19.828,19.828,0,0,1,2.27.218c.663.214,1.381.021,2.039.265.562.193,1.174.047,1.734.248.5.158,1.028.121,1.523.292,2.881.527,5.637,1.566,8.5,2.181a12.341,12.341,0,0,1,2.718,1.26,3.062,3.062,0,0,1,1.5,2.946c-.066.574-.074,1.151-.136,1.724a8.781,8.781,0,0,0-.245,1.952c-.217.828-.233,1.691-.472,2.516.081.849-.331,1.629-.288,2.474-.006.559-.282,1.078-.264,1.642.025.349-.2.632-.286.954a14.82,14.82,0,0,0-.12,1.588c-.118-.006-.234-.01-.35-.012-.659-1.54-2.313-2.23-3.77-2.808-.8-.2-1.642-.2-2.442-.406-.558-.156-1.149-.078-1.7-.247-.632-.181-1.3-.078-1.932-.264-.773-.234-1.6-.025-2.368-.273s-1.589-.022-2.359-.253a7.9,7.9,0,0,0-1.8-.151,10.551,10.551,0,0,0-1.793-.24,9.116,9.116,0,0,1-1.952-.239,11.934,11.934,0,0,1-2.854-.248,20.265,20.265,0,0,1-3.416-.247,21.429,21.429,0,0,1-3.664-.269c-3.362-.08-6.726-.066-10.09-.025a9.1,9.1,0,0,0-2.1.143c-1.328-.017-2.65.112-3.977.093-1.55.012-3.1.006-4.651.039a56.628,56.628,0,0,1-5.66.284c-1.14.339-2.345.059-3.485.377-.616.158-1.27,0-1.877.205a6.307,6.307,0,0,1-1.234.181c-.694.145-1.386.293-2.076.46-1.05.075-2.053.446-3.094.6a13.032,13.032,0,0,1-1.832.355,11.989,11.989,0,0,0-1.824.429,10.616,10.616,0,0,0-3.424,1.346,5.366,5.366,0,0,0-1.071,1.205c-.04-.333-.044-.669-.067-1,0-.329-.273-.579-.292-.9a8.711,8.711,0,0,0-.133-1.176c-.275-.776-.062-1.633-.332-2.41a17.209,17.209,0,0,0-.235-1.774c-.19-.565-.053-1.186-.284-1.739a6.4,6.4,0,0,1-.145-1.174,10.373,10.373,0,0,1-.209-3.472,4.622,4.622,0,0,1,1.1-1.886,13.607,13.607,0,0,1,3.654-1.383c.893-.354,1.886-.251,2.786-.589,1.14-.151,2.239-.527,3.383-.662.594-.242,1.248-.155,1.85-.357.438-.147.913-.078,1.35-.229.568-.2,1.189-.087,1.756-.3s1.178-.03,1.742-.23a3.215,3.215,0,0,1,1.124-.152c.578.012,1.115-.255,1.69-.262.694-.026,1.358-.265,2.054-.255.828,0,1.622-.3,2.451-.262.917.021,1.8-.288,2.713-.258a14.872,14.872,0,0,0,2.569-.234c1.425-.019,2.848-.1,4.273-.129m7.437,5.036c-.017,1.509-.027,3.021,0,4.53.3,0,.611.005.919.017.158-.662.041-1.345.138-2.012a2.321,2.321,0,0,1,.877,1.1c.165.293.2.7.526.876.691.05,1.385.032,2.078.054a8.278,8.278,0,0,0,.388-.987c.6-.006,1.2.012,1.8.025a2.659,2.659,0,0,0,.46,1.03,5.732,5.732,0,0,0,1.063,0,32.056,32.056,0,0,1-1.54-4.217c-.288-.4-.864-.243-1.278-.193-.341.853-.746,1.678-1.125,2.513a7.465,7.465,0,0,0-.563,1.284c-.152.043-.3.085-.455.13a4.829,4.829,0,0,0-1.171-1.914,6.716,6.716,0,0,0,.65-1.424l.7-.118c0-.239-.008-.475-.017-.713-.335.032-.715-.067-1.005.146-.536.275-.637.928-.892,1.419a2.377,2.377,0,0,1-.521.348c-.047-.634.028-1.273-.059-1.9-.324.008-.649.008-.972.005m-11.249.244c-.005,1.28.016,2.561.018,3.841a2.864,2.864,0,0,0,.128.721,3.643,3.643,0,0,0,.888-.052c.34-.27.463-.713.734-1.043.419-.536.641-1.2,1.109-1.7a10.63,10.63,0,0,0,.127,2.656c.256-.014.512-.019.769-.022-.008-1.472-.006-2.942-.04-4.412-.339,0-.677,0-1.017,0-.384.543-.589,1.191-1,1.716-.233.32-.41.677-.619,1.012-.1-.848-.162-1.7-.187-2.551-.2-.284-.61-.111-.906-.171m5.2.035c-.27.251-.611.539-.558.95.023.279-.084.621.138.845a1.912,1.912,0,0,0,.923.631,6.068,6.068,0,0,0-1.37,1.857c.451.037,1.134.247,1.382-.273a5.475,5.475,0,0,1,1.221-1.434,5.752,5.752,0,0,1,.65.013c.032.569.023,1.137.036,1.707.3-.018.6-.025.9-.013.056-1.474-.022-2.95-.017-4.425a19.113,19.113,0,0,0-3.31.143m14.558-.039c-.059.849-.584,1.846.037,2.594.583.674,1.589.422,2.374.406-.009.557-.025,1.114-.061,1.669.288,0,.578.009.868.012a11.2,11.2,0,0,0,.267-2.66c-.026-.592.226-1.147.19-1.739-.332-.008-.663-.018-.994-.027-.116.7.1,1.477-.326,2.094a4.215,4.215,0,0,1-1.251-.056c-.146-.149-.363-.286-.332-.523a2.9,2.9,0,0,1,.2-1.421c-.1-.11-.2-.22-.288-.331-.23,0-.457-.009-.685-.018m-23.816.2c-.505-.068-.286.541-.309.835.435,0,.871,0,1.308,0,.022,1.168.159,2.335.107,3.505a2.268,2.268,0,0,0,1.158.044,27.8,27.8,0,0,1-.163-3.523,4.049,4.049,0,0,1,1.193-.14c.238-.186.114-.505.136-.761-1.143-.047-2.287.026-3.429.041m-4.693.23c-.014.787-.036,1.579.027,2.364.149.678.013,1.386.2,2.058a4.549,4.549,0,0,0,.88.025c.071-.662-.11-1.314-.068-1.976.571.005,1.146-.048,1.717,0l.167.174c.045.536.016,1.076.045,1.615.3-.017.6-.026.9-.031-.066-1.466-.161-2.93-.134-4.4q-.514,0-1.026.017a8.316,8.316,0,0,0,.1,1.632l-.176.169c-.534.036-1.07.01-1.6.028-.076-.558.119-1.186-.152-1.693a3.311,3.311,0,0,0-.882.016m33.15.012a7.675,7.675,0,0,1-.217,1.207c-.07,1.081-.112,2.165-.142,3.25,1.182-.041,2.333.413,3.521.231,0-.24.01-.481.023-.72-.855-.006-1.668-.329-2.525-.279.022-.368.041-.736.056-1.1.766.008,1.529.1,2.3.1,0-.251-.009-.5-.017-.751-.733,0-1.465-.036-2.2-.037-.012-.332-.009-.664-.009-1,.89-.129,1.737.328,2.628.2.009-.247.023-.491.041-.735a15.132,15.132,0,0,0-2.054-.284c-.47.005-.934-.07-1.4-.087m-37.059,1.3c-.327,1.151-.72,2.283-1.049,3.434a6.4,6.4,0,0,0,.995-.035,4.384,4.384,0,0,0,.376-1.049c.609-.031,1.217-.068,1.827-.044.119.292.258.576.4.862.367-.008.735-.01,1.1-.017-.047-.531-.5-.894-.673-1.383-.579-.968-1.025-2.007-1.584-2.985-.327.013-.655.017-.982,0a3.506,3.506,0,0,0-.411,1.218m41.475-.04a3.147,3.147,0,0,0-.521,2.116,2.47,2.47,0,0,0,1.138,1.583,5.967,5.967,0,0,0,1.9.018,1.676,1.676,0,0,0,.923-1.234c-.31-.092-.6-.229-.913-.31a1.176,1.176,0,0,1-.288.574c-.256.346-.743.222-1.11.2a1.454,1.454,0,0,1-.578-1.737,1.747,1.747,0,0,1,.633-1.053,2.534,2.534,0,0,1,1.106.039,4.8,4.8,0,0,1,.465.746c.34-.014.771.017.926-.363a5.718,5.718,0,0,0-.309-.567,2.234,2.234,0,0,0-3.372-.01m-46.631-.068c.283.975.451,1.977.7,2.96.147.461.088.985.382,1.4.295-.03.59-.067.882-.124a3.052,3.052,0,0,0-.385-1.69,8.559,8.559,0,0,0,1.53-.385,1.247,1.247,0,0,0,.756-1.373c.04-.7-.6-1.156-1.2-1.33-.886.2-1.779.351-2.667.547m50.7-.341q-.012.393-.021.788c.43.013.861.027,1.291.035a5.5,5.5,0,0,1-.03.683c-.317.919-.085,1.923-.4,2.844a1.532,1.532,0,0,0,.935.315,6.511,6.511,0,0,1,.36-1.35c.021-.752.076-1.5.14-2.248.487,0,.975.005,1.464-.009-.009-.256-.01-.509-.006-.764a10.7,10.7,0,0,1-1.9-.244c-.611-.043-1.226-.031-1.839-.05m4.387.539a3.257,3.257,0,0,1-.147,1.333c-.335.55-.115,1.234-.327,1.826a3.362,3.362,0,0,0-.123,1.213,5.843,5.843,0,0,1,1.642.16c.726.161,1.659.306,2.19-.346a1.51,1.51,0,0,0,.221-1.331,3.575,3.575,0,0,0-.478-.45c.256-.257.576-.513.578-.912a1.068,1.068,0,0,0-.656-1.165,8.175,8.175,0,0,0-2.9-.328m-58.542.8a19.367,19.367,0,0,0-.176,2.191,9.443,9.443,0,0,0-.227,2.479,2.809,2.809,0,0,0,1.035-.386c0-.3,0-.6,0-.9a7.633,7.633,0,0,1,1.671-.421c.293.142.448.448.66.682.353-.027.707-.048,1.059-.067-.027-.516-.474-.844-.729-1.255-.765-.791-1.373-1.715-2.091-2.549-.386-.074-.941-.147-1.2.225m64.272.035c-.655.733-.988,1.684-1.579,2.461a9.321,9.321,0,0,0-.917,1.592c.351.018.7.045,1.056.034a1.3,1.3,0,0,0,.488-.774,3.254,3.254,0,0,1,1.965.308,8.632,8.632,0,0,1,.167.915,4.127,4.127,0,0,0,.994.083,27.638,27.638,0,0,0-.6-2.881,6.9,6.9,0,0,0-.519-1.773c-.346.034-.73-.1-1.049.036m-68.746,1.008a13.58,13.58,0,0,0,.468,1.607c.227.928.7,1.762.939,2.69a3.321,3.321,0,0,0,.9-.2c-.19-1.229-.762-2.358-.991-3.575a9.237,9.237,0,0,1,1.951-.452c.019-.26.027-.518.034-.777C148.661,379.515,147.632,380.135,146.512,380.286Z" transform="translate(-123.381 -323.327)" fill="#ff254c"/><path d="M423.388,418.682a5.581,5.581,0,0,1,1.846-.068c-.063.357-.016.837-.364,1.054a2.119,2.119,0,0,1-1.49-.236C423.384,419.181,423.388,418.931,423.388,418.682Z" transform="translate(-368.817 -364.58)" fill="#ff254c"/><path d="M508.329,423.14c.672.1.443.915.779,1.336q-.579.023-1.158.01C508.055,424.032,508.255,423.6,508.329,423.14Z" transform="translate(-442.46 -368.575)" fill="#ff254c"/><path d="M285.39,428.935a12.12,12.12,0,0,1,.457-1.295,3.213,3.213,0,0,1,.541,1.249Z" transform="translate(-248.656 -372.494)" fill="#ff254c"/><path d="M251.553,429.454c.463-.021.926-.027,1.39-.034a1.826,1.826,0,0,1,.156.858,3.859,3.859,0,0,1-1.466.362A5.882,5.882,0,0,1,251.553,429.454Z" transform="translate(-219.189 -374.044)" fill="#ff254c"/><path d="M674.251,433.691a2.581,2.581,0,0,1,1.848.527c-.134.146-.256.3-.4.438a6.992,6.992,0,0,1-1.514-.072C674.2,434.285,674.229,433.988,674.251,433.691Z" transform="translate(-587.212 -377.758)" fill="#ff254c"/><path d="M220.125,440.88c.557.248.783.823,1.079,1.311-.38.034-.762.061-1.143.074C220.1,441.8,220.11,441.341,220.125,440.88Z" transform="translate(-191.767 -384.023)" fill="#ff254c"/><path d="M709.38,443.866a3.1,3.1,0,0,1,.779-1.386c.085.45.023.959.336,1.335A3.264,3.264,0,0,1,709.38,443.866Z" transform="translate(-617.864 -385.417)" fill="#ff254c"/><path d="M672.337,447.043a5.273,5.273,0,0,1,1.636.318c-.013.32.127.762-.255.921-.528.236-1.1-.115-1.638-.178A3.077,3.077,0,0,1,672.337,447.043Z" transform="translate(-585.383 -389.388)" fill="#ff254c"/><path d="M625.94,455l.385-.137-.382.19a6.7,6.7,0,0,0,2.058.433l-.01.121c-.163,0-.324.009-.483.017.342.057.69.065,1.035.115.522.151,1.031.35,1.56.483,1.327.331,2.562.954,3.9,1.243,2.8.983,5.566,2.074,8.317,3.191a16.793,16.793,0,0,0,1.572.643c-.014.048-.04.143-.054.191-.663.375-1.355.694-1.99,1.118-.917.443-1.727,1.066-2.62,1.55-.774.466-1.485,1.035-2.3,1.434a6,6,0,0,0-.822.556c.38.981.672,1.991,1,2.991a5.952,5.952,0,0,1,.348.668c.531,1.579,1.16,3.125,1.637,4.724.134.569.611,1.018.525,1.638-.557-.185-1.065-.484-1.606-.705-1.775-.707-3.531-1.469-5.345-2.074-1.207-.5-2.456-.88-3.673-1.351a23.866,23.866,0,0,0-2.786-.817c-1.711-.545-3.443-1.026-5.177-1.5a12.8,12.8,0,0,0-1.629-.37,20.248,20.248,0,0,0-2.483-.552c-1.755-.454-3.536-.757-5.314-1.094-.566-.211-1.19-.1-1.76-.3-.624-.2-1.3-.068-1.923-.28-.609-.159-1.249-.081-1.862-.2a4.508,4.508,0,0,0-.866-.155,16.344,16.344,0,0,0,.7-2.416,20.956,20.956,0,0,0,2.345.41c.163.017.243-.057.24-.218.04-.388.052-.776.085-1.164a5.455,5.455,0,0,1,1.128.3c1.84.636,3.694,1.244,5.467,2.053a19.709,19.709,0,0,0,2.284.928,18.192,18.192,0,0,0,2.97.619,5.688,5.688,0,0,0,2.689-.3c.579-.233.734-.9,1.03-1.386a9.818,9.818,0,0,0,.432-2.3c.231-.606.147-1.266.341-1.879.182-.523.061-1.092.222-1.619.236-.7.094-1.459.37-2.15A12.824,12.824,0,0,1,625.94,455Z" transform="translate(-527.136 -396.197)" fill="#ff254c"/><path d="M16.98,457.574a8.543,8.543,0,0,1,2-.424,5.242,5.242,0,0,0,.171,1.03c.154.469.088.977.236,1.448.222.623.084,1.31.306,1.936.163.755.025,1.556.264,2.3.169.58.05,1.209.253,1.783.18.589.057,1.226.248,1.813.072.24.1.492.155.738a2.4,2.4,0,0,0,1.893,1.08,8.525,8.525,0,0,0,2.863-.2,23.292,23.292,0,0,0,2.256-.581,60.217,60.217,0,0,1,6.515-2.566,22.768,22.768,0,0,1,3.18-.925,3.737,3.737,0,0,0,.323,1.964,5.97,5.97,0,0,1,1.315-.377,6.319,6.319,0,0,1,1.026-.236,3.011,3.011,0,0,1,.331.991c.044.473.257.907.309,1.38a10.717,10.717,0,0,0-1.809.194,18.8,18.8,0,0,0-2.088.257c-.557.14-1.15.056-1.7.233-.571.187-1.194.084-1.76.295-1.782.337-3.57.643-5.328,1.1a20.409,20.409,0,0,0-2.467.55c-.837.066-1.6.469-2.42.6-1.363.377-2.728.758-4.073,1.2-.463.134-.948.177-1.407.329A131.135,131.135,0,0,0,5.28,478.191c-.03-.248-.1-.535.08-.743a3.777,3.777,0,0,0,.411-.913c.521-1.62,1.1-3.222,1.7-4.812a20.58,20.58,0,0,0,1.005-2.751,4.55,4.55,0,0,0,.194-.877c-.832-.687-1.835-1.114-2.7-1.757-1.124-.637-2.189-1.372-3.324-1.986-.512-.362-1.2-.492-1.569-1.035,1.959-.928,4.013-1.631,6.008-2.476,1.1-.367,2.149-.862,3.259-1.193.574-.249,1.2-.315,1.786-.54A40.754,40.754,0,0,1,16.98,457.574Z" transform="translate(-1.08 -398.191)" fill="#ff254c"/><path d="M325.7,496.747a4.916,4.916,0,0,1,1.954-.1c.575.194,1.088.535,1.655.755a23.359,23.359,0,0,0,2.588.941c.942.116,1.8.578,2.744.677.527.2,1.106.172,1.636.364.562.138,1.162.059,1.713.253.951.221,1.952.01,2.894.286.956.023,1.915.048,2.87-.014.946-.27,1.955-.032,2.906-.276.588-.209,1.235-.076,1.826-.28a6.85,6.85,0,0,1,1.278-.209c.624-.167,1.248-.336,1.868-.522.643-.231,1.344-.256,1.974-.532,1.138-.36,2.2-.91,3.295-1.379a3.405,3.405,0,0,1,1.632.307,16.124,16.124,0,0,1-3.091,1.424c-.336.115-.656.273-.987.4a46.362,46.362,0,0,1-5.6,1.5,7.342,7.342,0,0,1-1.735.248,14.52,14.52,0,0,1-3.274.265,6.773,6.773,0,0,1-2.859-.012,13.881,13.881,0,0,1-3.292-.253,17.808,17.808,0,0,1-3.321-.594,37.62,37.62,0,0,1-4.815-1.5A23.915,23.915,0,0,1,325.7,496.747Z" transform="translate(-283.757 -432.523)" fill="#ff254c"/><path d="M304.26,497.742c.351-.486.991-.345,1.508-.329.935.554,1.9,1.061,2.871,1.548.809.227,1.538.658,2.331.93.9.244,1.737.676,2.647.879a29.02,29.02,0,0,0,3.219.809c.625.234,1.309.134,1.938.349.632.18,1.3.04,1.937.2a24.772,24.772,0,0,0,4.061.156c1.216.031,2.407-.247,3.618-.289.833-.165,1.686-.226,2.5-.463.858-.107,1.664-.444,2.51-.6a44.718,44.718,0,0,0,6.666-2.552,12.349,12.349,0,0,1,1.377-.72,4.11,4.11,0,0,1,1.4.314,27.625,27.625,0,0,1-3.582,1.826,35.717,35.717,0,0,1-7.454,2.6c-1.171.3-2.367.432-3.551.663a19.48,19.48,0,0,0-2.833.248c-1.08.036-2.163.037-3.242,0a25.01,25.01,0,0,0-3.1-.257c-.733-.224-1.5-.209-2.237-.412a36.928,36.928,0,0,1-9.575-3.322c-.38-.208-.814-.291-1.181-.521C305.48,498.445,304.888,498.063,304.26,497.742Z" transform="translate(-265.088 -433.225)" fill="#ff254c"/><path d="M264.975,499.511a5.235,5.235,0,0,1,1.782-.141,13.991,13.991,0,0,0,2.56,1.516c.88.536,1.84.913,2.753,1.388a37.155,37.155,0,0,0,8.776,2.775,18.271,18.271,0,0,0,2.062.287,25.729,25.729,0,0,0,3.091.16c1.638.11,3.278-.025,4.916-.05a18.959,18.959,0,0,0,2.523-.313,35.809,35.809,0,0,0,8.835-2.607,29.824,29.824,0,0,0,2.854-1.407c.406-.271.9-.348,1.3-.627.375-.243.734-.51,1.12-.734.377-.257.826-.028,1.226.031.733.191,1.507.005,2.238.216a5.9,5.9,0,0,0,1.7.15c0,.332,0,.664.01,1a4.607,4.607,0,0,1-1.492-.178,3.579,3.579,0,0,0-1.274-.078,5.527,5.527,0,0,1-.394,2.371,7.95,7.95,0,0,0-2.314-.588c-.31.784-.3,1.641-.658,2.408a22.566,22.566,0,0,0-2.28-.862,6.323,6.323,0,0,0-.678,2.007c-.977.392-1.716-.8-2.682-.7a6.536,6.536,0,0,1-.968,2.146c-.563-.357-1.171-.634-1.742-.974a1.13,1.13,0,0,0-.519-.154,9.961,9.961,0,0,1-1.11,2.021,7.123,7.123,0,0,1-1.795-1.165,2.369,2.369,0,0,0-.464-.079c-.367.662-.849,1.249-1.226,1.906a11.458,11.458,0,0,1-1.954-1.558,8.087,8.087,0,0,0-1.634,1.826c-.359-.078-.566-.4-.815-.634-.337-.359-.733-.656-1.081-1a14.368,14.368,0,0,0-1.585,1.6l-.368-.021a12.106,12.106,0,0,0-1.385-1.677,6.544,6.544,0,0,0-1.933,1.47c-.574-.61-1.062-1.295-1.576-1.955a13.322,13.322,0,0,0-1.32.88,6.3,6.3,0,0,0-.705.439c-.482-.642-.792-1.388-1.209-2.069a1.626,1.626,0,0,0-.483.14c-.6.344-1.18.711-1.773,1.06-.238-.485-.53-.942-.721-1.45a3.333,3.333,0,0,0-.381-.769,2.054,2.054,0,0,0-.811.3,14.036,14.036,0,0,0-1.456.694,14.942,14.942,0,0,1-.663-1.859c-.049-.217-.247-.468-.494-.357-.712.231-1.406.523-2.129.72-.031-.278-.052-.554-.065-.833l-.3-.045c-.047-.479.094-1.057-.306-1.417a1.159,1.159,0,0,0-.49.017c-.634.2-1.28.354-1.921.526a16.905,16.905,0,0,1-.295-2.372c-.911-.1-1.761.376-2.678.247-.005-.4-.008-.8-.031-1.2C263.269,499.4,264.185,499.773,264.975,499.511Z" transform="translate(-228.775 -434.942)" fill="#ff254c"/><path d="M585.278,541.12a7.649,7.649,0,0,1,1.408.416,2.649,2.649,0,0,1,.881.354c-.871.005-1.738-.087-2.607-.081A2.288,2.288,0,0,1,585.278,541.12Z" transform="translate(-509.52 -471.312)" fill="#ff254c"/><path d="M310.46,541.963a6.539,6.539,0,0,1,1.877-.694c.335-.1.641.425.342.631C311.939,541.92,311.2,541.948,310.46,541.963Z" transform="translate(-270.486 -471.429)" fill="#ff254c"/></g></g></svg>