<svg xmlns="http://www.w3.org/2000/svg" width="96" height="96" viewBox="0 0 96 96"><path d="M47.674,0h.834A48.063,48.063,0,0,1,96,47.5v.988A48.08,48.08,0,0,1,48.309,96h-.622A48.086,48.086,0,0,1,0,48.5v-1A48.045,48.045,0,0,1,47.674,0m-2.85,3.964A44.123,44.123,0,0,0,10.847,71.831,44.145,44.145,0,1,0,44.824,3.964Z" fill="#ff254c"/><path d="M229.89,123.088a5.743,5.743,0,1,1,1.8,11.323,5.743,5.743,0,0,1-1.8-11.323Z" transform="translate(-183.122 -99.902)" fill="#ff254c"/><path d="M215.828,205.206a2.483,2.483,0,0,1,1.68-.42c2.381.017,4.762-.015,7.144.015A1.966,1.966,0,0,1,226.6,206.9c.011,8.634,0,17.271.007,25.907,1.074,1.072,2.154,2.139,3.219,3.221a1.925,1.925,0,0,1-1.446,3.322q-5.619.008-11.239,0a1.927,1.927,0,0,1-1.444-3.319c1.065-1.082,2.145-2.151,3.225-3.221q.014-10.732,0-21.469c-1.1-1.11-2.233-2.2-3.315-3.326A1.916,1.916,0,0,1,215.828,205.206Z" transform="translate(-174.763 -166.388)" fill="#ff254c"/></svg>