<svg width="30" height="16" viewBox="0 0 30 16" fill="none" xmlns="http://www.w3.org/2000/svg">
<g clip-path="url(#clip0_3077_8030)">
<path d="M18.2938 7.99993C18.2938 12.5572 14.602 16.2499 10.0463 16.2499C5.49065 16.2499 1.79883 12.5564 1.79883 7.99993C1.79883 3.44345 5.49155 -0.25 10.0463 -0.25C14.6011 -0.25 18.2938 3.44345 18.2938 7.99993Z" fill="#E2574C"/>
<path d="M19.9522 -0.25C18.1026 -0.25 16.3998 0.366284 15.0237 1.39508L15.0303 1.3959C15.3009 1.65739 15.5995 1.84144 15.8297 2.14248L14.1137 2.16971C13.8448 2.44116 13.5998 2.7365 13.3688 3.04342H16.3948C16.625 3.31976 16.8378 3.5599 17.0309 3.8651H12.8202C12.6659 4.13076 12.5232 4.40384 12.3986 4.6876H17.5103C17.6439 4.97054 17.7635 5.18426 17.8651 5.48376H12.0958C12.0043 5.76842 11.9259 6.0596 11.8665 6.35657H18.1067C18.1678 6.64204 18.2148 6.90598 18.247 7.17499H11.7427C11.7154 7.44644 11.7014 7.72196 11.7014 8.00002H18.294C18.294 8.2921 18.2733 8.56265 18.2436 8.82505H11.7427C11.7707 9.10473 11.812 9.37944 11.8665 9.65008H18.0968C18.0325 9.91737 17.9582 10.1863 17.865 10.4652H12.0768C12.1642 10.7473 12.2707 11.0212 12.387 11.2885H17.5103C17.3684 11.5888 17.2075 11.8288 17.0302 12.1101H12.8054C12.9721 12.3989 13.156 12.6744 13.3556 12.9384L16.3949 12.9838C16.1358 13.2948 15.8034 13.4821 15.5006 13.7543C15.517 13.7675 15.0163 13.7527 14.0304 13.737C15.5302 15.2848 17.6266 16.2499 19.9522 16.2499C24.5086 16.2499 28.2021 12.5564 28.2021 8.00002C28.2021 3.44363 24.5095 -0.25 19.9522 -0.25Z" fill="#F4B459"/>
</g>
<defs>
<clipPath id="clip0_3077_8030">
<rect width="30" height="16" fill="white"/>
</clipPath>
</defs>
</svg>
