<svg width="30" height="16" viewBox="0 0 30 16" fill="none" xmlns="http://www.w3.org/2000/svg">
<path fill-rule="evenodd" clip-rule="evenodd" d="M26.6324 3.5H20.9385C21.2446 5.39796 23.0813 7.17347 25.1017 7.17347H29.6324C29.6936 6.9898 29.6936 6.7449 29.6936 6.56122C29.6936 4.84694 28.3466 3.5 26.6324 3.5Z" fill="#00B4E6"/>
<path fill-rule="evenodd" clip-rule="evenodd" d="M21.4285 7.47949V12.0713H24.1836V9.62235H26.6325C27.9795 9.62235 29.1428 8.70398 29.5101 7.47949H21.4285Z" fill="#4DB45F"/>
<path fill-rule="evenodd" clip-rule="evenodd" d="M11.6323 3.5V12.0714H14.0813C14.0813 12.0714 14.6935 12.0714 14.9997 11.4592C16.6527 8.15306 17.1425 7.17347 17.1425 7.17347H17.4486V12.0714H20.2038V3.5H17.7548C17.7548 3.5 17.1425 3.56122 16.8364 4.11224C15.4282 6.92857 14.6935 8.39796 14.6935 8.39796H14.3874V3.5H11.6323Z" fill="#4DB45F"/>
<path fill-rule="evenodd" clip-rule="evenodd" d="M0 12.0714V3.5H2.7551C2.7551 3.5 3.55102 3.5 3.97959 4.72449C5.08163 7.96939 5.20408 8.39796 5.20408 8.39796C5.20408 8.39796 5.44898 7.60204 6.42857 4.72449C6.85714 3.5 7.65306 3.5 7.65306 3.5H10.4082V12.0714H7.65306V7.47959H7.34694L5.81633 12.0714H4.59184L3.06122 7.47959H2.7551V12.0714H0Z" fill="#4DB45F"/>
</svg>
