<svg xmlns="http://www.w3.org/2000/svg" width="115.47" height="83" viewBox="0 0 115.47 83"><g transform="translate(0 -71.997)"><g transform="translate(0 71.997)"><path d="M2.654,74.65A9.084,9.084,0,0,1,9.238,72H106.23a9.156,9.156,0,0,1,6,2.106,9.637,9.637,0,0,1,3.239,5.916v66.943a9.656,9.656,0,0,1-3,5.71,9.025,9.025,0,0,1-5.347,2.28c-1.051.072-2.1.032-3.153.038H11.276a18.294,18.294,0,0,1-4.427-.28,9.049,9.049,0,0,1-5.9-4.738A12.267,12.267,0,0,1,0,146.967V80.022A9.693,9.693,0,0,1,2.654,74.65M14.438,90.024q-.014,7.233,0,14.465a3.612,3.612,0,0,0,3.36,3.575c1.283.047,2.569.011,3.852.011,1.2.011,2.4.014,3.608,0q7.223.017,14.45,0a3.633,3.633,0,0,0,3.34-2.278,8.9,8.9,0,0,0,.246-3.13q.02-1.8,0-3.608.02-1.8,0-3.608.02-1.806,0-3.608a11.5,11.5,0,0,0-.135-2.8,3.624,3.624,0,0,0-3.451-2.609q-7.226-.014-14.45,0-1.8-.02-3.608,0c-1.353.007-2.711-.056-4.062.029a3.59,3.59,0,0,0-3.151,3.557m55.55-2.393a10.84,10.84,0,0,0-5.879,9.625,10.691,10.691,0,0,0,1.912,6.141,10.825,10.825,0,0,0,16.545,1.518,10.815,10.815,0,1,0,0-15.318,10.868,10.868,0,0,0-12.58-1.967M17.214,122.615a3.574,3.574,0,0,0-2.76,3.268,16.3,16.3,0,0,0,.045,2.7,3.61,3.61,0,0,0,3.527,2.95c2.711.027,5.422,0,8.133.014a6.008,6.008,0,0,0,2.233-.257,3.6,3.6,0,0,0,2.258-3.115,11.838,11.838,0,0,0-.12-3.042,3.615,3.615,0,0,0-3.448-2.6c-2.636-.025-5.275.007-7.911-.011a10.3,10.3,0,0,0-1.955.1m23.453,0a3.59,3.59,0,0,0-2.772,3.493,8.105,8.105,0,0,0,.313,3.311,3.637,3.637,0,0,0,3.272,2.109c3.092.007,6.186.032,9.278-.011a3.58,3.58,0,0,0,3.345-3.345,10.551,10.551,0,0,0-.171-3.209,3.607,3.607,0,0,0-3.4-2.438c-2.636-.029-5.273.007-7.909-.014a10.334,10.334,0,0,0-1.958.1m23.455,0a3.574,3.574,0,0,0-2.758,3.268,10.612,10.612,0,0,0,.171,3.207,3.626,3.626,0,0,0,3.4,2.438c2.711.029,5.424-.007,8.135.014a9.062,9.062,0,0,0,1.73-.1,3.6,3.6,0,0,0,2.76-3.268,12.149,12.149,0,0,0-.122-3.042,3.608,3.608,0,0,0-3.451-2.6c-2.711-.027-5.422.007-8.135-.014a8.732,8.732,0,0,0-1.732.1m23.457,0a3.571,3.571,0,0,0-2.76,3.268,9.473,9.473,0,0,0,.232,3.374,3.625,3.625,0,0,0,3.34,2.271q4.526.024,9.053,0A3.594,3.594,0,0,0,101,128.382a15.647,15.647,0,0,0-.025-2.907,3.6,3.6,0,0,0-3.529-2.952c-2.709-.025-5.419.007-8.13-.014a8.885,8.885,0,0,0-1.732.106M15.638,138.848a1.835,1.835,0,0,0-.8,2.878,1.926,1.926,0,0,0,1.608.636H52.108a1.8,1.8,0,0,0,2-1.59,1.76,1.76,0,0,0-1.775-2.007c-11.579-.029-23.159,0-34.74-.016a9.138,9.138,0,0,0-1.955.1m43.3,0a1.8,1.8,0,0,0,.586,3.5c5.192.034,10.386-.007,15.577.018a2.717,2.717,0,0,0,1.843-.417,1.856,1.856,0,0,0,0-2.79,2.333,2.333,0,0,0-1.613-.413q-7.107.01-14.217,0A10.631,10.631,0,0,0,58.939,138.851Z" transform="translate(0 -71.997)" fill="#5d647f"/></g><g transform="translate(14.431 86.422)"><path d="M64,139.561A3.59,3.59,0,0,1,67.147,136c1.351-.086,2.709-.023,4.062-.029v21.637c-1.283,0-2.569.036-3.852-.011A3.612,3.612,0,0,1,64,154.026Q63.983,146.793,64,139.561Z" transform="translate(-63.99 -135.959)" fill="#ffd100"/><path d="M111.982,136q7.223-.017,14.45,0a3.624,3.624,0,0,1,3.451,2.609,11.5,11.5,0,0,1,.135,2.8c-6.008-.009-12.016.02-18.022-.014C111.957,139.595,111.991,137.8,111.982,136Z" transform="translate(-101.155 -135.984)" fill="#ffd100"/><path d="M355.2,139.2a10.827,10.827,0,1,1-3.175,7.659A10.838,10.838,0,0,1,355.2,139.2Z" transform="translate(-287.068 -136.028)" fill="#ffd100"/><path d="M111.983,176c6.006-.034,12.014,0,18.02-.014q.02,1.8,0,3.608c-6.006-.011-12.014.02-18.02-.016Q111.932,177.794,111.983,176Z" transform="translate(-101.14 -166.96)" fill="#ffd100"/><path d="M112,208c6.008-.034,12.014,0,18.022-.014a8.9,8.9,0,0,1-.246,3.13,3.633,3.633,0,0,1-3.34,2.278q-7.226.014-14.45,0C112,211.6,111.967,209.8,112,208Z" transform="translate(-101.162 -191.744)" fill="#ffd100"/></g><g transform="translate(21.651 86.428)"><path d="M96,136q1.8-.02,3.608,0c.009,1.8-.025,3.595.014,5.392,6.006.034,12.014,0,18.022.014q.02,1.8,0,3.608c-6.006.011-12.014-.02-18.02.014q-.051,1.79,0,3.579c6.006.036,12.014,0,18.02.016q.02,1.806,0,3.608c-6.008.011-12.014-.02-18.022.014-.036,1.8,0,3.595-.014,5.392-1.2.014-2.406.011-3.608,0Z" transform="translate(-96 -135.985)" fill="#ff9500"/></g><g transform="translate(64.106 86.443)"><path d="M290.133,137.238a10.868,10.868,0,0,1,12.58,1.967,10.827,10.827,0,0,0,0,15.318,10.825,10.825,0,0,1-16.545-1.518,10.691,10.691,0,0,1-1.912-6.141A10.84,10.84,0,0,1,290.133,137.238Z" transform="translate(-284.251 -136.05)" fill="#ff4f19"/></g><g transform="translate(14.42 122.509)"><path d="M66.735,296.084a10.3,10.3,0,0,1,1.955-.1c2.636.018,5.275-.014,7.911.011a3.615,3.615,0,0,1,3.448,2.6,11.838,11.838,0,0,1,.12,3.042,3.6,3.6,0,0,1-2.258,3.115,6.007,6.007,0,0,1-2.233.257c-2.711-.018-5.422.014-8.133-.014a3.61,3.61,0,0,1-3.527-2.95,16.3,16.3,0,0,1-.045-2.7A3.574,3.574,0,0,1,66.735,296.084Z" transform="translate(-63.941 -295.978)" fill="#b8bac0"/><path d="M170.732,296.084a10.334,10.334,0,0,1,1.958-.1c2.636.02,5.273-.016,7.909.014a3.607,3.607,0,0,1,3.4,2.438,10.551,10.551,0,0,1,.171,3.209,3.58,3.58,0,0,1-3.345,3.345c-3.092.043-6.186.018-9.278.011a3.637,3.637,0,0,1-3.272-2.109,8.105,8.105,0,0,1-.313-3.311A3.59,3.59,0,0,1,170.732,296.084Z" transform="translate(-144.486 -295.978)" fill="#b8bac0"/><path d="M274.719,296.084a8.734,8.734,0,0,1,1.732-.1c2.713.02,5.424-.014,8.135.014a3.608,3.608,0,0,1,3.451,2.6,12.149,12.149,0,0,1,.122,3.042,3.6,3.6,0,0,1-2.76,3.268,9.06,9.06,0,0,1-1.73.1c-2.711-.02-5.424.016-8.135-.014a3.626,3.626,0,0,1-3.4-2.438,10.611,10.611,0,0,1-.171-3.207A3.574,3.574,0,0,1,274.719,296.084Z" transform="translate(-225.018 -295.978)" fill="#b8bac0"/><path d="M378.721,296.076a8.888,8.888,0,0,1,1.732-.106c2.711.02,5.422-.011,8.13.014a3.6,3.6,0,0,1,3.53,2.952,15.647,15.647,0,0,1,.025,2.907,3.594,3.594,0,0,1-3.552,3.146q-4.526.02-9.053,0a3.625,3.625,0,0,1-3.34-2.271,9.474,9.474,0,0,1-.232-3.374A3.571,3.571,0,0,1,378.721,296.076Z" transform="translate(-305.563 -295.97)" fill="#b8bac0"/></g><g transform="translate(14.437 138.745)"><path d="M65.214,368.065a9.14,9.14,0,0,1,1.955-.1c11.581.018,23.162-.014,34.74.016a1.76,1.76,0,0,1,1.775,2.007,1.8,1.8,0,0,1-2,1.59H66.026a1.926,1.926,0,0,1-1.608-.636A1.835,1.835,0,0,1,65.214,368.065Z" transform="translate(-64.013 -367.962)" fill="#8a8895"/><path d="M257.225,368.066a10.632,10.632,0,0,1,2.176-.1q7.111.007,14.217,0a2.333,2.333,0,0,1,1.613.413,1.856,1.856,0,0,1,0,2.79,2.717,2.717,0,0,1-1.843.417c-5.192-.025-10.386.016-15.577-.018a1.8,1.8,0,0,1-.586-3.5Z" transform="translate(-212.723 -367.96)" fill="#8a8895"/></g></g></svg>