<svg xmlns="http://www.w3.org/2000/svg" width="132.453" height="83" viewBox="0 0 132.453 83"><g transform="translate(-93.126 -48.11)"><g transform="translate(93.126 48.111)"><path d="M99.081,48.149c.322-.017.645-.037.968-.036H208.522c3.563.005,7.126-.013,10.689.01a8.059,8.059,0,0,1,2.934.956,6.762,6.762,0,0,1,3.312,4.9l.077,0c.076.96.033,1.923.044,2.886q0,33.48,0,66.96a8.428,8.428,0,0,1-.053,1.287,8.9,8.9,0,0,1-.693,2.156,6.838,6.838,0,0,1-5.155,3.722l.028.088c-2.357.065-4.717.011-7.075.029H116.2c-5.678-.006-11.357.013-17.037-.01.005-.023.016-.069.02-.093-.553-.009-1.055-.3-1.6-.3l.246-.031a6.825,6.825,0,0,1-4.59-5.628l-.087.033c-.045-2.212-.008-4.426-.02-6.638V57.131c.012-1.053-.034-2.108.041-3.16l.088.046a9.142,9.142,0,0,1,.229-.986,6.846,6.846,0,0,1,5.6-4.805l-.011-.076m14.139,7.868a2.551,2.551,0,0,0-1.3.847,4.1,4.1,0,0,0-.7,2.371A5.353,5.353,0,0,0,111.69,62a2.021,2.021,0,0,0,1.49.852,2.577,2.577,0,0,0,2.1-.618,2.946,2.946,0,0,0,.57-1.909,3.04,3.04,0,0,0-.609-1.969,2.359,2.359,0,0,0-2.092-.424,1.739,1.739,0,0,0-1.219,1.19,3.575,3.575,0,0,1,.148-1.288,1.653,1.653,0,0,1,1.246-1.1,16.847,16.847,0,0,1,2.286-.376c-.006-.259-.005-.517,0-.775a15.29,15.29,0,0,0-2.386.428m16.4.026a2.44,2.44,0,0,0-1.3.928,4.66,4.66,0,0,0-.63,2.624,3.972,3.972,0,0,0,.734,2.734,2.607,2.607,0,0,0,2.341.449A1.862,1.862,0,0,0,132,61.906a3.923,3.923,0,0,0,.2-2.638,1.728,1.728,0,0,0-.765-1.125,2.543,2.543,0,0,0-1.649-.242,1.787,1.787,0,0,0-1.426,1.436,3.9,3.9,0,0,1,.46-1.983,1.788,1.788,0,0,1,1.145-.65,19.5,19.5,0,0,1,2.13-.343c0-.258,0-.516-.006-.775a14.532,14.532,0,0,0-2.464.458m-23.63.1a2.9,2.9,0,0,0-1.8,1.893,5.318,5.318,0,0,0-.057,2.464,3.017,3.017,0,0,0,2.1,2.244,4.583,4.583,0,0,0,1.557.1,3.065,3.065,0,0,0,2.44-1.764,6.693,6.693,0,0,1-.742-.381,2.708,2.708,0,0,1-1.068,1.173,2.657,2.657,0,0,1-1.924.114,3.338,3.338,0,0,1-.895-.575,3.043,3.043,0,0,1-.616-1.538,2.942,2.942,0,0,1,.789-2.666,2.415,2.415,0,0,1,1.843-.518,1.921,1.921,0,0,1,1.659,1.143,2.974,2.974,0,0,0,.909-.246,2.69,2.69,0,0,0-1.838-1.542,4.533,4.533,0,0,0-2.362.094m105.638,1.221c-.117.2-.356.337-.339.593a.8.8,0,0,0,.3.651,9.246,9.246,0,0,1,2.378,6.28,9.149,9.149,0,0,1-1.775,5.517,1.381,1.381,0,0,0-.244.51.779.779,0,0,0,.453.595.662.662,0,0,0,.723-.184,10.493,10.493,0,0,0,1.588-2.969,13.274,13.274,0,0,0,.493-2,19.455,19.455,0,0,0,.051-2.114,9.126,9.126,0,0,0-.45-2.549,11,11,0,0,0-1.358-2.826,18.736,18.736,0,0,0-1.2-1.5,1.755,1.755,0,0,0-.625-.006m-94.718,1.208a4.022,4.022,0,0,0-.288,2.286,2.325,2.325,0,0,0,.642,1.414,2.6,2.6,0,0,0,2.222.564,1.846,1.846,0,0,0,1.545-1.2q-.367-.09-.734-.185a1.3,1.3,0,0,1-.8.7,1.737,1.737,0,0,1-1.395-.174,2.1,2.1,0,0,1-.636-1.6c1.242,0,2.482-.005,3.724,0a3.8,3.8,0,0,0-.492-2.092,2.287,2.287,0,0,0-2.142-.756,2,2,0,0,0-1.644,1.043m7.229-.977a1.477,1.477,0,0,0-.973.911c-.026-.3-.046-.606-.052-.91q-.424-.007-.847,0c.026,2.413.01,4.826.007,7.239.295-.012.589-.011.884,0-.012-.966-.015-1.932,0-2.9a1.423,1.423,0,0,0,.777.786,1.955,1.955,0,0,0,2.263-.507,4.13,4.13,0,0,0,.46-2.606,2.241,2.241,0,0,0-.773-1.764,2.107,2.107,0,0,0-1.748-.246M133.18,58.9c.3.016.6.045.9.082.079-.3.2-.676.554-.739a1.578,1.578,0,0,1,1.436.179c.336.3.262.8.3,1.2a11,11,0,0,0-2.129.134,1.581,1.581,0,0,0-1.089.734,1.7,1.7,0,0,0,.376,2.12,2.117,2.117,0,0,0,1.588.188,2.074,2.074,0,0,0,1.258-1.044c.072.319.076.724.39.916a1.649,1.649,0,0,0,1.248.05c-.011-.17-.02-.339-.028-.508-.228.011-.558.071-.654-.205a8.014,8.014,0,0,1-.108-1.962,3.16,3.16,0,0,0-.322-1.914,2.336,2.336,0,0,0-2.106-.608A1.663,1.663,0,0,0,133.18,58.9m5.5-1.306c0,1.73.013,3.46-.006,5.189.291,0,.583,0,.874-.006.012-.79-.016-1.581.016-2.37.778.02,1.556-.007,2.335.016,0,.784.007,1.567-.006,2.351a5.631,5.631,0,0,0,.886,0c-.02-1.728,0-3.456-.008-5.184q-.437-.005-.872,0c0,.729,0,1.458,0,2.187-.784,0-1.566,0-2.349,0q0-1.095,0-2.189c-.291,0-.58,0-.87.005m5.433,0c.009,1.737-.016,3.474.014,5.211.285,0,.57-.011.856-.024-.01-.765,0-1.532-.005-2.3a1.659,1.659,0,0,1,.565-.016c.421.767.86,1.524,1.259,2.3a6.712,6.712,0,0,0,1.023.015c-.584-.92-1.145-1.859-1.687-2.8.549-.776,1.081-1.585,1.617-2.378-.3-.012-.609-.012-.913,0-.374.619-.745,1.241-1.164,1.83a.888.888,0,0,1-.7.439c0-.758,0-1.516,0-2.274h-.866M209.424,59.1c-.139.173-.359.332-.321.584-.023.234.155.411.29.581A7.183,7.183,0,0,1,211,63.51a7.677,7.677,0,0,1,0,2.754,7.318,7.318,0,0,1-1.183,2.673,1.009,1.009,0,0,0-.244.622.809.809,0,0,0,.573.548c.363.076.634-.235.8-.512a8.465,8.465,0,0,0,1.314-3.06,9.656,9.656,0,0,0,.01-3.3,8.526,8.526,0,0,0-1.879-3.787,1.272,1.272,0,0,0-.44-.374.844.844,0,0,0-.537.033M207.1,61.62a5.21,5.21,0,0,1,1.118,2.092,4.683,4.683,0,0,1-.336,3.271c-.154.327-.4.6-.554.926a.676.676,0,0,0,.64.839.768.768,0,0,0,.5-.258,6.168,6.168,0,0,0,1.19-3.14,6,6,0,0,0-1.39-4.313.642.642,0,0,0-.75-.231.706.706,0,0,0-.422.815m-1.8,1.795a2.5,2.5,0,0,0,.226.432,2.108,2.108,0,0,1-.067,2.188.8.8,0,0,0-.205.594c-.016.275.233.435.429.575.128,0,.256,0,.387,0a2.073,2.073,0,0,0,.848-1.218,3.428,3.428,0,0,0-.359-2.963.706.706,0,0,0-.589-.38.655.655,0,0,0-.669.772m-97.91,10.276c-.26.19-.332.523-.554.745-.039,1.119-.032,2.242,0,3.363,0,.045,0,.134,0,.179-.021,1.643-.036,3.29.008,4.933l-.015.173c-.012.741-.022,1.484,0,2.224a2.6,2.6,0,0,0,.52.84c.308.191.608.485,1,.439,1.295-.012,2.591.025,3.886-.018l.157.007c1.987.016,3.975.023,5.962,0l.167,0c1.171.04,2.343,0,3.514.018.222-.015.479.039.664-.119a1.666,1.666,0,0,0,.968-1.425c-.01-.656.015-1.312-.016-1.967q0-.13,0-.257.041-2.421,0-4.843c0-.045,0-.136-.006-.182.039-1.111.028-2.225.005-3.336a1.822,1.822,0,0,0-1.24-1.155c-1.294-.016-2.589-.032-3.882.009l-.176,0c-1.479-.04-2.96-.006-4.44-.017a13.943,13.943,0,0,0-1.587.04l-.09-.04c-1.326,0-2.652-.006-3.978,0a1.383,1.383,0,0,0-.864.394m-3.5,23.318c.007,2.088,0,4.177.005,6.266,6.879,0,13.758.019,20.637-.01-.02-2.083-.011-4.167-.005-6.249-6.879-.008-13.758,0-20.637-.006m29.783,0c0,2.089.015,4.179-.008,6.268q10.272,0,20.545,0c0-2.088-.007-4.177,0-6.266q-10.27,0-20.539,0m29.709,0c.016,2.086,0,4.175.006,6.262q10.266.012,20.534,0,0-3.132,0-6.265H163.387m29.689.006c.007,2.082.016,4.165,0,6.247,1.592.03,3.186,0,4.78.013q7.928,0,15.856,0,0-3.132,0-6.266c-6.877.012-13.755-.007-20.632.009M103.9,106.5q.012,2.492,0,4.985c5.98.018,11.96.006,17.939.006-.021-1.662-.007-3.324,0-4.986-5.978-.008-11.954,0-17.931-.005m89.4,6.305q-.012,5.637,0,11.275,12.757.014,25.514,0,.007-5.638,0-11.277-12.758,0-25.515,0m-89.4,2.01c0,1.658-.008,3.315.005,4.973q23.984.021,47.967.006c2.482-.016,4.965.028,7.446-.021-.026-1.648-.02-3.3,0-4.943-1.722-.047-3.445-.007-5.167-.021Q129.021,114.813,103.9,114.812Z" transform="translate(-93.126 -48.111)" fill="#2b9e39"/><path d="M360.624,158.452a1.555,1.555,0,0,1,1.71-.2,1.753,1.753,0,0,1,.659,1.407q-1.4-.007-2.8,0A1.952,1.952,0,0,1,360.624,158.452Z" transform="translate(-335.825 -148.056)" fill="#2b9e39"/><path d="M422.935,158.584a1.578,1.578,0,0,1,1.3-.109,1.049,1.049,0,0,1,.619.778,5.362,5.362,0,0,1,.027,2.176,1.213,1.213,0,0,1-.713.952,1.454,1.454,0,0,1-1.431-.345,2.764,2.764,0,0,1-.385-1.5A2.575,2.575,0,0,1,422.935,158.584Z" transform="translate(-392.314 -148.318)" fill="#2b9e39"/><path d="M302.3,161.948a1.7,1.7,0,0,1,1.236.132,2.028,2.028,0,0,1,.577,1.736,1.97,1.97,0,0,1-.453,1.472,1.59,1.59,0,0,1-1.463.291,1.357,1.357,0,0,1-.854-1.107,3.7,3.7,0,0,1,.187-1.931A1.185,1.185,0,0,1,302.3,161.948Z" transform="translate(-282.303 -151.509)" fill="#2b9e39"/><path d="M483.028,161.954a1.647,1.647,0,0,1,1.306.12,2.147,2.147,0,0,1,.559,1.73,2.122,2.122,0,0,1-.44,1.464,1.491,1.491,0,0,1-1.3.325,1.124,1.124,0,0,1-.895-.7,3.239,3.239,0,0,1-.175-1.453A1.475,1.475,0,0,1,483.028,161.954Z" transform="translate(-446.596 -151.493)" fill="#2b9e39"/><path d="M539.926,180.862a7.256,7.256,0,0,1,1.927-.192,1.829,1.829,0,0,1-.514,1.6,1.779,1.779,0,0,1-1.516.376A1.016,1.016,0,0,1,539.926,180.862Z" transform="translate(-498.629 -168.576)" fill="#2b9e39"/></g><g transform="translate(106.811 73.288)"><path d="M243.713,324.519a1.383,1.383,0,0,1,.864-.394c1.326-.011,2.652,0,3.978,0-.011,1.473-.028,2.945.006,4.417a1.893,1.893,0,0,1-.323.078c-1.693.005-3.388-.018-5.083.011-.028-1.12-.036-2.243,0-3.363C243.381,325.042,243.453,324.709,243.713,324.519Z" transform="translate(-243.132 -324.116)" fill="#c2a16b"/><path d="M303.56,324.141a13.943,13.943,0,0,1,1.587-.04c1.48.011,2.961-.023,4.44.017,0,.432,0,.866,0,1.3-1.964-.017-3.929,0-5.894-.009-.03-.053-.089-.16-.118-.213A2.224,2.224,0,0,0,303.56,324.141Z" transform="translate(-298.047 -324.096)" fill="#c2a16b"/><path d="M371.541,324.109c1.293-.041,2.588-.026,3.882-.009a1.822,1.822,0,0,1,1.24,1.155c.023,1.111.034,2.225-.005,3.336-1.678-.009-3.356-.032-5.034.011a2.119,2.119,0,0,1-.083-.511Q371.549,326.1,371.541,324.109Z" transform="translate(-359.825 -324.083)" fill="#c2a16b"/><path d="M303.575,340.6l.1-.232c1.9.03,3.8-.005,5.7.017.16-.012.243.167.222.306q0,4.751,0,9.5a.719.719,0,0,1-.1.329q-2.92-.029-5.842,0c0-.57-.044-1.137-.085-1.705a13.005,13.005,0,0,0,.021-2.651,5.732,5.732,0,0,0,.034-1.269c-.064-.4.077-.794-.008-1.188a8,8,0,0,1,.028-1.279A11.154,11.154,0,0,0,303.575,340.6Z" transform="translate(-298.056 -338.884)" fill="#c2a16b"/><path d="M243.155,375.473c1.774,0,3.549,0,5.323,0a2.193,2.193,0,0,1,.074.591c-.015,1.342,0,2.685-.006,4.026.038.185-.147.309-.313.306-1.69,0-3.38-.028-5.07.011C243.118,378.763,243.134,377.117,243.155,375.473Z" transform="translate(-243.134 -370.784)" fill="#c2a16b"/><path d="M371.523,375.772c-.016-.132.033-.338.211-.307,1.637-.021,3.274-.009,4.912-.009q.038,2.421,0,4.844c-1.543.024-3.086,0-4.629.012-.183-.007-.506.039-.488-.238C371.521,378.641,371.53,377.207,371.523,375.772Z" transform="translate(-359.807 -370.767)" fill="#c2a16b"/><path d="M243.169,431.382c1.762,0,3.525-.027,5.285.014l.1.109c.04,1.119-.01,2.242.025,3.362-1.295.043-2.591.006-3.886.018-.391.047-.691-.248-1-.439a2.6,2.6,0,0,1-.52-.84C243.147,432.866,243.157,432.123,243.169,431.382Z" transform="translate(-243.154 -421.586)" fill="#c2a16b"/><path d="M371.488,431.407c1.708-.017,3.415,0,5.123-.008.03.655.005,1.311.016,1.967a1.666,1.666,0,0,1-.968,1.425c-.185.158-.442.1-.664.119-1.171-.016-2.344.022-3.514-.018C371.5,433.73,371.484,432.569,371.488,431.407Z" transform="translate(-359.771 -421.608)" fill="#c2a16b"/><path d="M304.24,453.577a1.363,1.363,0,0,1,.431-.081c1.841.015,3.682,0,5.522.006.015.49.01.981.015,1.472-1.987.026-3.975.019-5.962,0C304.25,454.51,304.257,454.044,304.24,453.577Z" transform="translate(-298.665 -441.689)" fill="#c2a16b"/></g><g transform="translate(103.894 73.292)"><path d="M248.7,324.13l.09.04a2.224,2.224,0,0,1,.013,1.054c.029.053.088.16.118.213,1.964.009,3.929-.008,5.894.009,0-.432,0-.866,0-1.3l.176,0q.005,1.991,0,3.982a2.119,2.119,0,0,0,.083.511c1.678-.043,3.356-.02,5.034-.011,0,.046,0,.137.006.182-1.638,0-3.275-.012-4.912.009-.178-.031-.226.174-.211.307.007,1.434,0,2.868,0,4.3-.018.277.3.231.488.238,1.543-.007,3.086.012,4.629-.012q0,.127,0,.257c-1.708.007-3.415-.009-5.123.008,0,1.161.011,2.323-.008,3.484l-.167,0c0-.491,0-.982-.015-1.472-1.84-.006-3.681.008-5.522-.006a1.363,1.363,0,0,0-.431.081c.017.467.01.933.005,1.4l-.157-.007c-.035-1.12.016-2.242-.025-3.362l-.1-.109c-1.76-.041-3.523-.01-5.285-.014l.015-.173c1.69-.039,3.38-.015,5.07-.011.166,0,.351-.12.313-.306,0-1.341-.008-2.684.006-4.026a2.193,2.193,0,0,0-.074-.591c-1.774,0-3.549,0-5.323,0,0-.045,0-.134,0-.179,1.694-.029,3.389-.005,5.083-.011a1.893,1.893,0,0,0,.323-.078c-.035-1.472-.017-2.945-.006-4.417m.1,1.713a11.155,11.155,0,0,1,.07,1.832,8,8,0,0,0-.028,1.279c.085.394-.056.792.008,1.188a5.734,5.734,0,0,1-.034,1.269,13,13,0,0,1-.021,2.651c.041.568.087,1.135.085,1.705q2.92-.029,5.842,0a.719.719,0,0,0,.1-.329q0-4.751,0-9.5c.021-.139-.062-.317-.222-.306-1.9-.023-3.8.013-5.7-.017C248.87,325.67,248.82,325.786,248.794,325.843Z" transform="translate(-240.359 -324.13)" fill="#83c78c"/><path d="M211.164,688.09c5.977.008,11.953,0,17.931.005,0,1.661-.016,3.324,0,4.986-5.979,0-11.959.012-17.939-.006Q211.179,690.583,211.164,688.09Z" transform="translate(-211.16 -654.885)" fill="#83c78c"/><path d="M211.166,779.146q25.125-.018,50.25-.005c1.722.014,3.446-.026,5.167.021-.018,1.648-.025,3.3,0,4.943-2.482.049-4.964.005-7.446.021q-23.984-.005-47.967-.006C211.157,782.461,211.166,780.8,211.166,779.146Z" transform="translate(-211.163 -737.627)" fill="#83c78c"/></g><g transform="translate(103.895 97.009)"><path d="M211.17,584.09c6.879.011,13.758,0,20.637.006-.005,2.083-.015,4.167.005,6.249-6.879.029-13.758.01-20.637.01C211.165,588.268,211.177,586.178,211.17,584.09Z" transform="translate(-211.17 -584.09)" fill="#d5edd7"/><path d="M537.538,584.1q10.269.008,20.539,0c-.009,2.088,0,4.177,0,6.266q-10.273,0-20.545,0C537.553,588.279,537.536,586.189,537.538,584.1Z" transform="translate(-507.756 -584.099)" fill="#d5edd7"/><path d="M863.26,584.13H883.8q-.01,3.132,0,6.265-10.268,0-20.534,0C863.264,588.3,863.276,586.216,863.26,584.13Z" transform="translate(-803.769 -584.126)" fill="#d5edd7"/><path d="M1188.635,584.109c6.877-.016,13.755,0,20.632-.009q0,3.132,0,6.266-7.928.008-15.856,0c-1.594-.009-3.188.017-4.78-.013C1188.651,588.274,1188.642,586.191,1188.635,584.109Z" transform="translate(-1099.455 -584.099)" fill="#d5edd7"/></g><g transform="translate(196.15 114.691)"><path d="M1222.38,777.936c.534-.024,1.069.015,1.6-.015,3.285.018,6.57,0,9.856,0,.18,0,.362,0,.545,0,.7,0,1.4.018,2.1,0q.543.026,1.09,0c.547.021,1.1.016,1.643-.012a11.882,11.882,0,0,0,1.275.012c.555.03,1.11-.01,1.666.02-.011,2.378-.007,4.758,0,7.136-6.592.02-13.186,0-19.778.009C1222.382,782.7,1222.389,780.32,1222.38,777.936Z" transform="translate(-1222.38 -777.91)" fill="#0e1c43"/></g></g></svg>