<svg xmlns="http://www.w3.org/2000/svg" xml:space="preserve" width="24" height="24" baseProfile="full" preserveAspectRatio="none" shape-rendering="geometricPrecision">&quot;<path fill="none" stroke="#1a1a1a" stroke-width="1.6" d="M7.47273 10.3487c0-.45536.86524-1.7765 1.49965-2.68399.38191-.54629.38216-1.27851-.01778-1.81175L6.1662 2.13524c-.4777-.6369-1.36866-.78864-2.00484-.30999C2.88323 2.78688 1 4.36494 1 5.31488 1.42759 13.517 10.4821 22.5744 18.684 22.9995c.9507 0 2.529-1.8832 3.4907-3.1614.4787-.6362.3269-1.5272-.31-2.0049l-3.7183-2.7883c-.5334-.4001-1.266-.3996-1.8123-.0173-.9071.6348-2.2272 1.5002-2.6825 1.5002-2.1567-.7189-5.45996-4.0223-6.17887-6.1791Z" clip-rule="evenodd"/></svg>