<svg xmlns="http://www.w3.org/2000/svg" width="95.691" height="100" viewBox="0 0 95.691 100"><g transform="translate(-11.024)"><g transform="translate(22.84)"><path d="M240.265,0h.348a1.858,1.858,0,0,1,.828.959,10.075,10.075,0,0,0,2.984,3.465,15.124,15.124,0,0,0,4.822,2.416,2.844,2.844,0,0,0,1.4.133,32.35,32.35,0,0,1,4.91-.492l.207.059c.2.781-.486,1.27-.846,1.867a8.356,8.356,0,0,0-1.133,4.6,42.194,42.194,0,0,1,5.246-.523.72.72,0,0,1,.846.8,14.544,14.544,0,0,1-1.084,1.529,10.791,10.791,0,0,0-1.6,6.127,40.665,40.665,0,0,0-8.355,1.988c-.477-.7-1.113-1.268-1.639-1.928a4.82,4.82,0,0,1-.145-4.658,6.1,6.1,0,0,0,.5-1.7,17.292,17.292,0,0,0-4.875,2.7,14.907,14.907,0,0,0-3.039-1.949,10.239,10.239,0,0,1,3.029-5.24,14.635,14.635,0,0,0-5.01-2.484c.23-1.1.48-2.193.77-3.279.373-1.291.723-2.592,1.211-3.844C239.724.248,240.01.119,240.265,0Z" transform="translate(-205.211)" fill="#fe788d"/><path d="M397.447,70.828c.35-.447.6-1.266,1.311-1.176.52.055.637.6.734,1.02a8.593,8.593,0,0,0,1.613,3.494,6.811,6.811,0,0,0,1.787,1.891,9.651,9.651,0,0,0,2.723,1.973,39.516,39.516,0,0,1,4.66.754.451.451,0,0,1,.139.809,7.306,7.306,0,0,0-2.359,2.682,13.814,13.814,0,0,0-.625,1.793c.619.088,1.238.164,1.857.256.977.17,1.965.295,2.924.557a.608.608,0,0,1,.25,1.084,11.374,11.374,0,0,0-1.8,1.557,10.468,10.468,0,0,0-2.121,4.252,39.446,39.446,0,0,0-7.711-.258c-.412-1.008-1.168-1.918-1.172-3.055a4.638,4.638,0,0,1,1.135-3.016,6.469,6.469,0,0,0,.832-1.361,14.955,14.955,0,0,0-4.859,1.156,14.264,14.264,0,0,0-2.2-2.393,9.3,9.3,0,0,1,3.836-3.812,11.906,11.906,0,0,0-3.746-3.354A49.953,49.953,0,0,1,397.447,70.828Z" transform="translate(-331.474 -56.042)" fill="#fe788d"/><path d="M71.653,74.518a.775.775,0,0,1,.742-.811c.383-.039.621.316.871.543A9.232,9.232,0,0,0,75.417,76a12.478,12.478,0,0,0,5.361,1.572,3.879,3.879,0,0,0,1.91-.143,26.51,26.51,0,0,1,3.975-1.516.454.454,0,0,1,.6.387c-.17.654-.5,1.256-.633,1.922a7.552,7.552,0,0,0,.258,3.693c.58-.256,1.164-.5,1.746-.752a11.236,11.236,0,0,1,2.936,6.451c-.02.123-.061.367-.08.488A34.533,34.533,0,0,0,84.9,91.69c-.977-.742-2.248-1.24-2.77-2.436-.713-1.393-.189-2.957-.293-4.434a14.669,14.669,0,0,0-3.6,3.428,15.521,15.521,0,0,0-3.111-.967A9.532,9.532,0,0,1,76.528,82a13.525,13.525,0,0,0-4.92-.977c-.02-.359-.039-.717-.057-1.074A48.53,48.53,0,0,1,71.653,74.518Z" transform="translate(-71.521 -59.309)" fill="#fe788d"/></g><g transform="translate(11.024 4.385)"><path d="M91.47,34.757A47.868,47.868,0,0,1,120.792,22.45c-.289,1.086-.539,2.18-.77,3.279a31.222,31.222,0,0,0-7.361-1.172.562.562,0,0,0-.693.531,4.976,4.976,0,0,0,.738,1.133,8.154,8.154,0,0,1,1.309,4.859,41.881,41.881,0,0,0-5.27-.533.722.722,0,0,0-.838.793,7.878,7.878,0,0,0,.916,1.295,10.06,10.06,0,0,1,1.729,4.924c.014.479.008.959,0,1.438a45.328,45.328,0,0,0-5.316-.41.868.868,0,0,0-.551,1.334c-.582.25-1.166.5-1.746.752a7.552,7.552,0,0,1-.258-3.693c.133-.666.463-1.268.633-1.922a.454.454,0,0,0-.6-.387,26.51,26.51,0,0,0-3.975,1.516,3.879,3.879,0,0,1-1.91.143A12.478,12.478,0,0,1,91.47,34.757Z" transform="translate(-75.758 -22.45)" fill="#543e5b"/><path d="M272.3,22.65a45.474,45.474,0,0,1,11.133,2.057,32.35,32.35,0,0,0-4.91.492,2.844,2.844,0,0,1-1.4-.133A15.124,15.124,0,0,1,272.3,22.65Z" transform="translate(-221.27 -22.611)" fill="#543e5b"/><path d="M322.207,33.48a49.209,49.209,0,0,1,15.418,8.246,49.953,49.953,0,0,0-2.787,4.852,27.978,27.978,0,0,0-6.148-2.73c-.4-.2-.908.221-.633.633a8.338,8.338,0,0,1,.7,2.943c-1.711.1-3.422.232-5.121.459a10.791,10.791,0,0,1,1.6-6.127,14.544,14.544,0,0,0,1.084-1.529.72.72,0,0,0-.846-.8,42.193,42.193,0,0,0-5.246.523,8.356,8.356,0,0,1,1.133-4.6C321.721,34.75,322.407,34.261,322.207,33.48Z" transform="translate(-259.837 -31.326)" fill="#543e5b"/><path d="M428.03,92.79a16.2,16.2,0,0,1,1.787,1.891A6.811,6.811,0,0,1,428.03,92.79Z" transform="translate(-346.584 -79.052)" fill="#543e5b"/><path d="M67.02,106.764c.3-.357.6-.711.91-1.064.018.357.037.715.057,1.074C67.665,106.766,67.342,106.762,67.02,106.764Z" transform="translate(-56.083 -89.44)" fill="#543e5b"/><path d="M460.41,136.093a13.814,13.814,0,0,1,.625-1.793c-.012.76.543,1.346.875,1.984l.357.064C461.648,136.257,461.029,136.181,460.41,136.093Z" transform="translate(-372.639 -112.454)" fill="#543e5b"/><path d="M45.62,135.36c.17.436.3.883.441,1.33-.451.051-.9.1-1.352.16C45,136.346,45.31,135.852,45.62,135.36Z" transform="translate(-38.131 -113.307)" fill="#543e5b"/><path d="M27.043,160.16a10.712,10.712,0,0,1,1.912,3.652c.027.125.078.373.1.5-1.344.25-2.7.428-4.039.705C25.627,163.369,26.319,161.758,27.043,160.16Z" transform="translate(-22.286 -133.264)" fill="#543e5b"/><path d="M466.11,165.412a10.468,10.468,0,0,1,2.121-4.252,53.256,53.256,0,0,1,2.053,4.957C468.9,165.851,467.508,165.594,466.11,165.412Z" transform="translate(-377.226 -134.068)" fill="#543e5b"/><path d="M13.2,193.59a11.165,11.165,0,0,1,4.566,7.494,17.679,17.679,0,0,0,1.02,4.16,13.629,13.629,0,0,0,8.268,7.6,16.8,16.8,0,0,0,8.6.623,34.116,34.116,0,0,1,1.164,5.5,30.493,30.493,0,0,1-4.5-.369c-.637-.184-1,.623-.619,1.086a38.309,38.309,0,0,1,3.916,9.727,13.676,13.676,0,0,0,3.57,6.441,3.9,3.9,0,0,1,1.1,1.418c.42,1.068.98,2.074,1.434,3.129a14.215,14.215,0,0,0-4.99-3.842,7.618,7.618,0,0,0-3.639-.687,4.958,4.958,0,0,0-3.467,1.6,15.919,15.919,0,0,1-4.988,3.875A47.867,47.867,0,0,1,13.2,193.59Z" transform="translate(-11.024 -160.164)" fill="#543e5b"/><path d="M351.337,203.065c.451-3.213,1.93-6.5,4.762-8.275a47.93,47.93,0,0,1-32.539,60.117,46.783,46.783,0,0,1,1.492-5.754,6.458,6.458,0,0,1,.535-1.393,15.086,15.086,0,0,0,2.277-.965,11.085,11.085,0,0,0,3.422-3.115c.881-1.187,1.467-2.555,2.248-3.8a34.508,34.508,0,0,1,1.939-2.859,8.689,8.689,0,0,0,6.752-.293,8.932,8.932,0,0,0,3.561-3.945,24.8,24.8,0,0,1,3.645-5.715c.285-.258.455-.824-.066-.889a18.274,18.274,0,0,1-5.865-1.152c-1.193-.449-2.3-1.258-3.627-1.244a6.463,6.463,0,0,0-3.3.9,11.641,11.641,0,0,0-4.137,4.439,56.612,56.612,0,0,0,.832-7.143,40.011,40.011,0,0,1,1.2-7.057,17.621,17.621,0,0,0,6.85-.537,14.535,14.535,0,0,0,6.926-4.328A13.066,13.066,0,0,0,351.337,203.065Z" transform="translate(-262.518 -161.13)" fill="#543e5b"/><path d="M163.594,237.12a18.884,18.884,0,0,0,9.5,3.627,39.771,39.771,0,0,1-.414,5.23A8.787,8.787,0,0,0,168.893,244a1.651,1.651,0,0,0-1.824,2.146,2.046,2.046,0,0,0,1.541,1.2,4.542,4.542,0,0,1,3.08,3.23,10.89,10.89,0,0,1-.2,1.547,50.54,50.54,0,0,0-.682,9.2c-1.422-3.477-3.846-6.906-7.508-8.225a7.666,7.666,0,0,0-4.381-.2c-1.307.381-2.639.672-3.977.928a13.09,13.09,0,0,1-.318-1.3c-.223-1.641-.658-3.24-1.021-4.854a17,17,0,0,0,6.34-4.137A14.83,14.83,0,0,0,163.594,237.12Z" transform="translate(-125.753 -195.192)" fill="#543e5b"/><path d="M262.488,247.434a20.8,20.8,0,0,0,6.01-1.934,15.9,15.9,0,0,0,6.717,7.768,9.733,9.733,0,0,0,3.84,1.547,39.791,39.791,0,0,0-1.307,7.822,13.131,13.131,0,0,0-3.814-2.824,1.971,1.971,0,0,0-1.645-.219,1.648,1.648,0,0,0-.934,2.209c.221.566.813.814,1.313,1.08a8.229,8.229,0,0,1,3.01,2.443c.574.77.705,1.842,1.547,2.408a35.913,35.913,0,0,1-.949,4.129,7.787,7.787,0,0,0-3.752-1.34,8.4,8.4,0,0,0-3.406.633,13.531,13.531,0,0,0-6,5.271,23.072,23.072,0,0,0-2.607,5.77c-.059-.322-.109-.645-.164-.965-.078-.473-.145-.945-.24-1.412a71.35,71.35,0,0,1-1.279-7.268,4.6,4.6,0,0,1,2.049-3.273,13.27,13.27,0,0,1,3.064-1.414,1.641,1.641,0,0,0,.188-2.721,2.323,2.323,0,0,0-2.316-.012,12.507,12.507,0,0,0-3.205,1.713,35.926,35.926,0,0,1,.4-6.312,10.788,10.788,0,0,0,4.748,1.482,4.808,4.808,0,0,0,3.934-1.715c1.158-1.516,1.725-3.4,2.992-4.85.217-.363.732-.672.617-1.145-.951-.168-1.93-.156-2.865-.418a14.282,14.282,0,0,1-2.592-.986,4.075,4.075,0,0,0-2.666-.078,7.334,7.334,0,0,0-3.154,2.615,48.618,48.618,0,0,0,.83-7.941A7.049,7.049,0,0,0,262.488,247.434Z" transform="translate(-210.241 -201.936)" fill="#543e5b"/><path d="M192.635,418.212a13.287,13.287,0,0,0,1.744-.652,12.764,12.764,0,0,1,1.789,2.4,39.214,39.214,0,0,1,.43,5.3,47.4,47.4,0,0,1-.693,10.746h-.086a56.132,56.132,0,0,1-7.277-.77,40.733,40.733,0,0,0-1.205-5.328,3.967,3.967,0,0,1,1.668-3.8c.578-.408,1.391-.682,1.564-1.457a1.643,1.643,0,0,0-1.967-2.045,7.408,7.408,0,0,0-2.943,2.09c-.758-2.02-1.883-3.867-2.809-5.809A21.544,21.544,0,0,0,192.635,418.212Z" transform="translate(-149.29 -340.39)" fill="#543e5b"/><path d="M267.336,453.936a13.255,13.255,0,0,1,1.029-1.436,21.968,21.968,0,0,0,7.844,2.795,58.023,58.023,0,0,0-1.914,7.852,63.3,63.3,0,0,1-7.625.961A51.416,51.416,0,0,0,267.336,453.936Z" transform="translate(-216.739 -368.506)" fill="#543e5b"/><path d="M138.123,454.94c.736.252,1.449.57,2.164.879a41.32,41.32,0,0,1,1.439,4.23c.068.264.143.527.221.791.266.891.482,1.795.67,2.705a1.857,1.857,0,0,0,.482,1.1,48.846,48.846,0,0,1-12.76-5.348C133.449,459.11,136.129,457.217,138.123,454.94Z" transform="translate(-107.036 -370.469)" fill="#543e5b"/></g><g transform="translate(15.767 6.484)"><path d="M196.414,33.738a.562.562,0,0,1,.693-.531,31.222,31.222,0,0,1,7.361,1.172,14.635,14.635,0,0,1,5.01,2.484,10.239,10.239,0,0,0-3.029,5.24,28.861,28.861,0,0,0-7.988-2.373,8.154,8.154,0,0,0-1.309-4.859A4.976,4.976,0,0,1,196.414,33.738Z" transform="translate(-164.947 -33.199)" fill="#ff4155"/><path d="M247.105,77.657a17.292,17.292,0,0,1,4.875-2.7,6.1,6.1,0,0,1-.5,1.7,4.82,4.82,0,0,0,.145,4.658c.525.66,1.162,1.227,1.639,1.928a40.665,40.665,0,0,1,8.355-1.988c1.7-.227,3.41-.355,5.121-.459a8.338,8.338,0,0,0-.7-2.943c-.275-.412.236-.836.633-.633a27.978,27.978,0,0,1,6.148,2.73,11.906,11.906,0,0,1,3.746,3.354,9.3,9.3,0,0,0-3.836,3.813,25.863,25.863,0,0,0-5.6-3.557c-.219-.08-.582-.293-.74-.014a12.4,12.4,0,0,0-1.9,7.2c-.018,1.516.287,3.018.217,4.535a14.354,14.354,0,0,1-3.15,8.486,17.8,17.8,0,0,1-4.408,3.9,12.79,12.79,0,0,1-6.637-6.893c-1.365-3.678-.824-7.752.361-11.4a31.659,31.659,0,0,1,1.959-4.689,3.589,3.589,0,0,0,.33-1.346,21.131,21.131,0,0,0-6.068,3.307,18.9,18.9,0,0,0-3.943-2.484A12.556,12.556,0,0,1,247.105,77.657Z" transform="translate(-202.564 -66.804)" fill="#ff4155"/><path d="M35.648,111.906a27.978,27.978,0,0,1,5.854-.758c.322,0,.645,0,.967.01a13.525,13.525,0,0,1,4.92.977,9.532,9.532,0,0,0-1.4,5.277,25.476,25.476,0,0,0-7.49-.205c-.139-.447-.271-.895-.441-1.33a6.763,6.763,0,0,0-2.506-3.125A.458.458,0,0,1,35.648,111.906Z" transform="translate(-35.308 -95.923)" fill="#ff4155"/><path d="M97.847,134.048a14.669,14.669,0,0,1,3.6-3.428c.1,1.477-.42,3.041.293,4.434.521,1.2,1.793,1.693,2.77,2.436A34.533,34.533,0,0,1,111.1,133.9c.02-.121.061-.365.08-.488a29.3,29.3,0,0,1-.133,5.865,14.81,14.81,0,0,0,6.107,12.141,14.83,14.83,0,0,1-3.654,6.414,14.322,14.322,0,0,1-4.812-2.02,11.131,11.131,0,0,1-4.469-7.084,23.365,23.365,0,0,1-.041-8.459,6.1,6.1,0,0,0,.221-2.68,19.389,19.389,0,0,0-4.49,4.3,14.867,14.867,0,0,0-4.02-1.246A11.647,11.647,0,0,1,97.847,134.048Z" transform="translate(-84.058 -111.592)" fill="#ff4155"/><path d="M385.534,144.716a14.955,14.955,0,0,1,4.859-1.156,6.469,6.469,0,0,1-.832,1.361,4.638,4.638,0,0,0-1.135,3.016c0,1.137.76,2.047,1.172,3.055a39.446,39.446,0,0,1,7.711.258c1.4.182,2.787.439,4.174.705.4.094.934.209,1.006.7.113.395-.2.7-.482.912-2.832,1.779-4.311,5.063-4.762,8.275a13.066,13.066,0,0,1-3.1,6.984,14.535,14.535,0,0,1-6.926,4.328,12.148,12.148,0,0,1-4.01-6.844c-.6-3.557.762-7.1,2.609-10.086a26.261,26.261,0,0,1,2.951-3.908,4.492,4.492,0,0,0,.76-1.227,18.06,18.06,0,0,0-6.086,1.471,16.794,16.794,0,0,0-2.838-3.07A11.315,11.315,0,0,1,385.534,144.716Z" transform="translate(-313.168 -122.005)" fill="#ff4155"/></g><g transform="translate(13.662 12.472)"><path d="M175.6,64.659a.722.722,0,0,1,.838-.793,41.881,41.881,0,0,1,5.27.533,28.861,28.861,0,0,1,7.988,2.373,14.907,14.907,0,0,1,3.039,1.949,12.556,12.556,0,0,0-3.945,6.5,39.215,39.215,0,0,0-10.355-2.9q-.1-.721-.189-1.441a10.06,10.06,0,0,0-1.729-4.924A7.878,7.878,0,0,1,175.6,64.659Z" transform="translate(-146.092 -63.855)" fill="#e80054"/><path d="M241.473,121.147a21.131,21.131,0,0,1,6.068-3.307,3.589,3.589,0,0,1-.33,1.346,31.659,31.659,0,0,0-1.959,4.689c-1.186,3.65-1.727,7.725-.361,11.4a12.79,12.79,0,0,0,6.637,6.893c-.352.219-.713.418-1.08.6a20.8,20.8,0,0,1-6.01,1.934,7.049,7.049,0,0,1-1.635.064,10.757,10.757,0,0,0-1.652-.219,9.749,9.749,0,0,1-3.123-2.408c-1.211-1.5-1.439-3.475-1.672-5.318a19.207,19.207,0,0,1,2.279-12.367A11.706,11.706,0,0,1,241.473,121.147Z" transform="translate(-194.829 -107.296)" fill="#e80054"/><path d="M354.293,118.375c.158-.279.521-.066.74.014a25.863,25.863,0,0,1,5.6,3.557,14.264,14.264,0,0,1,2.2,2.393,11.315,11.315,0,0,0-4.924,4.773,25.261,25.261,0,0,0-5.506-3.541A12.4,12.4,0,0,1,354.293,118.375Z" transform="translate(-288.355 -107.614)" fill="#e80054"/><path d="M29.824,141.431a25.476,25.476,0,0,1,7.49.205,15.521,15.521,0,0,1,3.111.967,11.647,11.647,0,0,0-1.957,6.6,34.5,34.5,0,0,0-9.557-.137c-.121-.154-.236-.309-.35-.467a10.712,10.712,0,0,0-1.912-3.652,11.735,11.735,0,0,0-1.93-1.7.6.6,0,0,1,.307-1.021,32.109,32.109,0,0,1,3.445-.637C28.922,141.532,29.373,141.482,29.824,141.431Z" transform="translate(-24.531 -126.135)" fill="#e80054"/><path d="M107.165,170.619a19.389,19.389,0,0,1,4.49-4.3,6.1,6.1,0,0,1-.221,2.68,23.365,23.365,0,0,0,.041,8.459,11.131,11.131,0,0,0,4.469,7.084,14.322,14.322,0,0,0,4.813,2.02,17,17,0,0,1-6.34,4.137c-.646.121-1.3.182-1.955.262a6.323,6.323,0,0,1-4.859-2.951,20.356,20.356,0,0,1-2.693-10.041A13.019,13.019,0,0,1,107.165,170.619Z" transform="translate(-89.208 -146.307)" fill="#e80054"/><path d="M360.73,183.581a18.06,18.06,0,0,1,6.086-1.471,4.492,4.492,0,0,1-.76,1.227,26.261,26.261,0,0,0-2.951,3.908c-1.848,2.982-3.205,6.529-2.609,10.086a12.148,12.148,0,0,0,4.01,6.844,17.621,17.621,0,0,1-6.85.537,9.491,9.491,0,0,1-2.555-.867,6.457,6.457,0,0,1-2.486-3.514,9.98,9.98,0,0,1-.027-4.1,17.831,17.831,0,0,1,4.168-9.678A10.58,10.58,0,0,1,360.73,183.581Z" transform="translate(-288.346 -159.013)" fill="#e80054"/></g><g transform="translate(12.627 19.494)"><path d="M164.483,99.81q.094.721.189,1.441a39.215,39.215,0,0,1,10.355,2.9,18.9,18.9,0,0,1,3.943,2.484,11.706,11.706,0,0,0-2.838,3.313,19.207,19.207,0,0,0-2.279,12.367c.232,1.844.461,3.82,1.672,5.318a9.749,9.749,0,0,0,3.123,2.408,8.613,8.613,0,0,1-1.623.211,18.884,18.884,0,0,1-9.5-3.627,14.81,14.81,0,0,1-6.107-12.141,29.3,29.3,0,0,0,.133-5.865,11.236,11.236,0,0,0-2.936-6.451.868.868,0,0,1,.551-1.334,45.328,45.328,0,0,1,5.316.41C164.491,100.769,164.5,100.289,164.483,99.81Z" transform="translate(-131.292 -99.81)" fill="#cc0053"/><path d="M317.722,155.79a25.261,25.261,0,0,1,5.506,3.541,16.794,16.794,0,0,1,2.838,3.07,10.58,10.58,0,0,0-3.975,2.969,17.831,17.831,0,0,0-4.168,9.678,9.98,9.98,0,0,0,.027,4.1,6.457,6.457,0,0,0,2.486,3.514l-.58-.039a9.733,9.733,0,0,1-3.84-1.547,15.9,15.9,0,0,1-6.717-7.768c.367-.186.729-.385,1.08-.6a17.8,17.8,0,0,0,4.408-3.9,14.354,14.354,0,0,0,3.15-8.486C318.009,158.808,317.7,157.306,317.722,155.79Z" transform="translate(-252.646 -144.856)" fill="#cc0053"/><path d="M24.3,178.86c.113.158.229.313.35.467a34.5,34.5,0,0,1,9.557.137,14.867,14.867,0,0,1,4.02,1.246,13.019,13.019,0,0,0-2.256,7.35A20.356,20.356,0,0,0,38.66,198.1a6.323,6.323,0,0,0,4.859,2.951c-.418.193-.826.408-1.262.564a16.8,16.8,0,0,1-8.6-.623,13.629,13.629,0,0,1-8.268-7.6,17.679,17.679,0,0,1-1.02-4.16,11.165,11.165,0,0,0-4.566-7.494c-.332-.225-.7-.574-.537-1.018.121-.488.684-.549,1.092-.656,1.338-.277,2.7-.455,4.039-.705C24.375,179.233,24.324,178.985,24.3,178.86Z" transform="translate(-19.231 -163.421)" fill="#cc0053"/></g><g transform="translate(32.275 49.729)"><path d="M200.063,254.821a8.613,8.613,0,0,0,1.623-.211,10.757,10.757,0,0,1,1.652.219,48.618,48.618,0,0,1-.83,7.941,7.334,7.334,0,0,1,3.154-2.615,6.443,6.443,0,0,0,.416,5.264,5.956,5.956,0,0,0,4.1,2.213,4.808,4.808,0,0,1-3.934,1.715,10.788,10.788,0,0,1-4.748-1.482,35.926,35.926,0,0,0-.4,6.313,7.235,7.235,0,0,0-2.967,5.123,1.61,1.61,0,0,0,1.867,1.59,1.713,1.713,0,0,0,1.32-1.006,71.35,71.35,0,0,0,1.279,7.268c-3.525-5.172-8.633-9.027-14.031-12.074a5.12,5.12,0,0,1-1.439-.936,5.254,5.254,0,0,0,3.15-6.965c3.662,1.318,6.086,4.748,7.508,8.225a50.539,50.539,0,0,1,.682-9.2,10.891,10.891,0,0,0,.2-1.547,1.973,1.973,0,0,0,.955,1.549,1.637,1.637,0,0,0,2.4-1.557,7.4,7.4,0,0,0-2.365-4.594A39.771,39.771,0,0,0,200.063,254.821Z" transform="translate(-173.977 -254.61)" fill="#5aab5f"/><path d="M138.392,291.4c.652-.08,1.309-.141,1.955-.262.363,1.613.8,3.213,1.021,4.854a13.09,13.09,0,0,0,.318,1.3,22.372,22.372,0,0,1-3.393.166,34.116,34.116,0,0,0-1.164-5.5C137.566,291.81,137.974,291.6,138.392,291.4Z" transform="translate(-133.751 -284.005)" fill="#5aab5f"/><path d="M351.9,293.19l.58.039a9.491,9.491,0,0,0,2.555.867,40.011,40.011,0,0,0-1.2,7.057A56.612,56.612,0,0,1,353,308.3a11.641,11.641,0,0,1,4.137-4.439c-.139,1.014-.437,2.191.252,3.076a3.58,3.58,0,0,0,2.111,1.121,30.232,30.232,0,0,0-6.119,3.037c-.393.236-.824.629-1.311.4a19.794,19.794,0,0,1-2.953-1.248,35.913,35.913,0,0,0,.949-4.129,1.719,1.719,0,0,0,2.371-1.635,7.393,7.393,0,0,0-1.848-3.463A39.791,39.791,0,0,1,351.9,293.19Z" transform="translate(-304.337 -285.655)" fill="#5aab5f"/><path d="M134.341,369.75a41.948,41.948,0,0,1,12.514,9.338,13.287,13.287,0,0,1-1.744.652,21.544,21.544,0,0,1-9.785.678c.926,1.941,2.051,3.789,2.809,5.809a7.649,7.649,0,0,0-1.678,5.271,41.32,41.32,0,0,0-1.439-4.23,23.487,23.487,0,0,0-2.092-4.289,13.41,13.41,0,0,0-3.215-.811,26.343,26.343,0,0,0-5.92-.3,3.338,3.338,0,0,0,.8-2.1,3.5,3.5,0,0,0-.758-2.143,7.618,7.618,0,0,1,3.639.688,14.215,14.215,0,0,1,4.99,3.842c-.453-1.055-1.014-2.061-1.434-3.129a3.9,3.9,0,0,0-1.1-1.418c1.568-.59,3.264-1.318,4.158-2.818C135.056,373.293,134.831,371.375,134.341,369.75Z" transform="translate(-123.017 -347.262)" fill="#5aab5f"/><path d="M255.952,382.131a13.531,13.531,0,0,1,6-5.271c-.455,1.107-1.256,2.293-.848,3.533.289.945,1.244,1.379,2.068,1.762a33.761,33.761,0,0,0-4.814,2.158,21.881,21.881,0,0,0-6.93,6.148c-.461.662-1.105,1.35-1.008,2.223a1.623,1.623,0,0,0,1.859,1.449,1.93,1.93,0,0,0,1.393-1.064,51.416,51.416,0,0,1-.666,10.172l-.086.014h-3.23a47.4,47.4,0,0,0,.693-10.746,39.214,39.214,0,0,0-.43-5.3,1.923,1.923,0,0,0,1.547.842c.76.057,1.232-.613,1.68-1.111.055.32.105.643.164.965A23.072,23.072,0,0,1,255.952,382.131Z" transform="translate(-224.327 -352.983)" fill="#5aab5f"/><path d="M386.4,386a14.334,14.334,0,0,1,3.492-1.342,5.506,5.506,0,0,0-.053,3.486,3.379,3.379,0,0,0,1.475,1.363,8.689,8.689,0,0,1-6.752.293c.67-.975,1.482-1.832,2.24-2.734C387.164,386.676,386.622,386.293,386.4,386Z" transform="translate(-332.855 -359.26)" fill="#5aab5f"/><path d="M275.35,426.4a20.5,20.5,0,0,1,9.873-6.336,6.638,6.638,0,0,0-.619,5.311c.777,1.732,2.787,2.27,4.467,2.7a15.086,15.086,0,0,1-2.277.965,6.458,6.458,0,0,0-.535,1.393,46.783,46.783,0,0,0-1.492,5.754c-1.146.346-2.312.631-3.486.863a58.023,58.023,0,0,1,1.914-7.852A21.968,21.968,0,0,1,275.35,426.4Z" transform="translate(-244.975 -387.746)" fill="#5aab5f"/><path d="M120.643,448.428a23.031,23.031,0,0,1,9.023,1.238c-1.994,2.277-4.674,4.17-7.783,4.355a14.711,14.711,0,0,1-2.053-.461,4.53,4.53,0,0,0,1.5-3.271A10.768,10.768,0,0,0,120.643,448.428Z" transform="translate(-119.83 -410.539)" fill="#5aab5f"/><path d="M191.368,482.253a1.854,1.854,0,0,0,1.537-1.473,40.733,40.733,0,0,1,1.205,5.328c-1.07-.184-2.133-.414-3.187-.672a1.857,1.857,0,0,1-.482-1.1c-.187-.91-.4-1.814-.67-2.705A2.307,2.307,0,0,0,191.368,482.253Z" transform="translate(-176.11 -436.606)" fill="#5aab5f"/></g><g transform="translate(23.277 53.163)"><path d="M222.155,274.373a1.651,1.651,0,0,1,1.824-2.147,8.787,8.787,0,0,1,3.783,1.975,7.4,7.4,0,0,1,2.365,4.594,1.637,1.637,0,0,1-2.4,1.557,1.973,1.973,0,0,1-.955-1.549,4.542,4.542,0,0,0-3.08-3.23A2.046,2.046,0,0,1,222.155,274.373Z" transform="translate(-193.092 -272.194)" fill="#8dd278"/><path d="M280.581,282.237a4.075,4.075,0,0,1,2.666.078,14.282,14.282,0,0,0,2.592.986c.936.262,1.914.25,2.865.418.115.473-.4.781-.617,1.145-1.268,1.447-1.834,3.334-2.992,4.85A5.955,5.955,0,0,1,281,287.5,6.443,6.443,0,0,1,280.581,282.237Z" transform="translate(-239.897 -280.127)" fill="#8dd278"/><path d="M128.728,316.954a7.666,7.666,0,0,1,4.381.2,5.254,5.254,0,0,1-3.15,6.965,5.12,5.12,0,0,0,1.439.936c5.4,3.047,10.506,6.9,14.031,12.074.1.467.162.939.24,1.412-.447.5-.92,1.168-1.68,1.111a1.923,1.923,0,0,1-1.547-.842,12.764,12.764,0,0,0-1.789-2.4,41.948,41.948,0,0,0-12.514-9.338c.49,1.625.715,3.543-.258,5.037-.895,1.5-2.59,2.229-4.158,2.818a13.676,13.676,0,0,1-3.57-6.441,38.309,38.309,0,0,0-3.916-9.727c-.377-.463-.018-1.27.619-1.086a30.493,30.493,0,0,0,4.5.369,22.372,22.372,0,0,0,3.393-.166C126.089,317.626,127.421,317.335,128.728,316.954Z" transform="translate(-107.817 -308.024)" fill="#8dd278"/><path d="M324.259,317.226a1.971,1.971,0,0,1,1.645.219,13.131,13.131,0,0,1,3.814,2.824,7.393,7.393,0,0,1,1.848,3.463,1.719,1.719,0,0,1-2.371,1.635c-.842-.566-.973-1.639-1.547-2.408a8.229,8.229,0,0,0-3.01-2.443c-.5-.266-1.092-.514-1.312-1.08A1.648,1.648,0,0,1,324.259,317.226Z" transform="translate(-274.464 -308.346)" fill="#8dd278"/><path d="M280.1,344.079a6.463,6.463,0,0,1,3.3-.9c1.324-.014,2.434.795,3.627,1.244a18.274,18.274,0,0,0,5.865,1.152c.521.064.352.631.066.889a24.8,24.8,0,0,0-3.645,5.715,8.932,8.932,0,0,1-3.561,3.945,3.379,3.379,0,0,1-1.475-1.363,5.506,5.506,0,0,1,.053-3.486,14.334,14.334,0,0,0-3.492,1.342c.225.291.766.674.4,1.066-.758.9-1.57,1.76-2.24,2.734a34.508,34.508,0,0,0-1.939,2.859c-.781,1.25-1.367,2.617-2.248,3.8a11.085,11.085,0,0,1-3.422,3.115c-1.68-.428-3.689-.965-4.467-2.7a6.638,6.638,0,0,1,.619-5.311,20.5,20.5,0,0,0-9.873,6.336,13.255,13.255,0,0,0-1.029,1.436,1.93,1.93,0,0,1-1.393,1.064,1.623,1.623,0,0,1-1.859-1.449c-.1-.873.547-1.561,1.008-2.223a21.881,21.881,0,0,1,6.93-6.148,33.761,33.761,0,0,1,4.814-2.158c-.824-.383-1.779-.816-2.068-1.762-.408-1.24.393-2.426.848-3.533a8.4,8.4,0,0,1,3.406-.633,7.787,7.787,0,0,1,3.752,1.34,19.794,19.794,0,0,0,2.953,1.248c.486.232.918-.16,1.311-.4a30.232,30.232,0,0,1,6.119-3.037,3.58,3.58,0,0,1-2.111-1.121C279.661,346.27,279.959,345.092,280.1,344.079Z" transform="translate(-218.297 -329.312)" fill="#8dd278"/><path d="M249.625,344.741a2.323,2.323,0,0,1,2.316.012,1.641,1.641,0,0,1-.187,2.721,13.27,13.27,0,0,0-3.064,1.414,4.6,4.6,0,0,0-2.049,3.273,1.713,1.713,0,0,1-1.32,1.006,1.61,1.61,0,0,1-1.867-1.59,7.235,7.235,0,0,1,2.967-5.123A12.507,12.507,0,0,1,249.625,344.741Z" transform="translate(-210.308 -330.322)" fill="#8dd278"/><path d="M80.1,411.664a4.958,4.958,0,0,1,3.467-1.6,3.5,3.5,0,0,1,.758,2.143,3.338,3.338,0,0,1-.8,2.1,26.343,26.343,0,0,1,5.92.3,13.41,13.41,0,0,1,3.215.811,23.487,23.487,0,0,1,2.092,4.289c-.715-.309-1.428-.627-2.164-.879a23.031,23.031,0,0,0-9.023-1.238,10.768,10.768,0,0,1,.691,1.861,4.53,4.53,0,0,1-1.5,3.271,10.289,10.289,0,0,1-3.531-2.281,23.253,23.253,0,0,0-4.9-3.463c-.287-.145-.789-.447-.453-.811a9.655,9.655,0,0,1,1.246-.627A15.919,15.919,0,0,0,80.1,411.664Z" transform="translate(-73.758 -383.133)" fill="#8dd278"/><path d="M193.221,443.152a1.643,1.643,0,0,1,1.967,2.045c-.174.775-.986,1.049-1.564,1.457a3.967,3.967,0,0,0-1.668,3.8,1.854,1.854,0,0,1-1.537,1.473,2.307,2.307,0,0,1-1.6-.619c-.078-.264-.152-.527-.221-.791a7.649,7.649,0,0,1,1.678-5.271A7.408,7.408,0,0,1,193.221,443.152Z" transform="translate(-166.162 -409.712)" fill="#8dd278"/></g></g></svg>