<svg xmlns="http://www.w3.org/2000/svg" width="96.787" height="100" viewBox="0 0 96.787 100"><g transform="translate(-8.22)"><g transform="translate(31.618)"><path d="M243.69,0h.48a14.246,14.246,0,0,0,1.273,1.787,8.426,8.426,0,0,0,3.846,2.148c-.6.145-1.18.328-1.77.494a3.856,3.856,0,0,0-.426,2.2,4.5,4.5,0,0,0,.9,1.5,19.974,19.974,0,0,1,3.395-.879,23.924,23.924,0,0,1,2.689-.289c.279,0,.834-.02.709.414-.273.545-.705,1-.955,1.557a7.381,7.381,0,0,0-.537,2.742,31.606,31.606,0,0,0-4.537,1.02,3.023,3.023,0,0,1-1.244-1.422c-.41-1.041.16-2.1.4-3.1a13.285,13.285,0,0,0-2.7,1.465,11.637,11.637,0,0,0-1.744-1.082A7.66,7.66,0,0,1,245.151,5.6a9.117,9.117,0,0,0-2.721-1.316A21.972,21.972,0,0,1,243.69,0Z" transform="translate(-220.084)" fill="#ff7186"/><path d="M332.581,38.954c.1-.311.422-.395.686-.514a8.2,8.2,0,0,0,1.141,1.955,8.021,8.021,0,0,0,2.945,2,7.84,7.84,0,0,0-1.451.492,2.361,2.361,0,0,0,.152,3.129c1.045.023,2.057-.4,3.107-.424,1.016-.066,2.033-.041,3.051-.029.012.906-.953,1.4-1.223,2.223a11.625,11.625,0,0,0-.445,1.943,22.368,22.368,0,0,0-3.727.5c-.656.232-1.023-.527-1.293-.988-.547-1.037.105-2.135.508-3.094a12.924,12.924,0,0,0-2.584,1.1,14.181,14.181,0,0,0-1.506-1.141,7.781,7.781,0,0,1,1.785-2.475,8.883,8.883,0,0,0-2.758-1.551c.1.033.3.1.395.137A28.3,28.3,0,0,1,332.581,38.954Z" transform="translate(-291.331 -30.932)" fill="#ff7186"/><path d="M155.367,40.631c.1-.457.449-.516.834-.387.865,1.762,2.795,2.623,4.619,3.012-.52.186-1.025.414-1.531.635a5.3,5.3,0,0,0-.2,1.729,5.68,5.68,0,0,0,.871,1.551,15.231,15.231,0,0,0-2.281,1.5,14.6,14.6,0,0,0-1.592-.8,5.648,5.648,0,0,1,1.227-2.8,8.567,8.567,0,0,0-2.553-.975Q154.989,42.352,155.367,40.631Z" transform="translate(-149.537 -32.336)" fill="#ff7186"/><path d="M183.31,69.043c.41-.107.824-.205,1.238-.3a7.8,7.8,0,0,1,.742,4.152,19.868,19.868,0,0,0-3.918,1.326l-.084.039a5.093,5.093,0,0,1-1.244-1.615,5.323,5.323,0,0,1,.3-2.543A19.168,19.168,0,0,1,183.31,69.043Z" transform="translate(-169.825 -55.314)" fill="#ff7186"/><path d="M239.63,78.529c.223-.479.834-.309,1.078.055a7.938,7.938,0,0,0,2.539,3.014,9.1,9.1,0,0,0,4.23,1.707,8.407,8.407,0,0,0-2.7.781,4.174,4.174,0,0,0-.625,2.32,4.37,4.37,0,0,0,1.174,2.357,33.076,33.076,0,0,1,4.479-1.121,16.065,16.065,0,0,1,4.283-.277c.043.1.127.293.168.391a19.494,19.494,0,0,0-1.381,2.279,9.161,9.161,0,0,0-.588,3.361,30.524,30.524,0,0,0-6.008,1.424,5.035,5.035,0,0,1-1.7-2.551c-.189-1.189.41-2.281.742-3.387a11.234,11.234,0,0,0-3.549,1.885,13.745,13.745,0,0,0-2.236-1.414,8.205,8.205,0,0,1,2.174-3.807,11.326,11.326,0,0,0-1.461-.93,9.809,9.809,0,0,1-2.135-1.074A47.787,47.787,0,0,1,239.63,78.529Z" transform="translate(-216.616 -62.955)" fill="#ff7186"/><path d="M353.824,112.858a.5.5,0,0,1,.7-.283c.441.525.645,1.2,1.041,1.756a7.813,7.813,0,0,0,3.045,2.5c.395.191.795.369,1.193.553a7.278,7.278,0,0,0-1.979.471,3.569,3.569,0,0,0-.689,2,3.642,3.642,0,0,0,.879,2.023,22.6,22.6,0,0,1,3.838-.627,16.982,16.982,0,0,1,3.605.023.918.918,0,0,1,.146.426c-.365.551-.869,1-1.2,1.574a7.69,7.69,0,0,0-.881,3.041,27.934,27.934,0,0,0-5.227.748,4.662,4.662,0,0,1-1.211-2.133,6.65,6.65,0,0,1,.85-3,11.58,11.58,0,0,0-3.145,1.377,12.712,12.712,0,0,0-1.826-1.4,7.769,7.769,0,0,1,2.176-3.057,11.537,11.537,0,0,0-2.895-1.779A25.975,25.975,0,0,1,353.824,112.858Z" transform="translate(-308.455 -90.546)" fill="#ff7186"/><path d="M128.889,113.977c.041-.338.4-.355.666-.3.469.467.791,1.059,1.262,1.525a8.131,8.131,0,0,0,3.6,2c.355.1.715.2,1.076.279a6.8,6.8,0,0,0-1.783.773,3.123,3.123,0,0,0-.4,1.924,3.62,3.62,0,0,0,1.17,2.02,32.733,32.733,0,0,1,3.7-1.271c.514-.125,1.031-.232,1.549-.338a6.282,6.282,0,0,1,2.137-.211c.254.492-.24.916-.42,1.348a6.738,6.738,0,0,0-.713,3.906,24.692,24.692,0,0,0-4.969,1.652,4.422,4.422,0,0,1-1.613-1.922,6.622,6.622,0,0,1,.34-3.086,11.642,11.642,0,0,0-2.877,1.9,12.488,12.488,0,0,0-2.041-1.045,8.111,8.111,0,0,1,1.6-3.406,9.661,9.661,0,0,0-3.156-1.213c.045-.4.088-.8.131-1.2A26.444,26.444,0,0,1,128.889,113.977Z" transform="translate(-128.02 -91.453)" fill="#ff7186"/></g><g transform="translate(26.527 3.646)"><path d="M219.671,18.677a13.9,13.9,0,0,1,4.391.623,9.117,9.117,0,0,1,2.721,1.316,7.66,7.66,0,0,0-1.682,2.957,16.711,16.711,0,0,0-4.359-1.3,5.345,5.345,0,0,0-.619-2.5C219.972,19.413,219.411,19.085,219.671,18.677Z" transform="translate(-196.624 -18.666)" fill="#ff4155"/><path d="M247.651,43.295a13.285,13.285,0,0,1,2.7-1.465c-.236,1.008-.807,2.063-.4,3.1a3.023,3.023,0,0,0,1.244,1.422,31.606,31.606,0,0,1,4.537-1.02,18.15,18.15,0,0,1,3.119-.223c.65.67-.484,1.346-.727,1.971a7.727,7.727,0,0,0-.746,4.121,8.324,8.324,0,0,1-1.631,6.574,6.013,6.013,0,0,1,1.49-3.766c-.055-.1-.16-.289-.213-.385a22,22,0,0,0-3.646.381,9.1,9.1,0,0,1-4.23-1.707,18.539,18.539,0,0,1,1.119-3.777,16.306,16.306,0,0,0,.832-2.045,11.216,11.216,0,0,0-3.443,1.844,11.208,11.208,0,0,0-2.2-1.383A7.044,7.044,0,0,1,247.651,43.295Z" transform="translate(-217.431 -37.306)" fill="#ff4155"/><path d="M312.687,53.3a11.45,11.45,0,0,1,3.484.736,8.883,8.883,0,0,1,2.758,1.551,7.781,7.781,0,0,0-1.785,2.475,16.192,16.192,0,0,0-3.781-1.459,5.434,5.434,0,0,0-.783-3.166Z" transform="translate(-271.441 -46.536)" fill="#ff4155"/><path d="M133.92,58.858a12.293,12.293,0,0,1,4.07.191,8.567,8.567,0,0,1,2.553.975,5.648,5.648,0,0,0-1.227,2.8,18.943,18.943,0,0,0-4.02-.869c-.055-.211-.107-.422-.16-.633C135.041,60.356,134.274,59.706,133.92,58.858Z" transform="translate(-127.676 -50.93)" fill="#ff4155"/><path d="M162.579,77.251a15.231,15.231,0,0,1,2.281-1.5l.1-.049a5.323,5.323,0,0,0-.3,2.543,5.093,5.093,0,0,0,1.244,1.615,12.52,12.52,0,0,0-2.93,1.92,11.646,11.646,0,0,0-2.121-1.092A7.513,7.513,0,0,1,162.579,77.251Z" transform="translate(-149.346 -64.561)" fill="#ff4155"/><path d="M330.4,79a12.924,12.924,0,0,1,2.584-1.1c-.4.959-1.055,2.057-.508,3.094.27.461.637,1.221,1.293.988a22.368,22.368,0,0,1,3.727-.5c.889-.033,1.779-.041,2.67-.051.092.094.275.283.369.377-.242.7-.939,1.143-1.248,1.822-.928,1.625-.729,3.543-.846,5.336a7.813,7.813,0,0,1-3.045-2.5c-.4-.557-.6-1.23-1.041-1.756a.5.5,0,0,0-.7.283,25.975,25.975,0,0,0-1.574,4.2,11.537,11.537,0,0,1,2.895,1.779,7.769,7.769,0,0,0-2.176,3.057,19.8,19.8,0,0,0-4.676-1.854,5.694,5.694,0,0,0-.5-2.84c-.15-.389-.537-.754-.408-1.2a13.164,13.164,0,0,1,3.637.641,13.463,13.463,0,0,1,.758-3.264c.42-1.182,1.139-2.219,1.652-3.359a11.407,11.407,0,0,0-3.268,1.326,11.939,11.939,0,0,0-1.885-1.41A7.082,7.082,0,0,1,330.4,79Z" transform="translate(-283.196 -66.331)" fill="#ff4155"/><path d="M181.772,91.326A19.868,19.868,0,0,1,185.69,90a8.479,8.479,0,0,0,1.7,6.672,5.865,5.865,0,0,0-.687-2.645c-.293-.527-.824-.994-.74-1.652a21.449,21.449,0,0,1,5.641.852c.031-.055.092-.164.123-.217a9.809,9.809,0,0,0,2.135,1.074,11.326,11.326,0,0,1,1.461.93,8.205,8.205,0,0,0-2.174,3.807,25.454,25.454,0,0,0-8.883-2.072c-.461-.01-1.062-.143-1.324.354a11.091,11.091,0,0,0,1.074,1.752,8.286,8.286,0,0,1,.9,4.021c-.422-.062-.842-.123-1.264-.184.18-.432.674-.855.42-1.348a6.282,6.282,0,0,0-2.137.211c-.451-.689-.863-1.4-1.27-2.115a4.675,4.675,0,0,0,.668-1.58,7.915,7.915,0,0,0-.834-.01C180.294,95.588,181.067,93.432,181.772,91.326Z" transform="translate(-165.133 -76.068)" fill="#ff4155"/><path d="M244.925,134.635a11.234,11.234,0,0,1,3.549-1.885c-.332,1.105-.932,2.2-.742,3.387a5.035,5.035,0,0,0,1.7,2.551,30.524,30.524,0,0,1,6.008-1.424c.291-.041.584-.082.879-.121a6.691,6.691,0,0,1,.734,3.893,24.928,24.928,0,0,0-3.123-.545.518.518,0,0,0-.645.508c.273.637.717,1.186.98,1.83a7.844,7.844,0,0,1,.531,3.443c-.066,1.248-.461,2.461-.437,3.717a12.253,12.253,0,0,0,.4,2.736,51.28,51.28,0,0,0-6.648-3.836c-.432-.221-.869-.434-1.314-.625a17.415,17.415,0,0,1,1.17-6.021c.4-1.186,1.115-2.244,1.4-3.473a15.332,15.332,0,0,0-4.465,2.367,14.091,14.091,0,0,0-2.871-1.793A9.407,9.407,0,0,1,244.925,134.635Z" transform="translate(-214.671 -110.468)" fill="#ff4155"/><path d="M101.95,136.865a10.621,10.621,0,0,1,4.133-.033c.32.049.641.105.959.17a9.661,9.661,0,0,1,3.156,1.213,8.111,8.111,0,0,0-1.6,3.406,18.123,18.123,0,0,0-4.945-1.008c-.053-.322-.1-.646-.176-.965a4.432,4.432,0,0,0-1.162-2.23C102.194,137.232,102.071,137.049,101.95,136.865Z" transform="translate(-101.95 -113.595)" fill="#ff4155"/><path d="M137.784,159.7a11.642,11.642,0,0,1,2.877-1.9,6.622,6.622,0,0,0-.34,3.086,4.422,4.422,0,0,0,1.613,1.922,24.692,24.692,0,0,1,4.969-1.652,18.568,18.568,0,0,1,3.279-.529c.348-.086.432.246.473.516-.279.635-.723,1.184-.982,1.83a8.018,8.018,0,0,0-.465,4.039,25.912,25.912,0,0,1,.379,2.924,14.919,14.919,0,0,1-.357,2.879,36.044,36.044,0,0,0-5.049,4.18,7.99,7.99,0,0,1-2.98-3.127,10.825,10.825,0,0,1-.43-7.264c.258-1.277.869-2.451,1.113-3.732a12.73,12.73,0,0,0-3.623,2.363,12.207,12.207,0,0,0-2.58-1.326A8.02,8.02,0,0,1,137.784,159.7Z" transform="translate(-129.092 -130.625)" fill="#ff4155"/><path d="M353.741,162.037a11.58,11.58,0,0,1,3.145-1.377,6.65,6.65,0,0,0-.85,3,4.662,4.662,0,0,0,1.211,2.133,27.934,27.934,0,0,1,5.227-.748c.586-.023,1.174-.033,1.764-.041.635.107,1.83-.3,1.969.6a5.2,5.2,0,0,1-.691.883,7.67,7.67,0,0,0-1.811,5.029,10.687,10.687,0,0,1-.98,5.318c-2.275.842-4.65,1.361-6.99,1.984a7.818,7.818,0,0,1-1.4-4.816,14.7,14.7,0,0,1,2.281-6.834,7.611,7.611,0,0,0,.586-1.322,13.673,13.673,0,0,0-3.951,1.713,11.833,11.833,0,0,0-2.309-1.752A7.914,7.914,0,0,1,353.741,162.037Z" transform="translate(-302.309 -132.927)" fill="#ff4155"/></g><g transform="translate(36.906 3.63)"><path d="M268.321,18.892a19.411,19.411,0,0,1,3.023-.3c.586.268-.2.8-.344,1.162a5.611,5.611,0,0,0-.576,2.455,19.973,19.973,0,0,0-3.395.879,4.5,4.5,0,0,1-.9-1.5,3.856,3.856,0,0,1,.426-2.2C267.142,19.22,267.726,19.036,268.321,18.892Z" transform="translate(-244.404 -18.587)" fill="#fc90a5"/><path d="M178.562,53.818a18.806,18.806,0,0,1,3.033-.508c-.109.311-.217.621-.328.932.482.047.965.1,1.449.145-.531-.033-1.062-.018-1.594,0l-.148.486a6.777,6.777,0,0,0-.211,1.752,19.168,19.168,0,0,0-2.963,1.057l-.1.049a5.68,5.68,0,0,1-.871-1.551,5.3,5.3,0,0,1,.2-1.729C177.537,54.232,178.043,54,178.562,53.818Z" transform="translate(-172.567 -46.528)" fill="#fc90a5"/><path d="M355.537,58.628c1.055.129,2.148-.2,3.174.141-.277.516-.672.961-.941,1.482a7.942,7.942,0,0,0-.424,1.574c-1.051.02-2.062.447-3.107.424a2.361,2.361,0,0,1-.152-3.129A7.84,7.84,0,0,1,355.537,58.628Z" transform="translate(-314.804 -50.793)" fill="#fc90a5"/><path d="M272.334,102.621a22,22,0,0,1,3.646-.381c.053.1.158.287.213.385a6.013,6.013,0,0,0-1.49,3.766c-.01.143-.029.426-.041.568a33.076,33.076,0,0,0-4.479,1.121,4.37,4.37,0,0,1-1.174-2.357,4.174,4.174,0,0,1,.625-2.32A8.407,8.407,0,0,1,272.334,102.621Z" transform="translate(-246.761 -85.901)" fill="#fc90a5"/><path d="M160.085,130.162a7.915,7.915,0,0,1,.834.01,4.675,4.675,0,0,1-.668,1.58,7.469,7.469,0,0,0-.279,2.453,32.733,32.733,0,0,0-3.7,1.271,3.62,3.62,0,0,1-1.17-2.02,3.123,3.123,0,0,1,.4-1.924,6.8,6.8,0,0,1,1.783-.773C158.216,130.563,159.142,130.319,160.085,130.162Z" transform="translate(-155.094 -108.365)" fill="#fc90a5"/><path d="M379.942,136.97a18.59,18.59,0,0,1,3.52-.025c.025.078.074.234.1.313a15.034,15.034,0,0,0-1.092,1.586,6.142,6.142,0,0,0-.42,1.715c-.014.068-.043.207-.057.277a22.6,22.6,0,0,0-3.838.627,3.642,3.642,0,0,1-.879-2.023,3.569,3.569,0,0,1,.689-2A7.278,7.278,0,0,1,379.942,136.97Z" transform="translate(-333.878 -113.765)" fill="#fc90a5"/></g><g transform="translate(8.766 4.752)"><path d="M162.14,27.486a50.242,50.242,0,0,1,11.742-3.156,5.345,5.345,0,0,1,.619,2.5,20.646,20.646,0,0,0-2.838-.293c-.3-.061-.49.186-.686.361a6.237,6.237,0,0,1,1.609,4.354q-.835-.117-1.674-.189c-.484-.045-.967-.1-1.449-.145.111-.311.219-.621.328-.932a18.806,18.806,0,0,0-3.033.508C164.935,30.109,163.005,29.248,162.14,27.486Z" transform="translate(-132.624 -24.33)" fill="#f9e9bd"/><path d="M288.9,24.56a47.771,47.771,0,0,1,25.209,11.859c-1.27.451-2.658.465-3.889,1.033-.172.09-.338.184-.5.287-1-.406-2.02-.777-3.047-1.121.27-.82,1.234-1.316,1.223-2.223-1.018-.012-2.035-.037-3.051.029a7.942,7.942,0,0,1,.424-1.574c.27-.521.664-.967.941-1.482-1.025-.336-2.119-.012-3.174-.141a8.021,8.021,0,0,1-2.945-2,8.2,8.2,0,0,1-1.141-1.955c-.264.119-.59.2-.686.514a28.3,28.3,0,0,0-1.217,3.262c-.1-.035-.295-.1-.395-.137a11.45,11.45,0,0,0-3.484-.736l-.107.137a5.434,5.434,0,0,1,.783,3.166c-.406-.1-.816-.2-1.223-.289.242-.625,1.377-1.3.727-1.971a18.15,18.15,0,0,0-3.119.223,7.381,7.381,0,0,1,.537-2.742c.25-.559.682-1.012.955-1.557.125-.434-.43-.41-.709-.414a23.924,23.924,0,0,0-2.689.289A5.611,5.611,0,0,1,288.9,24.56Z" transform="translate(-234.159 -24.515)" fill="#f9e9bd"/><path d="M92.24,50.741a48.435,48.435,0,0,1,12.818-8.271q-.381,1.72-.607,3.471a12.293,12.293,0,0,0-4.07-.191c.354.848,1.121,1.5,1.217,2.461.033.164.1.494.129.658-1.025.047-2.158-.291-3.113.166.244.721.934,1.189,1.229,1.895-1.031.363-2.064.725-3.082,1.123-.123-.068-.25-.135-.377-.2C95.06,51.283,93.584,51.259,92.24,50.741Z" transform="translate(-76.376 -38.927)" fill="#f9e9bd"/><path d="M197.06,63.072a6.777,6.777,0,0,1,.211-1.752,14.182,14.182,0,0,1,1.027,1.449C197.884,62.867,197.47,62.965,197.06,63.072Z" transform="translate(-160.723 -54.095)" fill="#f9e9bd"/><path d="M58.75,115.108q.627-.776,1.232-1.568c-.02.258-.033.514-.041.771C59.545,114.579,59.143,114.837,58.75,115.108Z" transform="translate(-49.427 -96.116)" fill="#f9e9bd"/><path d="M448.96,115.98c.26.379.547.74.838,1.1-.271-.187-.545-.367-.816-.547C448.976,116.392,448.964,116.119,448.96,115.98Z" transform="translate(-363.424 -98.08)" fill="#f9e9bd"/><path d="M12.781,201.09a43.724,43.724,0,0,0,4.781,7.9c1.518,1.922,3.256,3.654,4.816,5.539a80.045,80.045,0,0,1,7.1,10.256A84.112,84.112,0,0,0,40.1,239.471a23.729,23.729,0,0,0,.439,4.387,14.421,14.421,0,0,1-.326,4.762,2.97,2.97,0,0,0,.215,2.531,5.576,5.576,0,0,0,3.9,2.387c-1,1.662-2.035,3.307-3.082,4.941a48.484,48.484,0,0,1-19.012-13.744,47.758,47.758,0,0,1-9.451-43.645Z" transform="translate(-11.016 -166.567)" fill="#f9e9bd"/><path d="M347.287,210.3a41.285,41.285,0,0,0,5.828-9.162,47.937,47.937,0,0,1-30.352,58.08c-1.1-1.895-2.295-3.729-3.344-5.648a6.858,6.858,0,0,0,4.832-1.053,3.69,3.69,0,0,0,1.619-2.418,5.624,5.624,0,0,0-.285-1.98,14.091,14.091,0,0,1-.187-4.436,19.639,19.639,0,0,0,.408-4.213,61.3,61.3,0,0,0,5.8-7.16c3.619-5.053,6.4-10.656,10.2-15.584C343.484,214.462,345.426,212.415,347.287,210.3Z" transform="translate(-259.185 -166.607)" fill="#f9e9bd"/></g><g transform="translate(24.468 6.954)"><path d="M207.39,35.973c.2-.176.387-.422.686-.361a20.646,20.646,0,0,1,2.838.293,16.711,16.711,0,0,1,4.359,1.3,11.637,11.637,0,0,1,1.744,1.082,7.044,7.044,0,0,0-2.191,3.646,20.559,20.559,0,0,0-5.826-1.6A6.237,6.237,0,0,0,207.39,35.973Z" transform="translate(-184.737 -35.602)" fill="#e80054"/><path d="M252.417,67.484a11.216,11.216,0,0,1,3.443-1.844,16.306,16.306,0,0,1-.832,2.045,18.539,18.539,0,0,0-1.119,3.777,7.938,7.938,0,0,1-2.539-3.014C251.714,68.122,252.054,67.79,252.417,67.484Z" transform="translate(-220.127 -59.773)" fill="#e80054"/><path d="M306.4,72.851a7.727,7.727,0,0,1,.746-4.121c.406.094.816.188,1.223.289a16.192,16.192,0,0,1,3.781,1.459,14.181,14.181,0,0,1,1.506,1.141,7.082,7.082,0,0,0-2.3,3.084A19.364,19.364,0,0,0,306.4,72.851Z" transform="translate(-264.393 -62.26)" fill="#e80054"/><path d="M127.854,71.86c.053.211.105.422.16.633a18.943,18.943,0,0,1,4.02.869,14.6,14.6,0,0,1,1.592.8A7.513,7.513,0,0,0,131.9,77.6a19.487,19.487,0,0,0-5.1-.936c-.1-.236-.207-.469-.3-.707-.119-.463-.242-.926-.4-1.375-.295-.705-.984-1.174-1.229-1.895.955-.457,2.088-.119,3.113-.166C127.95,72.354,127.888,72.024,127.854,71.86Z" transform="translate(-118.334 -64.778)" fill="#e80054"/><path d="M165.844,96.829l.084-.039c-.705,2.105-1.479,4.262-1.268,6.523-.943.156-1.869.4-2.8.6-.361-.08-.721-.176-1.076-.279a7.965,7.965,0,0,1,2.135-4.883A12.52,12.52,0,0,1,165.844,96.829Z" transform="translate(-147.231 -84.839)" fill="#e80054"/><path d="M318.174,101.066a11.407,11.407,0,0,1,3.268-1.326c-.514,1.141-1.232,2.178-1.652,3.359a13.463,13.463,0,0,0-.758,3.264,13.164,13.164,0,0,0-3.637-.641c-.129.441.258.807.408,1.2a5.694,5.694,0,0,1,.5,2.84,19.8,19.8,0,0,1,4.676,1.854,12.712,12.712,0,0,1,1.826,1.4,7.914,7.914,0,0,0-2.8,3.775,23.189,23.189,0,0,0-6.254-2.318,6.691,6.691,0,0,0-.734-3.893,5.514,5.514,0,0,1-.52-1.41c.809.043,1.615.123,2.42.221a13.8,13.8,0,0,1,.432-4.121A7.819,7.819,0,0,1,318.174,101.066Z" transform="translate(-269.318 -87.213)" fill="#e80054"/><path d="M193.14,124.807c.262-.5.863-.363,1.324-.354a25.454,25.454,0,0,1,8.883,2.072,13.745,13.745,0,0,1,2.236,1.414,9.407,9.407,0,0,0-2.895,4.709,26.118,26.118,0,0,0-7.572-2.068,8.286,8.286,0,0,0-.9-4.021A11.091,11.091,0,0,1,193.14,124.807Z" transform="translate(-173.27 -107.081)" fill="#e80054"/><path d="M180.349,138.33c.406.715.818,1.426,1.27,2.115-.518.105-1.035.213-1.549.338A7.469,7.469,0,0,1,180.349,138.33Z" transform="translate(-162.753 -118.266)" fill="#e80054"/><path d="M91.5,157.238c-.189-.187-.064-.623.225-.605a18.841,18.841,0,0,1,3.449.006,18.124,18.124,0,0,1,4.945,1.008,12.488,12.488,0,0,1,2.041,1.045,8.02,8.02,0,0,0-2.1,4.211,23.56,23.56,0,0,0-6.57-1.2,7.791,7.791,0,0,0-.879-3.031A14.526,14.526,0,0,0,91.5,157.238Z" transform="translate(-91.408 -132.928)" fill="#e80054"/><path d="M241.6,165.937a15.332,15.332,0,0,1,4.465-2.367c-.285,1.229-1,2.287-1.4,3.473a17.415,17.415,0,0,0-1.17,6.021,4.9,4.9,0,0,0-3.578-.184c-.684.242-1.332.572-1.988.877A10.776,10.776,0,0,1,241.6,165.937Z" transform="translate(-209.312 -138.576)" fill="#e80054"/><path d="M138.1,186.123a12.73,12.73,0,0,1,3.623-2.363c-.244,1.281-.855,2.455-1.113,3.732a10.825,10.825,0,0,0,.43,7.264,7.99,7.99,0,0,0,2.98,3.127c-.488.488-.961.994-1.436,1.5-2.133-.68-4.291-1.273-6.451-1.855a15.393,15.393,0,0,1-.539-6.1A9.108,9.108,0,0,1,138.1,186.123Z" transform="translate(-126.868 -154.823)" fill="#e80054"/><path d="M346.136,188.953a13.673,13.673,0,0,1,3.951-1.713,7.611,7.611,0,0,1-.586,1.322,14.7,14.7,0,0,0-2.281,6.834,7.818,7.818,0,0,0,1.4,4.816c-1.922.506-3.834,1.047-5.74,1.607a11.459,11.459,0,0,1-.344-7.348A9.212,9.212,0,0,1,346.136,188.953Z" transform="translate(-293.137 -157.623)" fill="#e80054"/></g><g transform="translate(22.81 11.469)"><path d="M198.288,58.742c.531-.02,1.063-.035,1.594,0q.838.073,1.674.189a20.559,20.559,0,0,1,5.826,1.6,11.208,11.208,0,0,1,2.2,1.383c-.363.307-.7.639-1.047.965-.244-.363-.855-.533-1.078-.055a47.787,47.787,0,0,0-1.51,5.014c-.031.053-.092.162-.123.217a21.449,21.449,0,0,0-5.641-.852c-.084.658.447,1.125.74,1.652a5.865,5.865,0,0,1,.688,2.645,8.479,8.479,0,0,1-1.7-6.672,7.8,7.8,0,0,0-.742-4.152,14.182,14.182,0,0,0-1.027-1.449Z" transform="translate(-175.636 -58.721)" fill="#cc0053"/><path d="M299.622,89.83a19.364,19.364,0,0,1,4.959,1.852,11.939,11.939,0,0,1,1.885,1.41,7.819,7.819,0,0,0-2.822,4.2,13.8,13.8,0,0,0-.432,4.121c-.8-.1-1.611-.178-2.42-.221a5.514,5.514,0,0,0,.52,1.41c-.295.039-.588.08-.879.121a9.161,9.161,0,0,1,.588-3.361,19.494,19.494,0,0,1,1.381-2.279c-.041-.1-.125-.293-.168-.391a16.065,16.065,0,0,0-4.283.277c.012-.143.031-.426.041-.568A8.324,8.324,0,0,0,299.622,89.83Z" transform="translate(-255.952 -83.754)" fill="#cc0053"/><path d="M120.627,92.82c.094.238.2.471.3.707a19.486,19.486,0,0,1,5.1.936,11.647,11.647,0,0,1,2.121,1.092,7.965,7.965,0,0,0-2.135,4.883,8.131,8.131,0,0,1-3.6-2c-.471-.467-.793-1.059-1.262-1.525-.268-.051-.625-.033-.666.3a26.444,26.444,0,0,0-.738,3.33,11.345,11.345,0,0,0-.555-4.352,7.124,7.124,0,0,0-1.617-2.256,7.343,7.343,0,0,0,.57-.475c.852,0,1.7.037,2.553.039C120.675,93.332,120.644,92.99,120.627,92.82Z" transform="translate(-110.802 -86.16)" fill="#cc0053"/><path d="M193.057,158.886a6.738,6.738,0,0,1,.713-3.906c.422.061.842.121,1.264.184a26.118,26.118,0,0,1,7.572,2.068,14.091,14.091,0,0,1,2.871,1.793,10.776,10.776,0,0,0-3.672,7.82,47.843,47.843,0,0,0-6.422,3.7,14.919,14.919,0,0,0,.357-2.879,25.912,25.912,0,0,0-.379-2.924,8.018,8.018,0,0,1,.465-4.039c.26-.646.7-1.2.982-1.83-.041-.27-.125-.6-.473-.516A18.568,18.568,0,0,0,193.057,158.886Z" transform="translate(-171.53 -136.179)" fill="#cc0053"/><path d="M299.629,172.835a.518.518,0,0,1,.645-.508,24.929,24.929,0,0,1,3.123.545,23.189,23.189,0,0,1,6.254,2.318,11.833,11.833,0,0,1,2.309,1.752,9.212,9.212,0,0,0-3.6,5.52,11.459,11.459,0,0,0,.344,7.348c-.4.119-.807.242-1.207.373a35.585,35.585,0,0,0-6.389-5.621,12.251,12.251,0,0,1-.4-2.736c-.023-1.256.371-2.469.438-3.717a7.844,7.844,0,0,0-.531-3.443C300.346,174.021,299.9,173.472,299.629,172.835Z" transform="translate(-257.303 -150.129)" fill="#cc0053"/><path d="M82.92,183.337c.025-.23.137-.547.416-.547a11.843,11.843,0,0,1,1.861-.072c.484.008.971.018,1.457.039a23.56,23.56,0,0,1,6.57,1.2,12.207,12.207,0,0,1,2.58,1.326,9.108,9.108,0,0,0-2.506,5.3,15.393,15.393,0,0,0,.539,6.1c-2.484-.672-5.014-1.2-7.428-2.1a10.6,10.6,0,0,1-.885-2.8c-.152-.975-.057-1.963-.123-2.941a8.053,8.053,0,0,0-1.246-3.951C83.795,184.329,83.266,183.9,82.92,183.337Z" transform="translate(-82.92 -158.497)" fill="#cc0053"/></g><g transform="translate(14.369 14.283)"><path d="M65.411,74.108c-.076-.426.486-.588.74-.3a17.236,17.236,0,0,0,4.035,2.033c1.344.518,2.82.541,4.143,1.115a3.634,3.634,0,0,1-.662,2.266,3.711,3.711,0,0,1-1.461.52,1.971,1.971,0,0,0-1.467-.9,1.819,1.819,0,0,0-1.9,1.543,2.123,2.123,0,0,0,.449,1.5c-.414.592-.8,1.311-1.539,1.539a5.941,5.941,0,0,1-2.9-.156c-.01-.348-.008-.7,0-1.047.008-.258.021-.514.041-.771A25.279,25.279,0,0,0,65.411,74.108Z" transform="translate(-59.925 -73.559)" fill="#81c66d"/><path d="M404.319,75.5a18.352,18.352,0,0,0,4.688-2.373c.559.42.273,1.15.293,1.738a30.641,30.641,0,0,0,.609,6.631c0,.139.016.412.021.549,0,.266,0,.529-.008.795a5.233,5.233,0,0,1-3.143.055c-.629-.268-.932-.922-1.291-1.459a2.028,2.028,0,0,0,.387-1.713,1.808,1.808,0,0,0-2-1.3,2.085,2.085,0,0,0-1.32.887c-.572-.164-1.287-.186-1.645-.736a4.655,4.655,0,0,1-.482-2.041C401.66,75.968,403.049,75.954,404.319,75.5Z" transform="translate(-329.975 -73.13)" fill="#81c66d"/><path d="M39.707,136.6l.146-.135a4.608,4.608,0,0,1,1.332.412A21.636,21.636,0,0,0,47,138.706c1.02.143,2.047.2,3.068.322a3.227,3.227,0,0,1-.953,2.008,6.975,6.975,0,0,1-2.045.705,1.879,1.879,0,0,0-2.553-.408,1.85,1.85,0,0,0-.162,2.814,3.857,3.857,0,0,1-.758,3.113c-.8.8-2.014.729-3.055.844-.016.1-.045.293-.061.391-.174-1.7.029-3.395-.033-5.094a32.769,32.769,0,0,0-.375-4.123A12.928,12.928,0,0,1,39.707,136.6Z" transform="translate(-39.701 -124.099)" fill="#81c66d"/><path d="M424.536,138.63a25.381,25.381,0,0,0,6.84-2.25,3.319,3.319,0,0,1,.52.488,34.483,34.483,0,0,0-.8,5.879c-.113,1.748.094,3.5-.014,5.244a4.561,4.561,0,0,1-3.146-.793c-.838-.748-.748-1.971-.9-2.986a2.174,2.174,0,0,0,.705-1.666,1.785,1.785,0,0,0-1.807-1.629,2.069,2.069,0,0,0-1.475.73c-.84-.227-1.85-.3-2.406-1.057a2.986,2.986,0,0,1-.508-1.7A27.3,27.3,0,0,0,424.536,138.63Z" transform="translate(-346.97 -124.026)" fill="#81c66d"/></g><g transform="translate(8.46 16.754)"><path d="M115.38,86.9c1.018-.4,2.051-.76,3.082-1.123.16.449.283.912.4,1.375.018.17.049.512.066.682-.852,0-1.7-.035-2.553-.039A11.693,11.693,0,0,0,115.38,86.9Z" transform="translate(-94.691 -85.78)" fill="#543e5b"/><path d="M380.435,86.3c1.027.344,2.043.715,3.047,1.121-.287.242-.559.5-.822.771-.891.01-1.781.018-2.67.051A11.625,11.625,0,0,1,380.435,86.3Z" transform="translate(-307.619 -86.198)" fill="#543e5b"/><path d="M44.048,118.287c.393-.271.795-.529,1.191-.8,0,.35-.006.7,0,1.047a6.77,6.77,0,0,0,2.387,4.9,21.636,21.636,0,0,1-5.818-1.824,4.608,4.608,0,0,0-1.332-.412C41.611,120.158,42.832,119.224,44.048,118.287Z" transform="translate(-34.419 -111.297)" fill="#543e5b"/><path d="M439.229,118.79c.271.18.545.359.816.547,1.25.914,2.408,1.941,3.635,2.889a25.381,25.381,0,0,1-6.84,2.25,6.813,6.813,0,0,0,2.381-4.891C439.227,119.319,439.231,119.056,439.229,118.79Z" transform="translate(-353.365 -112.343)" fill="#543e5b"/><path d="M9.45,144.221a35.255,35.255,0,0,1,5.914-7.061,12.928,12.928,0,0,0,.371,2.674,32.769,32.769,0,0,1,.375,4.123c.063,1.7-.141,3.4.033,5.094a10.216,10.216,0,0,0,.852,3.168,34.637,34.637,0,0,1-6.791-7.172A6.708,6.708,0,0,0,9.45,144.221Z" transform="translate(-9.45 -127.125)" fill="#543e5b"/><path d="M468.388,138.88a40.637,40.637,0,0,1,5.48,6.742,4.319,4.319,0,0,0-.68.7,34.932,34.932,0,0,1-6.289,6.822,11.754,11.754,0,0,0,.678-3.137c.107-1.748-.1-3.5.014-5.244A34.483,34.483,0,0,1,468.388,138.88Z" transform="translate(-377.554 -128.509)" fill="#543e5b"/><path d="M163.133,381.787a8.753,8.753,0,0,1,6.551,1.555c.123,1.176.65,2.266.729,3.449a5.4,5.4,0,0,1-.58,3.369,24.342,24.342,0,0,1-1.7,2.059c-1.852-.2-3.617-1.289-5.512-.865-1.3.307-2.041,1.492-2.689,2.553a14.421,14.421,0,0,0,.326-4.762,23.728,23.728,0,0,1-.439-4.387A4.247,4.247,0,0,1,163.133,381.787Z" transform="translate(-130.43 -323.856)" fill="#543e5b"/><path d="M298.475,383.321a10.673,10.673,0,0,1,3.973-1.6,6.6,6.6,0,0,1,3.717.516,3.994,3.994,0,0,1,2.1,2.5,19.639,19.639,0,0,1-.408,4.213,14.091,14.091,0,0,0,.188,4.436c-.8-.75-1.455-1.795-2.605-2.023-1.842-.369-3.562.668-5.361.848a5.779,5.779,0,0,1-2.416-4.039C297.434,386.493,298.178,384.936,298.475,383.321Z" transform="translate(-241.334 -323.878)" fill="#543e5b"/><path d="M236.837,409.175a1.27,1.27,0,0,1,1.125-1.105c.658.1,1.244.447,1.895.584.3.072.594.139.893.209a16.918,16.918,0,0,0-.2,3.875c.029,1.154-.086,2.316.051,3.467.029.479.543.629.9.818a6.069,6.069,0,0,0-3.3.473c-.734.256-1.189-.535-1.477-1.072a14.577,14.577,0,0,0,.086-2.242C236.792,412.513,236.75,410.841,236.837,409.175Z" transform="translate(-192.339 -345.123)" fill="#543e5b"/><path d="M269.93,477.3c1.469-.58,3.045-.08,4.557-.018a18.929,18.929,0,0,0,1.844,5.205l-.65.174a55.184,55.184,0,0,1-7.521,1.1,22.646,22.646,0,0,1-.982-3.877l-.016-.074C267.973,478.868,268.7,477.721,269.93,477.3Z" transform="translate(-216.826 -400.606)" fill="#543e5b"/><path d="M199.774,477.959c1.537-.129,3.186-.5,4.637.221a8.945,8.945,0,0,1,2.7,2.307c-.092.428-.172.857-.256,1.287a14.443,14.443,0,0,1-.754,2.578,59.755,59.755,0,0,1-7.469-1.1l-.668-.2A19.259,19.259,0,0,0,199.774,477.959Z" transform="translate(-161.142 -401.191)" fill="#543e5b"/></g><g transform="translate(15.154 17.682)"><path d="M104.7,90.53c.127.061.254.127.377.2a11.693,11.693,0,0,1,1,.895,7.343,7.343,0,0,1-.57.475,7.124,7.124,0,0,1,1.617,2.256,11.345,11.345,0,0,1,.555,4.352c-.043.4-.086.8-.131,1.2-.318-.064-.639-.121-.959-.17a63.707,63.707,0,0,0-4.01-6.416,3.711,3.711,0,0,0,1.461-.52A3.634,3.634,0,0,0,104.7,90.53Z" transform="translate(-91.084 -90.53)" fill="#5aab5f"/><path d="M387.377,90.857c.162-.1.328-.2.5-.287a4.655,4.655,0,0,0,.482,2.041c.357.551,1.072.572,1.645.736a59.969,59.969,0,0,0-3.98,6.369c-.4-.184-.8-.361-1.193-.553.117-1.793-.082-3.711.846-5.336.309-.68,1.006-1.121,1.248-1.822-.094-.094-.277-.283-.369-.377C386.818,91.361,387.09,91.1,387.377,90.857Z" transform="translate(-318.207 -90.562)" fill="#5aab5f"/><path d="M67.774,117.309c.738-.229,1.125-.947,1.539-1.539.982,1.4,1.908,2.842,2.8,4.3.121.184.244.367.367.553.373.75.8,1.473,1.162,2.23.072.318.123.643.176.965a18.841,18.841,0,0,0-3.449-.006c-.289-.018-.414.418-.225.605a14.526,14.526,0,0,1,1.107,1.434,7.791,7.791,0,0,1,.879,3.031c-.486-.021-.973-.031-1.457-.039q-1.605-1.939-3.346-3.764a6.975,6.975,0,0,0,2.045-.705,3.227,3.227,0,0,0,.953-2.008c-1.021-.127-2.049-.18-3.068-.322a6.77,6.77,0,0,1-2.387-4.9A5.941,5.941,0,0,0,67.774,117.309Z" transform="translate(-60.739 -110.84)" fill="#5aab5f"/><path d="M406.293,115.67c.359.537.662,1.191,1.291,1.459a5.233,5.233,0,0,0,3.143-.055,6.813,6.813,0,0,1-2.381,4.891,27.3,27.3,0,0,1-2.986.262,2.986,2.986,0,0,0,.508,1.7c.557.76,1.566.83,2.406,1.057-1.172,1.242-2.289,2.531-3.408,3.82-.59.008-1.178.018-1.764.041a7.69,7.69,0,0,1,.881-3.041c.33-.576.834-1.023,1.2-1.574a.918.918,0,0,0-.146-.426,16.982,16.982,0,0,0-3.605-.023c.014-.07.043-.209.057-.277A83.173,83.173,0,0,1,406.293,115.67Z" transform="translate(-331.565 -110.76)" fill="#5aab5f"/><path d="M46.835,178.893a3.857,3.857,0,0,0,.758-3.113,72.873,72.873,0,0,1,6.266,7.475c.066.979-.029,1.967.123,2.941a10.6,10.6,0,0,0,.885,2.8,35.523,35.523,0,0,1-10.295-5.7,10.216,10.216,0,0,1-.852-3.168c.016-.1.045-.293.061-.391C44.822,179.622,46.031,179.69,46.835,178.893Z" transform="translate(-43.72 -159.13)" fill="#5aab5f"/><path d="M418.768,176.48c.15,1.016.061,2.238.9,2.986a4.561,4.561,0,0,0,3.146.793,11.754,11.754,0,0,1-.678,3.137,35.909,35.909,0,0,1-10.865,6.174,10.687,10.687,0,0,0,.98-5.318A90.644,90.644,0,0,1,418.768,176.48Z" transform="translate(-339.483 -159.693)" fill="#5aab5f"/></g><g transform="translate(18.456 19.558)"><path d="M85.22,101.687a1.819,1.819,0,0,1,1.9-1.543,1.971,1.971,0,0,1,1.467.9,63.707,63.707,0,0,1,4.01,6.416,10.621,10.621,0,0,0-4.133.033c-.891-1.463-1.816-2.9-2.8-4.3A2.123,2.123,0,0,1,85.22,101.687Z" transform="translate(-80.397 -100.137)" fill="#a0e589"/><path d="M394.92,101.054a2.085,2.085,0,0,1,1.32-.887,1.808,1.808,0,0,1,2,1.3,2.028,2.028,0,0,1-.387,1.713,83.173,83.173,0,0,0-4.807,7.832,6.142,6.142,0,0,1,.42-1.715,15.034,15.034,0,0,1,1.092-1.586c-.023-.078-.072-.234-.1-.312a18.59,18.59,0,0,0-3.52.025A59.969,59.969,0,0,1,394.92,101.054Z" transform="translate(-326.426 -100.145)" fill="#a0e589"/><path d="M103.83,140.64a4.432,4.432,0,0,1,1.162,2.23C104.631,142.113,104.2,141.39,103.83,140.64Z" transform="translate(-95.392 -132.729)" fill="#a0e589"/><path d="M61.36,159.96a1.879,1.879,0,0,1,2.553.408q1.737,1.822,3.346,3.764a11.843,11.843,0,0,0-1.861.072c-.279,0-.391.316-.416.547.346.566.875.992,1.236,1.547a8.053,8.053,0,0,1,1.246,3.951,72.873,72.873,0,0,0-6.266-7.475A1.85,1.85,0,0,1,61.36,159.96Z" transform="translate(-60.626 -148.001)" fill="#a0e589"/><path d="M420.231,160.335a2.069,2.069,0,0,1,1.475-.73,1.785,1.785,0,0,1,1.807,1.629,2.174,2.174,0,0,1-.705,1.666,90.644,90.644,0,0,0-6.518,7.771,7.67,7.67,0,0,1,1.811-5.029,5.2,5.2,0,0,0,.691-.883c-.139-.908-1.334-.5-1.969-.6C417.942,162.866,419.06,161.577,420.231,160.335Z" transform="translate(-346.824 -147.988)" fill="#a0e589"/></g><g transform="translate(8.22 33.85)"><path d="M8.22,173.673c.061-.09.18-.271.24-.363a6.708,6.708,0,0,1,.754.826,34.637,34.637,0,0,0,6.791,7.172,35.523,35.523,0,0,0,10.295,5.7c2.414.9,4.943,1.432,7.428,2.1,2.16.582,4.318,1.176,6.451,1.855A62.892,62.892,0,0,1,52.79,196.2a22.669,22.669,0,0,1,3.738,2.557,19.385,19.385,0,0,0-7.615,11.738,32.173,32.173,0,0,0-.342,5.818c-.275-.219-.566-.416-.857-.609a8.753,8.753,0,0,0-6.551-1.555,4.247,4.247,0,0,0-3.313,2.971,84.112,84.112,0,0,1-10.619-14.684,80.045,80.045,0,0,0-7.1-10.256c-1.561-1.885-3.3-3.617-4.816-5.539a43.724,43.724,0,0,1-4.781-7.9C9.722,177.068,8.931,175.388,8.22,173.673Z" transform="translate(-8.22 -173.31)" fill="#a4b3ea"/></g><g transform="translate(53.415 33.867)"><path d="M321.9,174.1a4.319,4.319,0,0,1,.68-.7c.059.088.174.262.232.348-.711,1.717-1.506,3.4-2.311,5.07a41.285,41.285,0,0,1-5.828,9.162c-1.861,2.113-3.8,4.16-5.484,6.426-3.8,4.928-6.58,10.531-10.2,15.584a61.3,61.3,0,0,1-5.8,7.16,3.994,3.994,0,0,0-2.1-2.5,6.6,6.6,0,0,0-3.717-.516c-2.787-1.021-5.555-2.625-7.082-5.266-1.852-3.246-1.691-7.256-.574-10.721a14.94,14.94,0,0,0,.461-2.836,28.392,28.392,0,0,1,4.395-2.07c2.035-.842,4.145-1.484,6.23-2.184.4-.131.8-.254,1.207-.373,1.906-.561,3.818-1.1,5.74-1.607,2.34-.623,4.715-1.143,6.99-1.984a35.909,35.909,0,0,0,10.865-6.174A34.932,34.932,0,0,0,321.9,174.1Z" transform="translate(-271.222 -173.4)" fill="#e9efff"/><path d="M301.94,464.52a16.421,16.421,0,0,0,3.414.99c1.049,1.92,2.248,3.754,3.344,5.648-1.656.553-3.34,1.018-5.031,1.441l.65-.174a18.929,18.929,0,0,1-1.844-5.205C302.325,466.315,302.163,465.411,301.94,464.52Z" transform="translate(-289.768 -407.661)" fill="#e9efff"/><path d="M242.259,491.869a7.374,7.374,0,0,1,2.756-.281,22.646,22.646,0,0,0,.982,3.877c-.7.025-1.4.059-2.1.1h-1.414c-.955-.014-1.908-.066-2.861-.086a14.443,14.443,0,0,0,.754-2.578A8.87,8.87,0,0,1,242.259,491.869Z" transform="translate(-239.62 -429.427)" fill="#e9efff"/></g><g transform="translate(38.993 41.002)"><path d="M186.745,210.187a4.9,4.9,0,0,1,3.578.184c.445.191.883.4,1.314.625a10.837,10.837,0,0,0-2.033,5.584,6.817,6.817,0,0,0,1.137,4.188c.9,1.406,2.566,2.2,3.133,3.834a43.556,43.556,0,0,0-5.674,3.621,22.669,22.669,0,0,0-3.738-2.557,62.892,62.892,0,0,0-12.611-5.227c.475-.5.947-1.008,1.436-1.5a36.044,36.044,0,0,1,5.049-4.18,47.843,47.843,0,0,1,6.422-3.7C185.413,210.759,186.061,210.429,186.745,210.187Z" transform="translate(-170.664 -209.931)" fill="#bec8f7"/><path d="M243.736,465.964a21.225,21.225,0,0,1,2.215-6.264,22.878,22.878,0,0,1,2.154,6.168l.016.074a7.374,7.374,0,0,0-2.756.281,8.87,8.87,0,0,0-1.885,1.027C243.564,466.821,243.644,466.391,243.736,465.964Z" transform="translate(-228.304 -410.917)" fill="#bec8f7"/><path d="M168.862,465.548a11.132,11.132,0,0,0,5.57-.988c-.219.922-.383,1.854-.553,2.787a19.259,19.259,0,0,1-1.814,5.1l.668.2a41.571,41.571,0,0,1-6.953-2.152C166.827,468.855,167.862,467.21,168.862,465.548Z" transform="translate(-165.78 -414.828)" fill="#bec8f7"/></g><g transform="translate(48.572 42.066)"><path d="M224.181,220.964a10.837,10.837,0,0,1,2.033-5.584,51.28,51.28,0,0,1,6.648,3.836,35.585,35.585,0,0,1,6.389,5.621c-2.086.7-4.2,1.342-6.23,2.184a28.392,28.392,0,0,0-4.395,2.07,14.94,14.94,0,0,1-.461,2.836c-1.117,3.465-1.277,7.475.574,10.721,1.527,2.641,4.295,4.244,7.082,5.266a10.673,10.673,0,0,0-3.973,1.6,22.989,22.989,0,0,0-3.375,3.047,22.875,22.875,0,0,1-1.984,1.6,1.1,1.1,0,0,0-1.4-1.035,5.717,5.717,0,0,1-2.859.48c-.65-.137-1.236-.486-1.895-.584a1.27,1.27,0,0,0-1.125,1.105,39.339,39.339,0,0,1-4.387-3.957,32.173,32.173,0,0,1,.342-5.818,19.385,19.385,0,0,1,7.615-11.738,43.556,43.556,0,0,1,5.674-3.621c-.566-1.639-2.234-2.428-3.133-3.834A6.817,6.817,0,0,1,224.181,220.964Z" transform="translate(-214.82 -215.38)" fill="#dae2fe"/></g><g transform="translate(37.778 76.197)"><path d="M170.223,393.622c-.078-1.184-.605-2.273-.729-3.449.291.193.582.391.857.609a39.339,39.339,0,0,0,4.387,3.957c-.088,1.666-.045,3.338-.021,5.006-2.254.473-4.48-.246-6.711-.469a8.776,8.776,0,0,1,1.3,2.883,18.937,18.937,0,0,1-.037,2.4c1.986-.357,3.566-1.748,5.365-2.572.287.537.742,1.328,1.477,1.072a6.069,6.069,0,0,1,3.3-.473,5.385,5.385,0,0,0,1.73.436,1.232,1.232,0,0,0,.9-1.191c1.367.822,2.742,1.641,4.178,2.34a3.127,3.127,0,0,0,1.354.285,7.5,7.5,0,0,1,.1-2.951c.293-.781.752-1.484,1.119-2.23-2.25.238-4.5.939-6.771.463q.012-2.484.008-4.965a22.875,22.875,0,0,0,1.984-1.6,22.989,22.989,0,0,1,3.375-3.047c-.3,1.615-1.041,3.172-.816,4.854a5.779,5.779,0,0,0,2.416,4.039c1.8-.18,3.52-1.217,5.361-.848,1.15.229,1.809,1.273,2.605,2.023a5.624,5.624,0,0,1,.285,1.98,3.69,3.69,0,0,1-1.619,2.418,6.858,6.858,0,0,1-4.832,1.053,16.421,16.421,0,0,1-3.414-.99c.223.891.385,1.795.533,2.7-1.512-.062-3.088-.562-4.557.018-1.232.424-1.957,1.57-2.77,2.508a22.878,22.878,0,0,0-2.154-6.168,21.225,21.225,0,0,0-2.215,6.264,8.945,8.945,0,0,0-2.7-2.307c-1.451-.723-3.1-.35-4.637-.221.17-.934.334-1.865.553-2.787a11.132,11.132,0,0,1-5.57.988,5.576,5.576,0,0,1-3.9-2.387,2.97,2.97,0,0,1-.215-2.531c.648-1.061,1.393-2.246,2.689-2.553,1.895-.424,3.66.664,5.512.865a24.342,24.342,0,0,0,1.7-2.059A5.4,5.4,0,0,0,170.223,393.622Z" transform="translate(-159.559 -390.13)" fill="#422953"/></g><g transform="translate(55.978 79.74)"><path d="M255.6,408.334a1.1,1.1,0,0,1,1.4,1.035q0,2.481-.008,4.965c-.006.7.022,1.395.023,2.094a1.232,1.232,0,0,1-.9,1.191,5.385,5.385,0,0,1-1.73-.436c-.355-.189-.869-.34-.9-.818-.137-1.15-.021-2.312-.051-3.467a16.918,16.918,0,0,1,.2-3.875c-.3-.07-.6-.137-.893-.209A5.717,5.717,0,0,0,255.6,408.334Z" transform="translate(-252.74 -408.27)" fill="#665364"/></g><g transform="translate(46.226 85.342)"><path d="M202.81,436.96c2.23.223,4.457.941,6.711.469a14.577,14.577,0,0,1-.086,2.242c-1.8.824-3.379,2.215-5.365,2.572a18.937,18.937,0,0,0,.037-2.4A8.776,8.776,0,0,0,202.81,436.96Z" transform="translate(-202.81 -436.958)" fill="#30144a"/><path d="M274.527,437.413c2.273.477,4.521-.225,6.771-.463-.367.746-.826,1.449-1.119,2.23a7.5,7.5,0,0,0-.1,2.951,3.127,3.127,0,0,1-1.354-.285c-1.436-.7-2.811-1.518-4.178-2.34C274.548,438.807,274.521,438.11,274.527,437.413Z" transform="translate(-260.519 -436.95)" fill="#30144a"/></g></g></svg>