<svg width="30" height="16" viewBox="0 0 30 16" fill="none" xmlns="http://www.w3.org/2000/svg">
<g clip-path="url(#clip0_3077_8034)">
<path d="M12.2627 3.30591L10.7571 12.6753H13.1637L14.6684 3.30591H12.2627ZM19.5218 7.12249C18.6808 6.70718 18.1653 6.42689 18.1653 6.00213C18.1756 5.61593 18.6013 5.22026 19.5519 5.22026C20.3337 5.20062 20.9084 5.38437 21.3444 5.56719L21.5628 5.66466L21.8899 3.70435C21.4146 3.5206 20.6609 3.31814 19.7299 3.31814C17.3534 3.31814 15.68 4.55376 15.6696 6.32098C15.6499 7.62508 16.8677 8.34875 17.779 8.78287C18.7099 9.22819 19.0268 9.51692 19.0268 9.91258C19.0166 10.5201 18.2741 10.8004 17.5813 10.8004C16.6213 10.8004 16.1056 10.656 15.3228 10.3175L15.0059 10.1731L14.6694 12.2104C15.2347 12.4617 16.2744 12.6828 17.3535 12.6941C19.8791 12.6941 21.5226 11.4772 21.5432 9.59383C21.5514 8.56067 20.9093 7.76934 19.5218 7.12249ZM28.0596 3.3349H26.1977C25.624 3.3349 25.188 3.49993 24.9396 4.0887L21.3648 12.6753H23.8905L24.5861 10.8163H27.4117L27.7726 12.6828H30.0002L28.0596 3.3349ZM25.2865 8.94019C25.3352 8.94492 26.2559 5.90547 26.2559 5.90547L26.989 8.94019C26.989 8.94019 25.7618 8.94019 25.2865 8.94019ZM8.7462 3.30591L6.38837 9.67157L6.13152 8.4162C5.69555 6.96774 4.32872 5.39372 2.80334 4.61186L4.96242 12.666H7.50872L11.2925 3.30694H8.7462V3.30591Z" fill="#2394BC"/>
<path d="M5.33815 4.51438C5.15441 3.79997 4.56842 3.31814 3.77257 3.30786H0.0384557L0 3.48122C2.91287 4.19933 5.35779 6.409 6.15096 8.48746L5.33815 4.51438Z" fill="#EFC75E"/>
</g>
<defs>
<clipPath id="clip0_3077_8034">
<rect width="30" height="16" fill="white"/>
</clipPath>
</defs>
</svg>
