<svg xmlns="http://www.w3.org/2000/svg" width="35" height="35"><path fill="#262626" d="M17.5 35A17.5 17.5 0 1 0 0 17.5 17.5 17.5 0 0 0 17.5 35Z"/><path fill="#fff" d="M25.094 18.486c-.372-.47-.266-.679 0-1.1 0 0 3.078-4.251 3.394-5.691.157-.525 0-.91-.761-.91h-2.515a1.081 1.081 0 0 0-1.095.7 20.591 20.591 0 0 1-3.095 5.057c-.585.575-.856.759-1.175.759-.157 0-.4-.184-.4-.709v-4.9c0-.629-.179-.91-.71-.91h-3.96a.6.6 0 0 0-.641.567c0 .6.907.734 1 2.413v3.643c0 .8-.145.945-.466.945-.856 0-2.933-3.081-4.164-6.606-.248-.684-.491-.96-1.137-.96H6.851c-.719 0-.863.331-.863.7 0 .654.856 3.908 3.979 8.206a9.848 9.848 0 0 0 7.681 4.523c1.6 0 1.8-.353 1.8-.96 0-2.8-.145-3.068.658-3.068.372 0 1.013.184 2.51 1.6 1.711 1.678 1.992 2.429 2.949 2.429h2.517c.718 0 1.081-.353.872-1.05-.479-1.464-3.714-4.476-3.86-4.678Z"/></svg>