<svg xmlns="http://www.w3.org/2000/svg" width="35" height="35"><path fill="#262626" d="M17.5 35A17.5 17.5 0 1 0 0 17.5 17.5 17.5 0 0 0 17.5 35Z"/><path fill="#fff" d="M24.546 11.147a9.392 9.392 0 0 0-14.811 11.3L8.4 27.3l4.989-1.3a9.441 9.441 0 0 0 4.5 1.14 9.4 9.4 0 0 0 9.41-9.365 9.286 9.286 0 0 0-2.753-6.628Zm-6.657 14.409a7.839 7.839 0 0 1-3.981-1.085l-.288-.171-2.96.773.79-2.872-.186-.295a7.812 7.812 0 0 1 12.159-9.643 7.718 7.718 0 0 1 2.289 5.507 7.814 7.814 0 0 1-7.823 7.786Zm4.29-5.83c-.235-.117-1.391-.683-1.607-.761s-.372-.117-.529.117-.607.761-.745.918-.274.176-.509.059A6.432 6.432 0 0 1 16.9 18.9a7.057 7.057 0 0 1-1.308-1.621c-.137-.234-.014-.361.1-.478s.235-.273.353-.41a1.6 1.6 0 0 0 .235-.39.429.429 0 0 0-.02-.41c-.059-.117-.529-1.269-.725-1.738s-.385-.394-.529-.4-.294-.008-.451-.008a.865.865 0 0 0-.627.293 2.619 2.619 0 0 0-.823 1.952 4.541 4.541 0 0 0 .96 2.421 10.462 10.462 0 0 0 4.017 3.533 13.574 13.574 0 0 0 1.341.493 3.24 3.24 0 0 0 1.481.093 2.422 2.422 0 0 0 1.587-1.113A1.948 1.948 0 0 0 22.63 20c-.058-.1-.215-.156-.45-.274Z"/></svg>